<?xml version="1.0" encoding="utf-8"?>
<!-- Generator: Adobe Illustrator 27.9.0, SVG Export Plug-In . SVG Version: 6.00 Build 0)  -->
<svg version="1.1" id="Layer_1" xmlns="http://www.w3.org/2000/svg" xmlns:xlink="http://www.w3.org/1999/xlink" x="0px" y="0px"
	 viewBox="0 0 1000 1000" style="enable-background:new 0 0 1000 1000;" xml:space="preserve">
<style type="text/css">
	.st0{clip-path:url(#XMLID_00000001641624063947736740000016156856220390091938_);}
	.st1{fill:url(#SVGID_1_);}
	.st2{fill:url(#SVGID_00000023977950319079573610000005131925050742376079_);}
	.st3{fill:url(#SVGID_00000058567949630995407860000018229680945789883269_);}
	.st4{fill:url(#SVGID_00000094585887985918164420000008861352007415630218_);}
	.st5{fill:url(#SVGID_00000041272464649311454520000006518538829909303446_);}
	.st6{fill:url(#SVGID_00000077299426701302411230000017103340526336129460_);}
	.st7{fill:url(#SVGID_00000149364593073855317150000012914432865953689774_);}
	.st8{fill:url(#SVGID_00000096022656318476404550000017388003087103323055_);}
	.st9{fill:url(#SVGID_00000139289841627964071090000005993579924662689199_);}
	.st10{fill:url(#SVGID_00000005266832886563664730000005052367996948860600_);}
	.st11{fill:url(#SVGID_00000125604795018514916930000012919026236286165654_);}
	.st12{fill:url(#SVGID_00000178190651085766561800000009332386173295430275_);}
	.st13{fill:url(#SVGID_00000157306535383672096090000002652492413333263017_);}
	.st14{fill:url(#SVGID_00000137841278025793400210000011525790986464487860_);}
	.st15{fill:url(#SVGID_00000166651128172521486740000013707147430140547003_);}
	.st16{fill:url(#SVGID_00000026873770263204451640000004672831473900892591_);}
	.st17{fill:url(#SVGID_00000065784609820017381060000012645250363420619920_);}
	.st18{fill:url(#SVGID_00000152951595424993568850000004230369950562462893_);}
	.st19{fill:url(#SVGID_00000003096133096707002580000004420065000830768286_);}
	.st20{fill:url(#SVGID_00000132081579847377739990000017729061070812652982_);}
	.st21{fill:url(#SVGID_00000052799025645827493320000011965662580560745349_);}
	.st22{fill:url(#SVGID_00000078723886307773225620000004205595566922796718_);}
	.st23{fill:url(#SVGID_00000180330600910403894880000007441662799098179220_);}
	.st24{fill:url(#SVGID_00000178921306448446959400000007265760065577893781_);}
	.st25{fill:url(#SVGID_00000164486002228709377500000017718033427945466523_);}
	.st26{fill:url(#SVGID_00000035493634251981999360000005423582091808899731_);}
	.st27{fill:url(#SVGID_00000103946348371290060890000004389990529822776243_);}
	.st28{fill:url(#SVGID_00000101824633870058182460000006294837780451900092_);}
	.st29{fill:url(#SVGID_00000160881555172218369950000008972271582228124550_);}
	.st30{fill:url(#SVGID_00000064317724956724478110000006476638782646703799_);}
	.st31{fill:url(#SVGID_00000059268800626911139010000009688100911906020266_);}
	.st32{fill:url(#SVGID_00000148619835576616568210000017818478555195777940_);}
	.st33{fill:url(#SVGID_00000126325763525909311720000006883553324415136409_);}
	.st34{fill:url(#SVGID_00000145750473296046522710000013183086256917651842_);}
	.st35{fill:url(#SVGID_00000180337987173566844430000002493760281907482508_);}
	.st36{fill:url(#SVGID_00000065044373491944887050000017614693092557076381_);}
	.st37{fill:url(#SVGID_00000068665770116110913420000018308419947701853596_);}
	.st38{fill:url(#SVGID_00000098190263659460964930000017701666198314259118_);}
	.st39{fill:url(#SVGID_00000173841697818267305230000017680358132216085684_);}
	.st40{fill:url(#SVGID_00000121982183026931795620000012039716868506289082_);}
	.st41{fill:url(#SVGID_00000004540899625559737490000002330895833651882634_);}
	.st42{fill:url(#SVGID_00000149358675635089966680000000863470925878137521_);}
	.st43{fill:url(#SVGID_00000114032685384394526030000010482450119771382708_);}
	.st44{fill:url(#SVGID_00000122688048272603898300000017465869416813314469_);}
	.st45{fill:url(#SVGID_00000169536009677430726290000013920958441953071001_);}
	.st46{fill:url(#SVGID_00000151542993927892057830000005173925189899418510_);}
	.st47{fill:url(#SVGID_00000151535110404601516310000000274167692516811163_);}
	.st48{fill:url(#SVGID_00000128467586627785326710000003441811690442209196_);}
	.st49{fill:url(#SVGID_00000008834143810558559050000013706920613548381830_);}
	.st50{fill:url(#SVGID_00000098198087537808429820000000015211378493727624_);}
	.st51{fill:url(#SVGID_00000119078233096813043240000017666281737325501353_);}
	.st52{fill:url(#SVGID_00000134228767773677348650000002693684379505524124_);}
	.st53{fill:url(#SVGID_00000101788560235189301160000015331429412482557880_);}
	.st54{fill:url(#SVGID_00000119114883812672006540000014051810425661700796_);}
	.st55{fill:url(#SVGID_00000079468847745920146710000016474152730767773119_);}
	.st56{fill:url(#SVGID_00000122716639397442625890000003495927613263903147_);}
</style>
<g>
	<g>
		<g>
			<g>
				<defs>
					<path id="XMLID_2_" d="M547,197.9H275.6v604.2h162c15.1,0,27.3-12.2,27.3-27.3V658.7h40.6c198.4,0,279.5-111.8,279.5-242.6
						C785.1,254.7,662.4,197.9,547,197.9z"/>
				</defs>
				
					<linearGradient id="XMLID_00000026853708559803242330000011708378632872923066_" gradientUnits="userSpaceOnUse" x1="275.584" y1="499.9998" x2="785.07" y2="499.9998">
					<stop  offset="0" style="stop-color:#3105B5"/>
					<stop  offset="0.173" style="stop-color:#3406B4"/>
					<stop  offset="0.3169" style="stop-color:#3F08B1"/>
					<stop  offset="0.4502" style="stop-color:#500BAD"/>
					<stop  offset="0.5772" style="stop-color:#6810A6"/>
					<stop  offset="0.6998" style="stop-color:#88169E"/>
					<stop  offset="0.8191" style="stop-color:#AE1D94"/>
					<stop  offset="0.9335" style="stop-color:#DB2688"/>
					<stop  offset="1" style="stop-color:#F92C80"/>
				</linearGradient>
				
					<use xlink:href="#XMLID_2_"  style="overflow:visible;fill:url(#XMLID_00000026853708559803242330000011708378632872923066_);"/>
				<clipPath id="XMLID_00000039834881697398970870000012529460509604267452_">
					<use xlink:href="#XMLID_2_"  style="overflow:visible;"/>
				</clipPath>
				<g style="clip-path:url(#XMLID_00000039834881697398970870000012529460509604267452_);">
					
						<linearGradient id="SVGID_1_" gradientUnits="userSpaceOnUse" x1="916.8899" y1="285.8411" x2="916.8899" y2="124.7647" gradientTransform="matrix(0.7893 0.6141 -0.6141 0.7893 88.3236 -545.7395)">
						<stop  offset="0" style="stop-color:#C40561"/>
						<stop  offset="0.222" style="stop-color:#C50861"/>
						<stop  offset="0.4003" style="stop-color:#CA1261"/>
						<stop  offset="0.5634" style="stop-color:#D12362"/>
						<stop  offset="0.7174" style="stop-color:#DC3B63"/>
						<stop  offset="0.8637" style="stop-color:#E95964"/>
						<stop  offset="1" style="stop-color:#F97D65"/>
					</linearGradient>
					<path class="st1" d="M513.6-47.8l8.8,2.6c13,3.8,24,12.4,30.9,24l12.4,21c6.9,11.6,17.9,20.2,30.9,24l23.4,6.9
						c13,3.8,24,12.4,30.9,24l12.4,21c6.9,11.6,17.9,20.2,30.9,24l23.4,6.9c13,3.8,24,12.4,30.9,24l12.4,21
						c6.9,11.6,17.9,20.2,30.9,24l23.4,6.9c13,3.8,24,12.4,30.9,24l12.5,21.1c6.8,11.6,17.8,20.1,30.7,24l23.7,7
						c12.7,3.8,23.6,12.2,30.4,23.5l4.7,7.8c11.5,18.9,10,43-3.6,60.4l-31.3,40.2c-18.1,23.2-51.6,27.4-74.8,9.3L434.5,85.8
						c-23.2-18.1-27.4-51.6-9.3-74.8l31.4-40.3C470-46.7,492.6-54,513.6-47.8z"/>
					
						<linearGradient id="SVGID_00000013167113760218187000000017949765818412177292_" gradientUnits="userSpaceOnUse" x1="919.7991" y1="301.2184" x2="919.7991" y2="140.1419" gradientTransform="matrix(0.7886 0.6149 -0.6149 0.7886 72.5139 -530.337)">
						<stop  offset="0" style="stop-color:#313EC0"/>
						<stop  offset="0.2133" style="stop-color:#3343C4"/>
						<stop  offset="0.4627" style="stop-color:#3751D0"/>
						<stop  offset="0.73" style="stop-color:#3F69E4"/>
						<stop  offset="1" style="stop-color:#4A88FF"/>
					</linearGradient>
					<path style="fill:url(#SVGID_00000013167113760218187000000017949765818412177292_);" d="M856.2,278.1c2.9,1.5,6.1,2.8,9.3,3.7
						l23.6,7c12.7,3.8,23.6,12.2,30.5,23.6l4.7,7.8c11.4,18.9,9.9,42.9-3.7,60.3l-31.4,40.2c-18.1,23.2-51.6,27.3-74.8,9.2
						L410.9,115.5c-23.2-18.1-27.4-51.6-9.3-74.9L433,0.3c13.5-17.3,36.1-24.6,57.1-18.4l8.8,2.6c13,3.8,24,12.4,30.9,24.1l12.4,21
						c6.9,11.6,17.9,20.3,30.9,24.1l23.4,6.9c13,3.8,24,12.4,30.9,24.1l12.4,21c6.9,11.6,17.9,20.3,30.9,24.1l23.4,6.9
						c13,3.8,24,12.4,30.9,24.1l12.4,21c6.9,11.6,17.9,20.3,30.9,24.1l23.4,6.9c13,3.8,24,12.4,30.9,24.1l12.4,21.1
						C839.9,266.5,847.3,273.5,856.2,278.1"/>
					
						<linearGradient id="SVGID_00000034800748659308623080000005678317128133537982_" gradientUnits="userSpaceOnUse" x1="922.7417" y1="316.5894" x2="922.7417" y2="155.5129" gradientTransform="matrix(0.7879 0.6158 -0.6158 0.7879 56.7043 -514.9345)">
						<stop  offset="0" style="stop-color:#34B5FF"/>
						<stop  offset="0.3038" style="stop-color:#3383EA"/>
						<stop  offset="0.9952" style="stop-color:#3106B5"/>
						<stop  offset="1" style="stop-color:#3105B5"/>
					</linearGradient>
					<path style="fill:url(#SVGID_00000034800748659308623080000005678317128133537982_);" d="M466.6,11.8l8.8,2.6
						c13,3.8,24,12.5,30.8,24.1l12.4,21c6.9,11.7,17.9,20.3,30.8,24.1l23.4,6.9c13,3.8,24,12.5,30.8,24.1l12.4,21
						c6.9,11.7,17.9,20.3,30.8,24.1l23.4,6.9c13,3.8,24,12.5,30.8,24.1l12.4,21c6.9,11.7,17.9,20.3,30.8,24.1l23.4,6.9
						c13,3.8,24,12.5,30.8,24.1l12.4,21.1c6.8,11.6,17.8,20.2,30.7,24.1l23.6,7c12.8,3.8,23.7,12.3,30.5,23.8l4.7,7.8
						c11.3,18.9,9.8,42.9-3.8,60.2l-31.4,40.2c-18.1,23.2-51.6,27.3-74.8,9.2L387.2,145.2C364,127,359.9,93.5,378,70.3l31.4-40.2
						C423,12.8,445.6,5.6,466.6,11.8z"/>
					
						<linearGradient id="SVGID_00000052089533742460718600000001576401748378780551_" gradientUnits="userSpaceOnUse" x1="1058.5415" y1="386.2782" x2="919.7686" y2="60.4501" gradientTransform="matrix(0.7873 0.6166 -0.6166 0.7873 40.8946 -499.532)">
						<stop  offset="0" style="stop-color:#34B5FF"/>
						<stop  offset="0.1887" style="stop-color:#3392F0"/>
						<stop  offset="0.749" style="stop-color:#322DC6"/>
						<stop  offset="1" style="stop-color:#3105B5"/>
					</linearGradient>
					<path style="fill:url(#SVGID_00000052089533742460718600000001576401748378780551_);" d="M511.4,57.3l8.8,2.6
						c13,3.8,24,12.5,30.8,24.1l12.3,21c6.8,11.7,17.9,20.3,30.8,24.1l23.4,6.9c13,3.8,24,12.5,30.8,24.1l12.3,21
						c6.8,11.7,17.9,20.3,30.8,24.1l23.4,6.9c13,3.8,24,12.5,30.8,24.1l12.3,21c6.8,11.7,17.9,20.3,30.8,24.1l23.4,6.9
						c13,3.8,24,12.5,30.8,24.1l12.4,21.1c6.8,11.6,17.8,20.2,30.7,24.1l23.5,7c12.8,3.8,23.7,12.4,30.6,23.9l4.7,7.9
						c11.2,18.9,9.7,42.8-3.9,60.1L909.5,497c-18.2,23.2-51.7,27.2-74.9,9.1L431.9,190.6c-23.2-18.2-27.3-51.7-9.1-74.9l31.5-40.2
						C467.7,58.3,490.4,51,511.4,57.3z"/>
					
						<linearGradient id="SVGID_00000031908919641314510170000002751139004104193950_" gradientUnits="userSpaceOnUse" x1="985.6318" y1="423.7151" x2="871.7284" y2="112.9913" gradientTransform="matrix(0.7866 0.6175 -0.6175 0.7866 25.085 -484.1296)">
						<stop  offset="0.22" style="stop-color:#2449EC"/>
						<stop  offset="0.3392" style="stop-color:#254FED"/>
						<stop  offset="0.4984" style="stop-color:#2960F0"/>
						<stop  offset="0.6801" style="stop-color:#307CF4"/>
						<stop  offset="0.8772" style="stop-color:#39A2FA"/>
						<stop  offset="1" style="stop-color:#3FBEFF"/>
					</linearGradient>
					<path style="fill:url(#SVGID_00000031908919641314510170000002751139004104193950_);" d="M419.6,71.3l8.8,2.6
						c13,3.9,24,12.5,30.8,24.2l12.3,21c6.8,11.7,17.8,20.3,30.8,24.2l23.4,7c13,3.9,24,12.5,30.8,24.2l12.3,21
						c6.8,11.7,17.8,20.3,30.8,24.2l23.4,7c13,3.9,24,12.5,30.8,24.2l12.3,21c6.8,11.7,17.8,20.3,30.8,24.2l23.4,7
						c13,3.9,24,12.5,30.8,24.2l12.3,21.1c6.8,11.6,17.8,20.3,30.7,24.2l23.5,7c12.9,3.9,23.8,12.4,30.6,24l4.6,7.9
						c11.2,18.9,9.6,42.8-4,60l-31.5,40.1c-18.2,23.2-51.7,27.2-74.9,9L339.9,204.6c-23.2-18.2-27.2-51.7-9-74.9l31.5-40.2
						C375.9,72.3,398.6,65.1,419.6,71.3z"/>
					
						<linearGradient id="SVGID_00000176015056415481382890000009608073892689715087_" gradientUnits="userSpaceOnUse" x1="527.8711" y1="218.607" x2="1146.1476" y2="275.077" gradientTransform="matrix(0.7098 0.7044 -0.7044 0.7098 71.5198 -527.6486)">
						<stop  offset="0" style="stop-color:#3105B5"/>
						<stop  offset="0.1574" style="stop-color:#3506B4"/>
						<stop  offset="0.3" style="stop-color:#4008B1"/>
						<stop  offset="0.437" style="stop-color:#520BAC"/>
						<stop  offset="0.5706" style="stop-color:#6C11A5"/>
						<stop  offset="0.7016" style="stop-color:#8E179C"/>
						<stop  offset="0.8308" style="stop-color:#B71F92"/>
						<stop  offset="0.956" style="stop-color:#E62885"/>
						<stop  offset="1" style="stop-color:#F92C80"/>
					</linearGradient>
					<path style="fill:url(#SVGID_00000176015056415481382890000009608073892689715087_);" d="M348.2-9.4l8.4,3.6
						c12.4,5.3,22.4,15.2,27.8,27.6l9.8,22.3c5.4,12.4,15.4,22.2,27.8,27.6l22.4,9.6c12.4,5.3,22.4,15.2,27.8,27.6l9.8,22.3
						c5.4,12.4,15.4,22.2,27.8,27.6l22.4,9.6c12.4,5.3,22.4,15.2,27.8,27.6l9.8,22.3c5.4,12.4,15.4,22.2,27.8,27.6l22.4,9.6
						c12.4,5.3,22.4,15.2,27.8,27.6l9.8,22.4c5.4,12.4,15.3,22.2,27.7,27.5l22.5,9.7c12.3,5.3,22.2,15.1,27.6,27.4l3.7,8.4
						c8.9,20.1,4.6,43.6-10.9,59.2l-36,36.2c-20.8,20.9-54.5,21-75.4,0.3L253.7,113.7c-20.9-20.7-21-54.5-0.3-75.4l36-36.2
						C304.8-13.5,328.1-18,348.2-9.4z"/>
					
						<linearGradient id="SVGID_00000098208901479389299600000010178793137494664837_" gradientUnits="userSpaceOnUse" x1="970.582" y1="465.0905" x2="907.9304" y2="197.8425" gradientTransform="matrix(0.8242 0.5663 -0.5663 0.8242 -14.3944 -467.5339)">
						<stop  offset="0" style="stop-color:#D80832"/>
						<stop  offset="0.1643" style="stop-color:#D80A36"/>
						<stop  offset="0.3328" style="stop-color:#D91042"/>
						<stop  offset="0.5033" style="stop-color:#DB1957"/>
						<stop  offset="0.6752" style="stop-color:#DD2774"/>
						<stop  offset="0.8465" style="stop-color:#DF3898"/>
						<stop  offset="1" style="stop-color:#E24AC0"/>
					</linearGradient>
					<path style="fill:url(#SVGID_00000098208901479389299600000010178793137494664837_);" d="M387.4,120.3l8.9,2
						c13.2,3,24.7,11,32.3,22.2l13.6,20.2c7.6,11.2,19.1,19.1,32.3,22.2l23.8,5.5c13.2,3,24.7,11,32.3,22.2l13.6,20.2
						c7.6,11.2,19.1,19.1,32.3,22.2l23.8,5.5c13.2,3,24.7,11,32.3,22.2l13.6,20.2c7.6,11.2,19.1,19.1,32.3,22.2l23.8,5.5
						c13.2,3,24.7,11,32.3,22.2l13.6,20.2c7.5,11.2,19.1,19.1,32.2,22.2l23.8,5.5c13.1,3,24.6,10.9,32.2,22.1l5.1,7.6
						c12.3,18.2,12.2,42-0.2,60.1l-28.9,42.1c-16.7,24.3-49.9,30.4-74.2,13.7L316.3,258.3c-24.3-16.7-30.4-49.9-13.8-74.2l28.9-42.1
						C343.9,124,366,115.4,387.4,120.3z"/>
					
						<linearGradient id="SVGID_00000075128098752964945330000001512953686479438723_" gradientUnits="userSpaceOnUse" x1="875.4278" y1="409.429" x2="1021.7128" y2="79.622" gradientTransform="matrix(0.6936 0.7203 -0.7203 0.6936 64.245 -522.4231)">
						<stop  offset="0.25" style="stop-color:#2449EC"/>
						<stop  offset="0.7219" style="stop-color:#3591F8"/>
						<stop  offset="1" style="stop-color:#3FBEFF"/>
					</linearGradient>
					<path style="fill:url(#SVGID_00000075128098752964945330000001512953686479438723_);" d="M409.2,80l8.3,3.8
						c12.3,5.6,22,15.7,27.2,28.2l9.3,22.5c5.1,12.5,14.9,22.6,27.2,28.2l22.2,10.1c12.3,5.6,22,15.7,27.2,28.2l9.3,22.5
						c5.1,12.5,14.9,22.6,27.2,28.2l22.2,10.1c12.3,5.6,22,15.7,27.2,28.2l9.3,22.5c5.1,12.5,14.9,22.6,27.2,28.2l22.2,10.1
						c12.3,5.6,22,15.7,27.2,28.2l9.3,22.6c5.1,12.5,14.8,22.6,27.1,28.2l22.2,10.2c12.3,5.6,21.9,15.6,27.1,28.1l3.5,8.4
						c8.4,20.3,3.5,43.6-12.3,58.8l-36.8,35.4c-21.2,20.4-55,19.8-75.4-1.4L311.8,200.9c-20.4-21.2-19.8-55,1.4-75.4L350,90.1
						C365.8,74.9,389.3,70.9,409.2,80z"/>
					
						<linearGradient id="SVGID_00000139257153547390419820000017252545068088592789_" gradientUnits="userSpaceOnUse" x1="951.4038" y1="413.2896" x2="917.9801" y2="182.9345" gradientTransform="matrix(0.7853 0.6192 -0.6192 0.7853 -6.5343 -453.3246)">
						<stop  offset="0" style="stop-color:#D80832"/>
						<stop  offset="0.241" style="stop-color:#D90B35"/>
						<stop  offset="0.4413" style="stop-color:#DE163F"/>
						<stop  offset="0.627" style="stop-color:#E52750"/>
						<stop  offset="0.8039" style="stop-color:#EF3F67"/>
						<stop  offset="0.9731" style="stop-color:#FD5E86"/>
						<stop  offset="1" style="stop-color:#FF648B"/>
					</linearGradient>
					<path style="fill:url(#SVGID_00000139257153547390419820000017252545068088592789_);" d="M372.6,130.9l8.7,2.6
						c12.9,3.9,23.9,12.6,30.7,24.2l12.3,21.1c6.8,11.7,17.8,20.3,30.7,24.2l23.4,7c12.9,3.9,23.9,12.6,30.7,24.2l12.3,21.1
						c6.8,11.7,17.8,20.3,30.7,24.2l23.4,7c12.9,3.9,23.9,12.6,30.7,24.2l12.3,21.1c6.8,11.7,17.8,20.3,30.7,24.2l23.4,7
						c12.9,3.9,23.9,12.6,30.7,24.2l12.3,21.1c6.8,11.7,17.8,20.3,30.7,24.2l23.4,7c12.9,3.9,23.9,12.6,30.7,24.2l4.6,7.9
						c11,18.9,9.4,42.7-4.2,59.9l-31.6,40.1c-18.2,23.1-51.8,27.1-74.9,8.9L292.6,263.9c-23.1-18.2-27.1-51.8-8.9-74.9l31.6-40.1
						C328.9,131.7,351.6,124.6,372.6,130.9z"/>
					
						<linearGradient id="SVGID_00000068641707132300471580000010993548074890221491_" gradientUnits="userSpaceOnUse" x1="760.4413" y1="458.2358" x2="926.1178" y2="119.3155" gradientTransform="matrix(0.72 0.694 -0.694 0.72 31.1518 -493.412)">
						<stop  offset="0" style="stop-color:#2449EC"/>
						<stop  offset="0.3043" style="stop-color:#2D70F2"/>
						<stop  offset="0.7732" style="stop-color:#3AA8FB"/>
						<stop  offset="1" style="stop-color:#3FBEFF"/>
					</linearGradient>
					<path style="fill:url(#SVGID_00000068641707132300471580000010993548074890221491_);" d="M291.7,54.5l8.4,3.5
						c12.5,5.2,22.6,14.9,28.2,27.2l10.1,22.2c5.6,12.3,15.7,22,28.2,27.2l22.5,9.3c12.5,5.2,22.6,14.9,28.2,27.2l10.1,22.2
						c5.6,12.3,15.7,22,28.2,27.2l22.5,9.3c12.5,5.2,22.6,14.9,28.2,27.2l10.1,22.2c5.6,12.3,15.7,22,28.2,27.2l22.5,9.3
						c12.5,5.2,22.6,14.9,28.2,27.2l10.1,22.2c5.6,12.3,15.7,22,28.2,27.2l22.5,9.3c12.5,5.2,22.6,14.9,28.2,27.2l3.8,8.3
						c9.1,19.9,5.1,43.4-10.1,59.1l-35.4,36.8c-20.4,21.2-54.2,21.8-75.4,1.4L199,179c-21.2-20.4-21.8-54.2-1.4-75.4L233,66.8
						C248.2,51,271.5,46.2,291.7,54.5z"/>
					
						<linearGradient id="SVGID_00000111166079123932809410000009450814858883189160_" gradientUnits="userSpaceOnUse" x1="1033.1132" y1="509.5392" x2="846.653" y2="162.6042" gradientTransform="matrix(0.7853 0.6192 -0.6192 0.7853 -6.5343 -453.3246)">
						<stop  offset="0" style="stop-color:#D80832"/>
						<stop  offset="0.1723" style="stop-color:#DA0D35"/>
						<stop  offset="0.3769" style="stop-color:#DF1B3F"/>
						<stop  offset="0.5979" style="stop-color:#E8334F"/>
						<stop  offset="0.8288" style="stop-color:#F45465"/>
						<stop  offset="1" style="stop-color:#FF7279"/>
					</linearGradient>
					<path style="fill:url(#SVGID_00000111166079123932809410000009450814858883189160_);" d="M353.7,163l8.7,2.6
						c12.9,3.9,23.9,12.6,30.7,24.2l12.3,21.1c6.8,11.7,17.8,20.3,30.7,24.2l23.4,7c12.9,3.9,23.9,12.6,30.7,24.2l12.3,21.1
						c6.8,11.7,17.8,20.3,30.7,24.2l23.4,7c12.9,3.9,23.9,12.6,30.7,24.2l12.3,21.1c6.8,11.7,17.8,20.3,30.7,24.2l23.4,7
						c12.9,3.9,23.9,12.6,30.7,24.2l12.3,21.1c6.8,11.7,17.8,20.3,30.7,24.2l23.4,7c12.9,3.9,23.9,12.6,30.7,24.2l4.6,7.9
						c11,18.9,9.4,42.7-4.2,59.9L750.4,604c-18.2,23.1-51.8,27.1-74.9,8.9L273.7,296.1c-23.1-18.2-27.1-51.8-8.9-74.9l31.6-40.1
						C310,163.9,332.7,156.7,353.7,163z"/>
					
						<linearGradient id="SVGID_00000030457324818945207270000017818491165100122300_" gradientUnits="userSpaceOnUse" x1="757.0533" y1="493.5171" x2="948.2941" y2="144.9775" gradientTransform="matrix(0.6916 0.7223 -0.7223 0.6916 58.6455 -510.8209)">
						<stop  offset="0" style="stop-color:#3105B5"/>
						<stop  offset="0.1045" style="stop-color:#3806B3"/>
						<stop  offset="0.2544" style="stop-color:#4B0AAE"/>
						<stop  offset="0.4319" style="stop-color:#6A10A6"/>
						<stop  offset="0.6305" style="stop-color:#95199A"/>
						<stop  offset="0.8439" style="stop-color:#CC238C"/>
						<stop  offset="1" style="stop-color:#F92C80"/>
					</linearGradient>
					<path style="fill:url(#SVGID_00000030457324818945207270000017818491165100122300_);" d="M281.5,75l8.3,3.8
						c12.3,5.7,22,15.8,27.1,28.3l9.2,22.6c5.1,12.5,14.8,22.6,27.1,28.3l22.2,10.2c12.3,5.7,22,15.8,27.1,28.3l9.2,22.6
						c5.1,12.5,14.8,22.6,27.1,28.3l22.2,10.2c12.3,5.7,22,15.8,27.1,28.3l9.2,22.6c5.1,12.5,14.8,22.6,27.1,28.3l22.2,10.2
						c12.3,5.7,22,15.8,27.1,28.3l9.2,22.6c5.1,12.5,14.8,22.6,27.1,28.3l22.2,10.2c12.3,5.7,22,15.8,27.1,28.3l3.5,8.5
						c8.3,20.3,3.3,43.6-12.5,58.7l-36.9,35.3c-21.3,20.4-55,19.6-75.4-1.6L183.8,195.6c-20.4-21.3-19.6-55,1.6-75.4l36.9-35.3
						C238.2,69.7,261.7,65.8,281.5,75z"/>
					
						<linearGradient id="SVGID_00000036210336911886837590000013040337599789470890_" gradientUnits="userSpaceOnUse" x1="1006.1516" y1="543.4254" x2="865.7461" y2="216.7138" gradientTransform="matrix(0.7853 0.6192 -0.6192 0.7853 -6.5343 -453.3246)">
						<stop  offset="0" style="stop-color:#D80832"/>
						<stop  offset="0.1787" style="stop-color:#DA0D34"/>
						<stop  offset="0.3994" style="stop-color:#E01C3A"/>
						<stop  offset="0.6422" style="stop-color:#EA3644"/>
						<stop  offset="0.8992" style="stop-color:#F95853"/>
						<stop  offset="1" style="stop-color:#FF6859"/>
					</linearGradient>
					<path style="fill:url(#SVGID_00000036210336911886837590000013040337599789470890_);" d="M323.4,195.1l8.7,2.6
						c12.9,3.9,23.9,12.6,30.7,24.2l12.3,21.1c6.8,11.7,17.8,20.3,30.7,24.2l23.4,7c12.9,3.9,23.9,12.6,30.7,24.2l12.3,21.1
						C479,331.3,490,340,503,343.9l23.4,7c12.9,3.9,23.9,12.6,30.7,24.2l12.3,21.1c6.8,11.7,17.8,20.3,30.7,24.2l23.4,7
						c12.9,3.9,23.9,12.6,30.7,24.2l12.3,21.1c6.8,11.7,17.8,20.3,30.7,24.2l23.4,7c12.9,3.9,23.9,12.6,30.7,24.2l4.6,7.9
						c11,18.9,9.4,42.7-4.2,59.9l-31.6,40.1c-18.2,23.1-51.8,27.1-74.9,8.9L243.4,328.2c-23.1-18.2-27.1-51.8-8.9-74.9l31.6-40.1
						C279.7,196,302.4,188.8,323.4,195.1z"/>
					
						<linearGradient id="SVGID_00000104687832509405031750000014866642545308158900_" gradientUnits="userSpaceOnUse" x1="759.6814" y1="521.7422" x2="1173.2688" y2="182.2792" gradientTransform="matrix(0.7147 0.6994 -0.6994 0.7147 35.4434 -496.2165)">
						<stop  offset="0" style="stop-color:#3105B5"/>
						<stop  offset="6.279349e-02" style="stop-color:#4008B1"/>
						<stop  offset="0.4028" style="stop-color:#8F179C"/>
						<stop  offset="0.6831" style="stop-color:#C8228D"/>
						<stop  offset="0.8896" style="stop-color:#EC2984"/>
						<stop  offset="1" style="stop-color:#F92C80"/>
					</linearGradient>
					<path style="fill:url(#SVGID_00000104687832509405031750000014866642545308158900_);" d="M335.5,185l8.4,3.5
						c12.5,5.2,22.5,15,28,27.4l10,22.3c5.5,12.3,15.5,22.1,28,27.4l22.5,9.5c12.5,5.2,22.5,15,28,27.4l10,22.3
						c5.5,12.3,15.5,22.1,28,27.4l22.5,9.5c12.5,5.2,22.5,15,28,27.4l10,22.3c5.5,12.3,15.5,22.1,28,27.4l22.5,9.5
						c12.5,5.2,22.5,15,28,27.4l10,22.3c5.5,12.3,14.5,27.1,27,32.4l24,20c12.5,5.2,20.5,1.7,26,14l6,6c8.9,20,3.9,43.6-11.4,59.3
						l-35.7,36.5c-20.6,21.1-54.4,21.4-75.4,0.8L241.8,308.7c-21.1-20.6-21.4-54.4-0.8-75.4l35.7-36.5
						C292,181.2,315.3,176.5,335.5,185z"/>
					
						<linearGradient id="SVGID_00000120545133674951478980000012651057733087594942_" gradientUnits="userSpaceOnUse" x1="993.9243" y1="576.1285" x2="879.0096" y2="264.7356" gradientTransform="matrix(0.7853 0.6192 -0.6192 0.7853 -6.5343 -453.3246)">
						<stop  offset="0" style="stop-color:#D80832"/>
						<stop  offset="0.1707" style="stop-color:#DB0F35"/>
						<stop  offset="0.4128" style="stop-color:#E2213C"/>
						<stop  offset="0.6977" style="stop-color:#EF4049"/>
						<stop  offset="1" style="stop-color:#FF6859"/>
					</linearGradient>
					<path style="fill:url(#SVGID_00000120545133674951478980000012651057733087594942_);" d="M298.8,227.2l8.7,2.6
						c12.9,3.9,23.9,12.6,30.7,24.2l12.3,21.1c6.8,11.7,17.8,20.3,30.7,24.2l23.4,7c12.9,3.9,23.9,12.6,30.7,24.2l12.3,21.1
						c6.8,11.7,17.8,20.3,30.7,24.2l23.4,7c12.9,3.9,23.9,12.6,30.7,24.2l12.3,21.1c6.8,11.7,17.8,20.3,30.7,24.2l23.4,7
						c12.9,3.9,23.9,12.6,30.7,24.2l12.3,21.1c6.8,11.7,17.8,20.3,30.7,24.2l23.4,7c12.9,3.9,23.9,12.6,30.7,24.2l4.6,7.9
						c11,18.9,9.4,42.7-4.2,59.9l-31.6,40.1c-18.2,23.1-51.8,27.1-74.9,8.9L218.8,360.3c-23.1-18.2-27.1-51.8-8.9-74.9l31.6-40.1
						C255.1,228.1,277.8,220.9,298.8,227.2z"/>
					
						<linearGradient id="SVGID_00000175308083338662294370000018083400970059562151_" gradientUnits="userSpaceOnUse" x1="692.4825" y1="484.7437" x2="1260.1338" y2="276.5685" gradientTransform="matrix(0.7054 0.7088 -0.7088 0.7054 23.0068 -503.8895)">
						<stop  offset="0" style="stop-color:#3105B5"/>
						<stop  offset="3.809327e-02" style="stop-color:#3D07B2"/>
						<stop  offset="0.2267" style="stop-color:#7612A3"/>
						<stop  offset="0.4096" style="stop-color:#A51C96"/>
						<stop  offset="0.5827" style="stop-color:#C9238D"/>
						<stop  offset="0.7435" style="stop-color:#E42886"/>
						<stop  offset="0.8874" style="stop-color:#F32B81"/>
						<stop  offset="1" style="stop-color:#F92C80"/>
					</linearGradient>
					<path style="fill:url(#SVGID_00000175308083338662294370000018083400970059562151_);" d="M300.8,208.5l8.4,3.7
						c12.4,5.4,22.3,15.3,27.6,27.7l9.7,22.4c5.4,12.4,15.2,22.3,27.6,27.7l22.3,9.8c12.4,5.4,22.3,15.3,27.6,27.7l9.7,22.4
						c5.4,12.4,15.2,22.3,27.6,27.7l22.3,9.8c12.4,5.4,22.3,15.3,27.6,27.7l9.7,22.4c5.4,12.4,15.2,22.3,27.6,27.7l22.3,9.8
						c12.4,5.4,22.3,15.3,27.6,27.7l9.7,22.4c5.4,12.4,11.5,29.3,23.8,34.7l26.1,2.8c12.4,5.4,22.3,15.3,27.6,27.7l3.6,8.4
						c8.7,20.1,4.2,43.5-11.4,58.9l-36.2,36c-20.9,20.8-54.6,20.7-75.4-0.2L205.5,331c-20.8-20.9-20.7-54.6,0.2-75.4l36.2-36
						C257.4,204.2,280.8,199.8,300.8,208.5z"/>
					
						<linearGradient id="SVGID_00000177446743858443959600000015834005871807975867_" gradientUnits="userSpaceOnUse" x1="627.4375" y1="450.0008" x2="1246.7748" y2="468.8606" gradientTransform="matrix(0.7853 0.6192 -0.6192 0.7853 -6.5343 -453.3246)">
						<stop  offset="0" style="stop-color:#D80832"/>
						<stop  offset="0.1809" style="stop-color:#E5273F"/>
						<stop  offset="0.3864" style="stop-color:#F0444A"/>
						<stop  offset="0.5924" style="stop-color:#F85852"/>
						<stop  offset="0.7973" style="stop-color:#FD6457"/>
						<stop  offset="1" style="stop-color:#FF6859"/>
					</linearGradient>
					<path style="fill:url(#SVGID_00000177446743858443959600000015834005871807975867_);" d="M274.1,259.3l8.7,2.6
						c12.9,3.9,23.9,12.6,30.7,24.2l12.3,21.1c6.8,11.7,17.8,20.3,30.7,24.2l23.4,7c12.9,3.9,23.9,12.6,30.7,24.2l12.3,21.1
						c6.8,11.7,17.8,20.3,30.7,24.2l23.4,7c12.9,3.9,23.9,12.6,30.7,24.2l12.3,21.1c6.8,11.7,17.8,20.3,30.7,24.2l23.4,7
						c12.9,3.9,23.9,12.6,30.7,24.2l12.3,21.1c6.8,11.7,17.8,20.3,30.7,24.2l23.4,7c12.9,3.9,23.9,12.6,30.7,24.2l4.6,7.9
						c11,18.9,9.4,42.7-4.2,59.9l-31.6,40.1c-18.2,23.1-51.8,27.1-74.9,8.9L194.2,392.4c-23.1-18.2-27.1-51.8-8.9-74.9l31.6-40.1
						C230.5,260.2,253.2,253,274.1,259.3z"/>
					
						<linearGradient id="SVGID_00000115510537332155707250000009763513855530238887_" gradientUnits="userSpaceOnUse" x1="1004.2479" y1="635.2004" x2="987.0786" y2="432.5625" gradientTransform="matrix(0.8674 0.4976 -0.4976 0.8674 -60.1995 -385.3241)">
						<stop  offset="0" style="stop-color:#3105B5"/>
						<stop  offset="0.1026" style="stop-color:#3806B3"/>
						<stop  offset="0.2568" style="stop-color:#4D0AAE"/>
						<stop  offset="0.4436" style="stop-color:#6F11A5"/>
						<stop  offset="0.6558" style="stop-color:#9E1A98"/>
						<stop  offset="0.8864" style="stop-color:#D92688"/>
						<stop  offset="1" style="stop-color:#F92C80"/>
					</linearGradient>
					<path style="fill:url(#SVGID_00000115510537332155707250000009763513855530238887_);" d="M335.7,372.2l9,1.3
						c13.4,2,25.5,8.9,34,19.5l15.2,19.1c8.4,10.6,20.6,17.5,34,19.5l24.1,3.5c13.4,2,25.5,8.9,34,19.5l15.2,19.1
						c8.4,10.6,20.6,17.5,34,19.5l24.1,3.5c13.4,2,25.5,8.9,34,19.5l15.2,19.1c8.4,10.6,20.6,17.5,34,19.5l24.1,3.5
						c13.4,2,25.5,8.9,34,19.5l15.2,19.1c8.4,10.6,20.6,17.5,34,19.5l24.1,3.5c13.4,2,25.5,8.9,34,19.5l5.7,7.1
						c13.7,17.1,15.5,40.8,4.6,59.8l-25.4,44.3c-14.7,25.5-47.3,34.4-72.8,19.7L276.1,515.5c-25.5-14.7-34.4-47.3-19.7-72.8
						l25.4-44.3C292.6,379.4,314.1,369,335.7,372.2z"/>
					
						<linearGradient id="SVGID_00000095323363354649129930000011522372539827525546_" gradientUnits="userSpaceOnUse" x1="942.9138" y1="594.6339" x2="932.1476" y2="405.3744" gradientTransform="matrix(0.7853 0.6192 -0.6192 0.7853 -6.5343 -453.3246)">
						<stop  offset="0" style="stop-color:#3105B5"/>
						<stop  offset="0.155" style="stop-color:#3228C4"/>
						<stop  offset="0.4465" style="stop-color:#3364DD"/>
						<stop  offset="0.6948" style="stop-color:#3390EF"/>
						<stop  offset="0.8871" style="stop-color:#34ABFB"/>
						<stop  offset="1" style="stop-color:#34B5FF"/>
					</linearGradient>
					<path style="fill:url(#SVGID_00000095323363354649129930000011522372539827525546_);" d="M249.5,291.5l8.7,2.6
						c12.9,3.9,23.9,12.6,30.7,24.2l12.3,21.1c6.8,11.7,17.8,20.3,30.7,24.2l23.4,7c12.9,3.9,23.9,12.6,30.7,24.2l12.3,21.1
						c6.8,11.7,17.8,20.3,30.7,24.2l23.4,7c12.9,3.9,23.9,12.6,30.7,24.2l12.3,21.1c6.8,11.7,17.8,20.3,30.7,24.2l23.4,7
						c12.9,3.9,23.9,12.6,30.7,24.2l12.3,21.1c6.8,11.7,17.8,20.3,30.7,24.2l23.4,7c12.9,3.9,23.9,12.6,30.7,24.2l4.6,7.9
						c11,18.9,9.4,42.7-4.2,59.9l-31.6,40.1c-18.2,23.1-51.8,27.1-74.9,8.9L169.5,424.5c-23.1-18.2-27.1-51.8-8.9-74.9l31.6-40.1
						C205.9,292.3,228.6,285.1,249.5,291.5z"/>
					
						<linearGradient id="SVGID_00000070805088143690997010000014022113372844157846_" gradientUnits="userSpaceOnUse" x1="889.575" y1="641.2678" x2="1059.5697" y2="300.5389" gradientTransform="matrix(0.7256 0.6882 -0.6882 0.7256 16.201 -491.3506)">
						<stop  offset="0" style="stop-color:#D80832"/>
						<stop  offset="0.271" style="stop-color:#E11D46"/>
						<stop  offset="0.8272" style="stop-color:#F7527A"/>
						<stop  offset="1" style="stop-color:#FF648B"/>
					</linearGradient>
					<path style="fill:url(#SVGID_00000070805088143690997010000014022113372844157846_);" d="M251.2,276.9l8.5,3.4
						c12.5,5.1,22.7,14.7,28.4,26.9l10.3,22.1c5.7,12.3,15.9,21.9,28.4,26.9l22.6,9.1c12.5,5.1,22.7,14.7,28.4,26.9l10.3,22.1
						c5.7,12.3,15.9,21.9,28.4,26.9l22.6,9.1c12.5,5.1,22.7,14.7,28.4,26.9l10.3,22.1c5.7,12.3,15.9,21.9,28.4,26.9l22.6,9.1
						c12.5,5.1,22.7,14.7,28.4,26.9l10.3,22.1c5.7,12.3,15.9,21.9,28.4,26.9l22.6,9.1c12.5,5.1,22.7,14.7,28.4,26.9l3.9,8.3
						c9.3,19.9,5.4,43.3-9.6,59.2l-35.1,37c-20.3,21.4-54,22.3-75.4,2L159.4,402.1c-21.4-20.3-22.3-54-2-75.4l35.1-37
						C207.6,273.8,230.8,268.8,251.2,276.9z"/>
					
						<linearGradient id="SVGID_00000044171367933957826240000015199962212726803899_" gradientUnits="userSpaceOnUse" x1="842.8411" y1="711.2181" x2="821.1444" y2="500.0978" gradientTransform="matrix(0.8998 0.4363 -0.4363 0.8998 -79.5303 -355.9294)">
						<stop  offset="0" style="stop-color:#3105B5"/>
						<stop  offset="0.1066" style="stop-color:#3706B3"/>
						<stop  offset="0.254" style="stop-color:#490AAF"/>
						<stop  offset="0.4252" style="stop-color:#670FA7"/>
						<stop  offset="0.6144" style="stop-color:#8F179C"/>
						<stop  offset="0.8157" style="stop-color:#C3218E"/>
						<stop  offset="1" style="stop-color:#F92C80"/>
					</linearGradient>
					<path style="fill:url(#SVGID_00000044171367933957826240000015199962212726803899_);" d="M189.4,365.4l9.1,0.7
						c13.5,1,26.1,7.1,35.2,17.1l16.5,18c9.2,10,21.7,16.1,35.2,17.1l24.3,1.8c13.5,1,26.1,7.1,35.2,17.1l16.5,18
						c9.2,10,21.7,16.1,35.2,17.1l24.3,1.8c13.5,1,26.1,7.1,35.2,17.1l16.5,18c9.2,10,21.7,16.1,35.2,17.1l24.3,1.8
						c13.5,1,26.1,7.1,35.2,17.1l16.5,18c9.2,10,21.7,16.1,35.2,17.1l24.3,1.8c13.5,1,26.1,7.1,35.2,17.1l6.2,6.7
						c14.8,16.1,18.3,39.7,8.7,59.4L671.5,711c-12.9,26.5-44.8,37.6-71.3,24.7L139.8,512.5c-26.5-12.9-37.6-44.8-24.7-71.3
						l22.3-45.9C147,375.6,167.6,363.8,189.4,365.4z"/>
					
						<linearGradient id="SVGID_00000163068639728824393480000013943721200664918406_" gradientUnits="userSpaceOnUse" x1="969.5419" y1="675.0985" x2="906.4827" y2="407.4168" gradientTransform="matrix(0.7853 0.6192 -0.6192 0.7853 -6.5343 -453.3246)">
						<stop  offset="0" style="stop-color:#3105B5"/>
						<stop  offset="0.155" style="stop-color:#3228C4"/>
						<stop  offset="0.4465" style="stop-color:#3364DD"/>
						<stop  offset="0.6948" style="stop-color:#3390EF"/>
						<stop  offset="0.8871" style="stop-color:#34ABFB"/>
						<stop  offset="1" style="stop-color:#34B5FF"/>
					</linearGradient>
					<path style="fill:url(#SVGID_00000163068639728824393480000013943721200664918406_);" d="M224.9,323.6l8.7,2.6
						c12.9,3.9,23.9,12.6,30.7,24.2l12.3,21.1c6.8,11.7,17.8,20.3,30.7,24.2l23.4,7c12.9,3.9,23.9,12.6,30.7,24.2l12.3,21.1
						c6.8,11.7,17.8,20.3,30.7,24.2l23.4,7c12.9,3.9,23.9,12.6,30.7,24.2l12.3,21.1c6.8,11.7,17.8,20.3,30.7,24.2l23.4,7
						c12.9,3.9,23.9,12.6,30.7,24.2l12.3,21.1c6.8,11.7,17.8,20.3,30.7,24.2l23.4,7c12.9,3.9,23.9,12.6,30.7,24.2l4.6,7.9
						c11,18.9,9.4,42.7-4.2,59.9l-31.6,40.1c-18.2,23.1-51.8,27.1-74.9,8.9L144.9,456.6c-23.1-18.2-27.1-51.8-8.9-74.9l31.6-40.1
						C181.2,324.4,203.9,317.3,224.9,323.6z"/>
					
						<linearGradient id="SVGID_00000045585406839862767300000015696067545309862795_" gradientUnits="userSpaceOnUse" x1="879.06" y1="677.4451" x2="1107.7241" y2="319.2079" gradientTransform="matrix(0.7015 0.7126 -0.7126 0.7015 26.199 -504.4311)">
						<stop  offset="0" style="stop-color:#D80832"/>
						<stop  offset="0.1321" style="stop-color:#D80B39"/>
						<stop  offset="0.3182" style="stop-color:#DA144B"/>
						<stop  offset="0.5363" style="stop-color:#DC2269"/>
						<stop  offset="0.7765" style="stop-color:#DF3593"/>
						<stop  offset="1" style="stop-color:#E24AC0"/>
					</linearGradient>
					<path style="fill:url(#SVGID_00000045585406839862767300000015696067545309862795_);" d="M228.3,304.1l8.4,3.7
						c12.4,5.5,22.2,15.5,27.5,27.9l9.5,22.4c5.3,12.4,15.1,22.4,27.5,27.9l22.3,9.9c12.4,5.5,22.2,15.5,27.5,27.9l9.5,22.4
						c5.3,12.4,15.1,22.4,27.5,27.9l22.3,9.9c12.4,5.5,22.2,15.5,27.5,27.9l9.5,22.4c5.3,12.4,15.1,22.4,27.5,27.9l22.3,9.9
						c12.4,5.5,22.2,15.5,27.5,27.9l9.5,22.4c5.3,12.4,15.1,22.4,27.5,27.9l22.3,9.9c12.4,5.5,22.2,15.5,27.5,27.9l3.6,8.4
						c8.6,20.2,3.9,43.5-11.7,58.9l-36.4,35.8c-21,20.7-54.8,20.4-75.4-0.6L132.3,426.1c-20.7-21-20.4-54.8,0.6-75.4l36.4-35.8
						C184.9,299.5,208.3,295.2,228.3,304.1z"/>
					
						<linearGradient id="SVGID_00000043445851678487609040000007779368632336405661_" gradientUnits="userSpaceOnUse" x1="860.6996" y1="780.0343" x2="807.5449" y2="523.4581" gradientTransform="matrix(0.8933 0.4494 -0.4494 0.8933 -76.3182 -363.6259)">
						<stop  offset="0" style="stop-color:#3105B5"/>
						<stop  offset="0.1509" style="stop-color:#3506B4"/>
						<stop  offset="0.2932" style="stop-color:#4008B1"/>
						<stop  offset="0.432" style="stop-color:#530CAC"/>
						<stop  offset="0.5686" style="stop-color:#6E11A5"/>
						<stop  offset="0.7038" style="stop-color:#90189C"/>
						<stop  offset="0.8378" style="stop-color:#BB2090"/>
						<stop  offset="0.9685" style="stop-color:#EC2983"/>
						<stop  offset="1" style="stop-color:#F92C80"/>
					</linearGradient>
					<path style="fill:url(#SVGID_00000043445851678487609040000007779368632336405661_);" d="M163.5,403.3l9.1,0.8
						c13.5,1.2,26,7.5,35,17.6l16.2,18.2c9,10.1,21.5,16.4,35,17.6l24.3,2.2c13.5,1.2,26,7.5,35,17.6l16.2,18.2
						c9,10.1,21.5,16.4,35,17.6l24.3,2.2c13.5,1.2,26,7.5,35,17.6l16.2,18.2c9,10.1,21.5,16.4,35,17.6l24.3,2.2
						c13.5,1.2,26,7.5,35,17.6l16.2,18.2c9,10.1,21.5,16.4,35,17.6l24.3,2.2c13.5,1.2,26,7.5,35,17.6l6.1,6.8
						c14.6,16.3,17.7,39.9,7.9,59.5l-22.9,45.6c-13.2,26.3-45.3,36.9-71.6,23.7L111.8,549.7c-26.3-13.2-36.9-45.3-23.7-71.6
						l22.9-45.6C120.9,412.9,141.7,401.3,163.5,403.3z"/>
					
						<linearGradient id="SVGID_00000167383603254227792330000015520878552030675096_" gradientUnits="userSpaceOnUse" x1="970.0955" y1="715.5559" x2="907.0363" y2="447.8743" gradientTransform="matrix(0.7853 0.6192 -0.6192 0.7853 -6.5343 -453.3246)">
						<stop  offset="0" style="stop-color:#3105B5"/>
						<stop  offset="7.281458e-02" style="stop-color:#311DBF"/>
						<stop  offset="0.2326" style="stop-color:#324BD2"/>
						<stop  offset="0.3928" style="stop-color:#3371E2"/>
						<stop  offset="0.551" style="stop-color:#338FEF"/>
						<stop  offset="0.7062" style="stop-color:#34A4F8"/>
						<stop  offset="0.8575" style="stop-color:#34B1FD"/>
						<stop  offset="1" style="stop-color:#34B5FF"/>
					</linearGradient>
					<path style="fill:url(#SVGID_00000167383603254227792330000015520878552030675096_);" d="M200.3,355.7l8.7,2.6
						c12.9,3.9,23.9,12.6,30.7,24.2l12.3,21.1c6.8,11.7,17.8,20.3,30.7,24.2l23.4,7c12.9,3.9,23.9,12.6,30.7,24.2l12.3,21.1
						c6.8,11.7,17.8,20.3,30.7,24.2l23.4,7c12.9,3.9,23.9,12.6,30.7,24.2l12.3,21.1c6.8,11.7,17.8,20.3,30.7,24.2l23.4,7
						c12.9,3.9,23.9,12.6,30.7,24.2l12.3,21.1c6.8,11.7,17.8,20.3,30.7,24.2l23.4,7c12.9,3.9,23.9,12.6,30.7,24.2l4.6,7.9
						c11,18.9,9.4,42.7-4.2,59.9L597,796.7c-18.2,23.1-51.8,27.1-74.9,8.9L120.3,488.7c-23.1-18.2-27.1-51.8-8.9-74.9l31.6-40.1
						C156.6,356.5,179.3,349.4,200.3,355.7z"/>
					
						<linearGradient id="SVGID_00000164501543942575667440000009739718136610308491_" gradientUnits="userSpaceOnUse" x1="715.9023" y1="474.1479" x2="1309.572" y2="631.9095" gradientTransform="matrix(0.7056 0.7086 -0.7086 0.7056 25.0991 -501.3093)">
						<stop  offset="0" style="stop-color:#3105B5"/>
						<stop  offset="0.1422" style="stop-color:#650FA7"/>
						<stop  offset="0.2868" style="stop-color:#92189B"/>
						<stop  offset="0.4328" style="stop-color:#B71F92"/>
						<stop  offset="0.5777" style="stop-color:#D4258A"/>
						<stop  offset="0.7212" style="stop-color:#E82984"/>
						<stop  offset="0.8627" style="stop-color:#F52B81"/>
						<stop  offset="1" style="stop-color:#F92C80"/>
					</linearGradient>
					<path style="fill:url(#SVGID_00000164501543942575667440000009739718136610308491_);" d="M206.3,358.6l8.4,3.7
						c12.4,5.4,22.3,15.3,27.6,27.7l9.7,22.4c5.4,12.4,15.2,22.3,27.6,27.7l22.3,9.8c12.4,5.4,22.3,15.3,27.6,27.7l9.7,22.4
						c5.4,12.4,15.2,22.3,27.6,27.7l22.3,9.8c12.4,5.4,22.3,15.3,27.6,27.7l9.7,22.4c5.4,12.4,15.2,22.3,27.6,27.7l22.3,9.8
						c12.4,5.4,22.3,15.3,27.6,27.7l9.7,22.4c5.4,12.4,15.2,22.3,27.6,27.7l22.3,9.8c12.4,5.4,22.3,15.3,27.6,27.7l3.6,8.4
						c8.7,20.1,4.2,43.5-11.3,58.9l-36.2,36c-20.9,20.8-54.6,20.7-75.4-0.2L111,481.2c-20.8-20.9-20.7-54.6,0.2-75.4l36.2-36
						C162.9,354.3,186.3,349.9,206.3,358.6z"/>
					
						<linearGradient id="SVGID_00000006687190858614925010000014053810904355511461_" gradientUnits="userSpaceOnUse" x1="970.6491" y1="756.0134" x2="907.5898" y2="488.3317" gradientTransform="matrix(0.7853 0.6192 -0.6192 0.7853 -6.5343 -453.3246)">
						<stop  offset="0" style="stop-color:#3105B5"/>
						<stop  offset="7.051510e-02" style="stop-color:#3115BC"/>
						<stop  offset="0.3998" style="stop-color:#3259D8"/>
						<stop  offset="0.6754" style="stop-color:#338BED"/>
						<stop  offset="0.8835" style="stop-color:#34A9FA"/>
						<stop  offset="1" style="stop-color:#34B5FF"/>
					</linearGradient>
					<path style="fill:url(#SVGID_00000006687190858614925010000014053810904355511461_);" d="M175.7,387.8l8.7,2.6
						c12.9,3.9,23.9,12.6,30.7,24.2l12.3,21.1c6.8,11.7,17.8,20.3,30.7,24.2l23.4,7c12.9,3.9,23.9,12.6,30.7,24.2l12.3,21.1
						c6.8,11.7,17.8,20.3,30.7,24.2l23.4,7c12.9,3.9,23.9,12.6,30.7,24.2l12.3,21.1c6.8,11.7,17.8,20.3,30.7,24.2l23.4,7
						c12.9,3.9,23.9,12.6,30.7,24.2l12.3,21.1c6.8,11.7,17.8,20.3,30.7,24.2l23.4,7c12.9,3.9,23.9,12.6,30.7,24.2l4.6,7.9
						c11,18.9,9.4,42.7-4.2,59.9l-31.6,40.1c-18.2,23.1-51.8,27.1-74.9,8.9L95.7,520.8c-23.1-18.2-27.1-51.8-8.9-74.9l31.6-40.1
						C132,388.6,154.7,381.5,175.7,387.8z"/>
					
						<linearGradient id="SVGID_00000131362002945429078270000003418706396051044489_" gradientUnits="userSpaceOnUse" x1="596.9155" y1="520.5206" x2="1199.1371" y2="655.3036" gradientTransform="matrix(0.6771 0.7359 -0.7359 0.6771 59.5617 -508.6355)">
						<stop  offset="0" style="stop-color:#3105B5"/>
						<stop  offset="0.1294" style="stop-color:#3506B4"/>
						<stop  offset="0.2709" style="stop-color:#4308B0"/>
						<stop  offset="0.4181" style="stop-color:#580DAB"/>
						<stop  offset="0.5693" style="stop-color:#7713A2"/>
						<stop  offset="0.7235" style="stop-color:#9F1A98"/>
						<stop  offset="0.878" style="stop-color:#CE248B"/>
						<stop  offset="1" style="stop-color:#F92C80"/>
					</linearGradient>
					<path style="fill:url(#SVGID_00000131362002945429078270000003418706396051044489_);" d="M103.2,297.1l8.2,4
						c12.2,5.9,21.6,16.2,26.5,28.8l8.8,22.8c4.9,12.6,14.3,22.9,26.5,28.8l21.9,10.6c12.2,5.9,21.6,16.2,26.5,28.8l8.8,22.8
						c4.9,12.6,14.3,22.9,26.5,28.8l21.9,10.6c12.2,5.9,21.6,16.2,26.5,28.8l8.8,22.8c4.9,12.6,14.3,22.9,26.5,28.8l21.9,10.6
						c12.2,5.9,21.6,16.2,26.5,28.8l8.8,22.8c4.9,12.6,14.3,22.9,26.5,28.8l21.9,10.6c12.2,5.9,21.6,16.2,26.5,28.8l3.3,8.5
						c7.9,20.4,2.5,43.6-13.7,58.4l-37.6,34.6c-21.7,19.9-55.4,18.5-75.4-3.1L3.1,415.8c-19.9-21.7-18.5-55.4,3.1-75.4l37.6-34.6
						C59.9,291,83.5,287.6,103.2,297.1z"/>
					
						<linearGradient id="SVGID_00000052106132863237605180000017253130539933641393_" gradientUnits="userSpaceOnUse" x1="829.5302" y1="841.5476" x2="1050.1272" y2="484.9862" gradientTransform="matrix(0.7853 0.6192 -0.6192 0.7853 -6.5343 -453.3246)">
						<stop  offset="0" style="stop-color:#3105B5"/>
						<stop  offset="5.158395e-02" style="stop-color:#310FB9"/>
						<stop  offset="0.5163" style="stop-color:#3368DF"/>
						<stop  offset="0.8428" style="stop-color:#349FF6"/>
						<stop  offset="1" style="stop-color:#34B5FF"/>
					</linearGradient>
					<path style="fill:url(#SVGID_00000052106132863237605180000017253130539933641393_);" d="M151.1,419.9l8.7,2.6
						c12.9,3.9,23.9,12.6,30.7,24.2l12.3,21.1c6.8,11.7,17.8,20.3,30.7,24.2l23.4,7c12.9,3.9,23.9,12.6,30.7,24.2l12.3,21.1
						c6.8,11.7,17.8,20.3,30.7,24.2l23.4,7c12.9,3.9,23.9,12.6,30.7,24.2L397,621c6.8,11.7,17.8,20.3,30.7,24.2l23.4,7
						c12.9,3.9,23.9,12.6,30.7,24.2l12.3,21.1c6.8,11.7,17.8,20.3,30.7,24.2l23.4,7c12.9,3.9,23.9,12.6,30.7,24.2l4.6,7.9
						c11,18.9,9.4,42.7-4.2,59.9l-31.6,40.1c-18.2,23.1-51.8,27.1-74.9,8.9L71.1,553C48,534.7,44,501.2,62.2,478L93.8,438
						C107.4,420.8,130.1,413.6,151.1,419.9z"/>
					
						<linearGradient id="SVGID_00000056412706691491671840000013356461178220208001_" gradientUnits="userSpaceOnUse" x1="964.2743" y1="806.0895" x2="911.7838" y2="550.3008" gradientTransform="matrix(0.8029 0.5962 -0.5962 0.8029 -33.3659 -437.8701)">
						<stop  offset="0" style="stop-color:#D80832"/>
						<stop  offset="0.1505" style="stop-color:#D80A37"/>
						<stop  offset="0.3217" style="stop-color:#D91144"/>
						<stop  offset="0.5031" style="stop-color:#DB1B5B"/>
						<stop  offset="0.6916" style="stop-color:#DD2A7B"/>
						<stop  offset="0.8836" style="stop-color:#E03DA4"/>
						<stop  offset="1" style="stop-color:#E24AC0"/>
					</linearGradient>
					<path style="fill:url(#SVGID_00000056412706691491671840000013356461178220208001_);" d="M138.8,442.1l8.8,2.4
						c13.1,3.5,24.3,11.9,31.4,23.3l12.9,20.7c7.1,11.5,18.4,19.8,31.4,23.3l23.5,6.3c13.1,3.5,24.3,11.9,31.4,23.3l12.9,20.7
						c7.1,11.5,18.4,19.8,31.4,23.3l23.5,6.3c13.1,3.5,24.3,11.9,31.4,23.3l12.9,20.7c7.1,11.5,18.4,19.8,31.4,23.3l23.5,6.3
						c13.1,3.5,24.3,11.9,31.4,23.3l12.9,20.7c7.1,11.5,18.4,19.8,31.4,23.3l23.5,6.3c13.1,3.5,24.3,11.9,31.4,23.3l4.8,7.8
						c11.6,18.6,10.6,42.4-2.5,60l-30.4,41c-17.6,23.6-51,28.6-74.6,11l-410.8-305c-23.6-17.6-28.6-51-11-74.6l30.4-41
						C95.2,444.2,117.6,436.4,138.8,442.1z"/>
					
						<linearGradient id="SVGID_00000124857192835812025350000006994038546996496266_" gradientUnits="userSpaceOnUse" x1="930.623" y1="815.4935" x2="1091.1617" y2="478.8267" gradientTransform="matrix(0.7132 0.701 -0.701 0.7132 40.1604 -494.0636)">
						<stop  offset="0" style="stop-color:#3105B5"/>
						<stop  offset="0.2305" style="stop-color:#3229C4"/>
						<stop  offset="0.7397" style="stop-color:#3384EA"/>
						<stop  offset="1" style="stop-color:#34B5FF"/>
					</linearGradient>
					<path style="fill:url(#SVGID_00000124857192835812025350000006994038546996496266_);" d="M163.7,429.5l8.4,3.6
						c12.4,5.3,22.4,15.1,27.9,27.4l9.9,22.3c5.5,12.4,15.5,22.2,27.9,27.4l22.5,9.5c12.4,5.3,22.4,15.1,27.9,27.4l9.9,22.3
						c5.5,12.4,15.5,22.2,27.9,27.4l22.5,9.5c12.4,5.3,22.4,15.1,27.9,27.4l9.9,22.3c5.5,12.4,15.5,22.2,27.9,27.4l22.5,9.5
						c12.4,5.3,22.4,15.1,27.9,27.4l9.9,22.3c5.5,12.4,15.5,22.2,27.9,27.4l22.5,9.5c12.4,5.3,22.4,15.1,27.9,27.4l3.7,8.3
						c8.9,20,4.7,43.4-10.7,59L510,911c-20.6,21-54.4,21.3-75.4,0.7L69.7,553c-21-20.6-21.3-54.4-0.7-75.4l35.8-36.4
						C120.2,425.6,143.6,420.9,163.7,429.5z"/>
					
						<linearGradient id="SVGID_00000030444973789669508320000016645790789254776988_" gradientUnits="userSpaceOnUse" x1="821.5955" y1="882.6512" x2="1062.3096" y2="522.3182" gradientTransform="matrix(0.7853 0.6192 -0.6192 0.7853 -6.5343 -453.3246)">
						<stop  offset="0" style="stop-color:#3105B5"/>
						<stop  offset="0.173" style="stop-color:#3406B4"/>
						<stop  offset="0.3169" style="stop-color:#3F08B1"/>
						<stop  offset="0.4502" style="stop-color:#500BAD"/>
						<stop  offset="0.5772" style="stop-color:#6810A6"/>
						<stop  offset="0.6998" style="stop-color:#88169E"/>
						<stop  offset="0.8191" style="stop-color:#AE1D94"/>
						<stop  offset="0.9335" style="stop-color:#DB2688"/>
						<stop  offset="1" style="stop-color:#F92C80"/>
					</linearGradient>
					<path style="fill:url(#SVGID_00000030444973789669508320000016645790789254776988_);" d="M128.5,452l8.7,2.6
						c12.9,3.9,23.9,12.6,30.7,24.2l12.3,21.1c6.8,11.7,17.8,20.3,30.7,24.2l23.4,7c12.9,3.9,23.9,12.6,30.7,24.2l12.3,21.1
						c6.8,11.7,17.8,20.3,30.7,24.2l23.4,7c12.9,3.9,23.9,12.6,30.7,24.2l12.3,21.1c6.8,11.7,17.8,20.3,30.7,24.2l23.4,7
						c12.9,3.9,23.9,12.6,30.7,24.2l12.3,21.1c6.8,11.7,17.8,20.3,30.7,24.2l23.4,7c12.9,3.9,23.9,12.6,30.7,24.2l4.6,7.9
						c11,18.9,9.4,42.7-4.2,59.9L525.1,893c-18.2,23.1-51.8,27.1-74.9,8.9L48.5,585.1c-23.1-18.2-27.1-51.8-8.9-74.9l31.6-40.1
						C84.8,452.9,107.5,445.7,128.5,452z"/>
					
						<linearGradient id="SVGID_00000145019725179423011120000000865016204910706879_" gradientUnits="userSpaceOnUse" x1="912.4699" y1="821.8594" x2="906.4597" y2="643.9291" gradientTransform="matrix(0.8666 0.499 -0.499 0.8666 -136.9462 -368.7753)">
						<stop  offset="0" style="stop-color:#3105B5"/>
						<stop  offset="0.231" style="stop-color:#3406B4"/>
						<stop  offset="0.3779" style="stop-color:#3C07B2"/>
						<stop  offset="0.5014" style="stop-color:#4B0AAE"/>
						<stop  offset="0.612" style="stop-color:#600EA9"/>
						<stop  offset="0.7138" style="stop-color:#7B13A1"/>
						<stop  offset="0.8094" style="stop-color:#9C1A99"/>
						<stop  offset="0.9" style="stop-color:#C3228E"/>
						<stop  offset="0.9845" style="stop-color:#F02A82"/>
						<stop  offset="1" style="stop-color:#F92C80"/>
					</linearGradient>
					<path style="fill:url(#SVGID_00000145019725179423011120000000865016204910706879_);" d="M83.6,519l9,1.3
						c13.4,2,25.5,9,33.9,19.5l15.2,19.1c8.4,10.6,20.5,17.6,33.9,19.5l24.1,3.6c13.4,2,25.5,9,33.9,19.5l15.2,19.1
						c8.4,10.6,20.5,17.6,33.9,19.5l24.1,3.6c13.4,2,25.5,9,33.9,19.5l15.2,19.1c8.4,10.6,20.5,17.6,33.9,19.5l24.1,3.6
						c13.4,2,25.5,9,33.9,19.5l15.2,19.1c8.4,10.6,20.5,17.6,33.9,19.5l24.1,3.6c13.4,2,25.5,9,33.9,19.5l5.7,7.1
						c13.6,17.1,15.4,40.9,4.5,59.8l-25.5,44.2c-14.7,25.5-47.3,34.3-72.8,19.6L23.7,662.2c-25.5-14.7-34.3-47.3-19.6-72.8
						l25.5-44.2C40.5,526.2,61.9,515.8,83.6,519z"/>
					
						<linearGradient id="SVGID_00000168797544237051318940000001515636462945865889_" gradientUnits="userSpaceOnUse" x1="946.2354" y1="837.3784" x2="935.4693" y2="648.1188" gradientTransform="matrix(0.7853 0.6192 -0.6192 0.7853 -6.5343 -453.3246)">
						<stop  offset="0" style="stop-color:#3105B5"/>
						<stop  offset="0.1529" style="stop-color:#3109B7"/>
						<stop  offset="0.3039" style="stop-color:#3115BC"/>
						<stop  offset="0.4542" style="stop-color:#3229C4"/>
						<stop  offset="0.6042" style="stop-color:#3245D0"/>
						<stop  offset="0.754" style="stop-color:#3368DF"/>
						<stop  offset="0.9015" style="stop-color:#3394F1"/>
						<stop  offset="1" style="stop-color:#34B5FF"/>
					</linearGradient>
					<path style="fill:url(#SVGID_00000168797544237051318940000001515636462945865889_);" d="M101.8,484.1l8.7,2.6
						c12.9,3.9,23.9,12.6,30.7,24.2l12.3,21.1c6.8,11.7,17.8,20.3,30.7,24.2l23.4,7c12.9,3.9,23.9,12.6,30.7,24.2l12.3,21.1
						c6.8,11.7,17.8,20.3,30.7,24.2l23.4,7c12.9,3.9,23.9,12.6,30.7,24.2l12.3,21.1c6.8,11.7,17.8,20.3,30.7,24.2l23.4,7
						c12.9,3.9,23.9,12.6,30.7,24.2l12.3,21.1c6.8,11.7,17.8,20.3,30.7,24.2l23.4,7c12.9,3.9,23.9,12.6,30.7,24.2l4.6,7.9
						c11,18.9,9.4,42.7-4.2,59.9l-31.6,40.1c-18.2,23.1-51.8,27.1-74.9,8.9L21.9,617.2c-23.1-18.2-27.1-51.8-8.9-74.9l31.6-40.1
						C58.2,485,80.9,477.8,101.8,484.1z"/>
					
						<linearGradient id="SVGID_00000083807754727439085490000013652179074622247073_" gradientUnits="userSpaceOnUse" x1="719.9926" y1="725.1548" x2="1327.7084" y2="841.6559" gradientTransform="matrix(0.6541 0.7564 -0.7564 0.6541 183.7234 -562.2166)">
						<stop  offset="0" style="stop-color:#3105B5"/>
						<stop  offset="0.1414" style="stop-color:#3506B4"/>
						<stop  offset="0.2831" style="stop-color:#4108B1"/>
						<stop  offset="0.425" style="stop-color:#550CAB"/>
						<stop  offset="0.5671" style="stop-color:#7112A4"/>
						<stop  offset="0.7095" style="stop-color:#96199A"/>
						<stop  offset="0.852" style="stop-color:#C2218F"/>
						<stop  offset="0.9923" style="stop-color:#F62B81"/>
						<stop  offset="1" style="stop-color:#F92C80"/>
					</linearGradient>
					<path style="fill:url(#SVGID_00000083807754727439085490000013652179074622247073_);" d="M136.8,467.6l8.1,4.2
						c12,6.3,21.1,16.9,25.6,29.6l8.1,23c4.5,12.8,13.6,23.3,25.6,29.6l21.6,11.3c12,6.3,21.1,16.9,25.6,29.6l8.1,23
						c4.5,12.8,13.6,23.3,25.6,29.6l21.6,11.3c12,6.3,21.1,16.9,25.6,29.6l8.1,23c4.5,12.8,13.6,23.3,25.6,29.6l21.6,11.3
						c12,6.3,21.1,16.9,25.6,29.6l8.1,23c4.5,12.8,13.6,23.3,25.6,29.6l21.6,11.3c12,6.3,21.1,16.9,25.6,29.6l3,8.6
						c7.2,20.7,1.1,43.7-15.4,58L443,975.6c-22.3,19.3-56,16.8-75.2-5.5l-334.7-387c-19.3-22.3-16.8-56,5.5-75.2l38.6-33.4
						C93.8,460.2,117.4,457.5,136.8,467.6z"/>
					
						<linearGradient id="SVGID_00000004540806908206715600000004333023895895711412_" gradientUnits="userSpaceOnUse" x1="974.434" y1="916.6047" x2="911.3748" y2="648.923" gradientTransform="matrix(0.7853 0.6192 -0.6192 0.7853 -6.5343 -453.3246)">
						<stop  offset="9.637420e-02" style="stop-color:#3105B5"/>
						<stop  offset="0.2339" style="stop-color:#3109B7"/>
						<stop  offset="0.3704" style="stop-color:#3115BC"/>
						<stop  offset="0.5065" style="stop-color:#3229C4"/>
						<stop  offset="0.6424" style="stop-color:#3245D0"/>
						<stop  offset="0.7783" style="stop-color:#3369DF"/>
						<stop  offset="0.9122" style="stop-color:#3394F1"/>
						<stop  offset="1" style="stop-color:#34B5FF"/>
					</linearGradient>
					<path style="fill:url(#SVGID_00000004540806908206715600000004333023895895711412_);" d="M79.2,516.2l8.7,2.6
						c12.9,3.9,23.9,12.6,30.7,24.2l12.3,21.1c6.8,11.7,17.8,20.3,30.7,24.2l23.4,7c12.9,3.9,23.9,12.6,30.7,24.2l12.3,21.1
						c6.8,11.7,17.8,20.3,30.7,24.2l23.4,7c12.9,3.9,23.9,12.6,30.7,24.2l12.3,21.1c6.8,11.7,17.8,20.3,30.7,24.2l23.4,7
						c12.9,3.9,23.9,12.6,30.7,24.2l12.3,21.1c6.8,11.7,17.8,20.3,30.7,24.2l23.4,7c12.9,3.9,23.9,12.6,30.7,24.2l4.6,7.9
						c11,18.9,9.4,42.7-4.2,59.9l-31.6,40.1c-18.2,23.1-51.8,27.1-74.9,8.9L-0.8,649.3c-23.1-18.2-27.1-51.8-8.9-74.9L22,534.3
						C35.6,517.1,58.2,509.9,79.2,516.2z"/>
					
						<linearGradient id="SVGID_00000015316647672169270730000014156742447654964396_" gradientUnits="userSpaceOnUse" x1="714.961" y1="743.3658" x2="1322.9196" y2="858.963" gradientTransform="matrix(0.653 0.7574 -0.7574 0.653 183.4258 -532.3857)">
						<stop  offset="0" style="stop-color:#3105B5"/>
						<stop  offset="0.2214" style="stop-color:#3108B6"/>
						<stop  offset="0.3745" style="stop-color:#3111BA"/>
						<stop  offset="0.507" style="stop-color:#3120C0"/>
						<stop  offset="0.6278" style="stop-color:#3236CA"/>
						<stop  offset="0.7407" style="stop-color:#3252D5"/>
						<stop  offset="0.8476" style="stop-color:#3375E4"/>
						<stop  offset="0.948" style="stop-color:#349DF5"/>
						<stop  offset="1" style="stop-color:#34B5FF"/>
					</linearGradient>
					<path style="fill:url(#SVGID_00000015316647672169270730000014156742447654964396_);" d="M118.3,505.3l8.1,4.2
						c12,6.3,21.1,16.9,25.6,29.6l8,23c4.5,12.8,13.6,23.4,25.6,29.6l21.6,11.3c12,6.3,21.1,16.9,25.6,29.6l8,23
						c4.5,12.8,13.6,23.4,25.6,29.6l21.6,11.3c12,6.3,21.1,16.9,25.6,29.6l8,23c4.5,12.8,13.6,23.4,25.6,29.6l21.6,11.3
						c12,6.3,21.1,16.9,25.6,29.6l8,23c4.5,12.8,13.6,23.4,25.6,29.6l21.6,11.3c12,6.3,21.1,16.9,25.6,29.6l3,8.6
						c7.2,20.7,1.1,43.7-15.5,58l-38.7,33.3c-22.3,19.2-56,16.7-75.2-5.6L14.5,620.6c-19.2-22.3-16.7-56,5.6-75.2l38.7-33.3
						C75.3,497.8,98.9,495.1,118.3,505.3z"/>
					
						<linearGradient id="SVGID_00000088127836142464301780000016658633881327187852_" gradientUnits="userSpaceOnUse" x1="964.1172" y1="947.1221" x2="919.6425" y2="701.3157" gradientTransform="matrix(0.7853 0.6192 -0.6192 0.7853 -6.5343 -453.3246)">
						<stop  offset="0" style="stop-color:#3105B5"/>
						<stop  offset="0.2824" style="stop-color:#3107B6"/>
						<stop  offset="0.4354" style="stop-color:#310FB9"/>
						<stop  offset="0.5575" style="stop-color:#311DBF"/>
						<stop  offset="0.6632" style="stop-color:#3230C7"/>
						<stop  offset="0.7583" style="stop-color:#3249D2"/>
						<stop  offset="0.8458" style="stop-color:#3368DF"/>
						<stop  offset="0.9259" style="stop-color:#338CEE"/>
						<stop  offset="1" style="stop-color:#34B5FF"/>
					</linearGradient>
					<path style="fill:url(#SVGID_00000088127836142464301780000016658633881327187852_);" d="M52.6,548.3l8.7,2.6
						c12.9,3.9,23.9,12.6,30.7,24.2l12.3,21.1c6.8,11.7,17.8,20.3,30.7,24.2l23.4,7c12.9,3.9,23.9,12.6,30.7,24.2l12.3,21.1
						c6.8,11.7,17.8,20.3,30.7,24.2l23.4,7c12.9,3.9,23.9,12.6,30.7,24.2l12.3,21.1c6.8,11.7,17.8,20.3,30.7,24.2l23.4,7
						c12.9,3.9,23.9,12.6,30.7,24.2l12.3,21.1c6.8,11.7,17.8,20.3,30.7,24.2l23.4,7c12.9,3.9,23.9,12.6,30.7,24.2l4.6,7.9
						c11,18.9,9.4,42.7-4.2,59.9l-31.6,40.1c-18.2,23.1-51.8,27.1-74.9,8.9L-27.4,681.4c-23.1-18.2-27.1-51.8-8.9-74.9l31.6-40.1
						C8.9,549.2,31.6,542,52.6,548.3z"/>
					
						<linearGradient id="SVGID_00000092435677023431765850000011427264396904722822_" gradientUnits="userSpaceOnUse" x1="942.1644" y1="983.9681" x2="942.1644" y2="822.8916" gradientTransform="matrix(0.7853 0.6192 -0.6192 0.7853 -6.5343 -453.3246)">
						<stop  offset="0" style="stop-color:#2F3CCA"/>
						<stop  offset="0.4479" style="stop-color:#445AD6"/>
						<stop  offset="1" style="stop-color:#6285E6"/>
					</linearGradient>
					<path style="fill:url(#SVGID_00000092435677023431765850000011427264396904722822_);" d="M3.2,611.3l8.7,2.6
						c12.9,3.9,23.9,12.6,30.7,24.2l12.3,21.1c6.8,11.7,17.8,20.3,30.7,24.2l23.4,7c12.9,3.9,23.9,12.6,30.7,24.2l12.3,21.1
						c6.8,11.7,17.8,20.3,30.7,24.2l23.4,7c12.9,3.9,23.9,12.6,30.7,24.2l12.3,21.1c6.8,11.7,17.8,20.3,30.7,24.2l23.4,7
						c12.9,3.9,23.9,12.6,30.7,24.2l12.3,21.1c6.8,11.7,17.8,20.3,30.7,24.2l23.4,7c12.9,3.9,23.9,12.6,30.7,24.2l4.6,7.9
						c11,18.9,9.4,42.7-4.2,59.9l-31.6,40.1c-18.2,23.1-51.8,27.1-74.9,8.9L-76.8,744.3c-23.1-18.2-27.1-51.8-8.9-74.9l31.6-40.1
						C-40.5,612.1-17.8,605,3.2,611.3z"/>
					
						<linearGradient id="SVGID_00000124878653455356321320000014135162239231520421_" gradientUnits="userSpaceOnUse" x1="941.7338" y1="1023.5242" x2="941.7338" y2="862.4477" gradientTransform="matrix(0.7853 0.6192 -0.6192 0.7853 -6.5343 -453.3246)">
						<stop  offset="0" style="stop-color:#3639C5"/>
						<stop  offset="0.3372" style="stop-color:#454ECD"/>
						<stop  offset="1" style="stop-color:#6B82E0"/>
					</linearGradient>
					<path style="fill:url(#SVGID_00000124878653455356321320000014135162239231520421_);" d="M-21.7,642.1l8.7,2.6
						C0,648.6,11,657.2,17.8,668.9L30.1,690c6.8,11.7,17.8,20.3,30.7,24.2l23.4,7c12.9,3.9,23.9,12.6,30.7,24.2l12.3,21.1
						c6.8,11.7,17.8,20.3,30.7,24.2l23.4,7c12.9,3.9,23.9,12.6,30.7,24.2l12.3,21.1c6.8,11.7,17.8,20.3,30.7,24.2l23.4,7
						c12.9,3.9,23.9,12.6,30.7,24.2l12.3,21.1c6.8,11.7,17.8,20.3,30.7,24.2l23.4,7c12.9,3.9,23.9,12.6,30.7,24.2l4.6,7.9
						c11,18.9,9.4,42.7-4.2,59.9L375,1083c-18.2,23.1-51.8,27.1-74.9,8.9l-401.8-316.8c-23.1-18.2-27.1-51.8-8.9-74.9l31.6-40.1
						C-65.3,642.9-42.6,635.7-21.7,642.1z"/>
					
						<linearGradient id="SVGID_00000088096505898756480900000009888098197054568873_" gradientUnits="userSpaceOnUse" x1="941.3032" y1="1063.0802" x2="941.3032" y2="902.0038" gradientTransform="matrix(0.7853 0.6192 -0.6192 0.7853 -6.5343 -453.3246)">
						<stop  offset="0" style="stop-color:#3D35C0"/>
						<stop  offset="0.2776" style="stop-color:#4945C5"/>
						<stop  offset="0.8198" style="stop-color:#686FD4"/>
						<stop  offset="1" style="stop-color:#747FD9"/>
					</linearGradient>
					<path style="fill:url(#SVGID_00000088096505898756480900000009888098197054568873_);" d="M-46.5,672.8l8.7,2.6
						c12.9,3.9,23.9,12.6,30.7,24.2l12.3,21.1C12.1,732.5,23,741.1,36,745l23.4,7c12.9,3.9,23.9,12.6,30.7,24.2l12.3,21.1
						c6.8,11.7,17.8,20.3,30.7,24.2l23.4,7c12.9,3.9,23.9,12.6,30.7,24.2l12.3,21.1c6.8,11.7,17.8,20.3,30.7,24.2l23.4,7
						c12.9,3.9,23.9,12.6,30.7,24.2l12.3,21.1c6.8,11.7,17.8,20.3,30.7,24.2l23.4,7c12.9,3.9,23.9,12.6,30.7,24.2l4.6,7.9
						c11,18.9,9.4,42.7-4.2,59.9l-31.6,40.1c-18.2,23.1-51.8,27.1-74.9,8.9l-401.8-316.8c-23.1-18.2-27.1-51.8-8.9-74.9l31.6-40.1
						C-90.2,673.7-67.5,666.5-46.5,672.8z"/>
					
						<linearGradient id="SVGID_00000086672930580939364960000003292170400659285396_" gradientUnits="userSpaceOnUse" x1="940.8726" y1="1102.6364" x2="940.8726" y2="941.5599" gradientTransform="matrix(0.7853 0.6192 -0.6192 0.7853 -6.5343 -453.3246)">
						<stop  offset="0" style="stop-color:#4432BB"/>
						<stop  offset="0.2455" style="stop-color:#4E3FBF"/>
						<stop  offset="0.6998" style="stop-color:#6962CA"/>
						<stop  offset="1" style="stop-color:#7D7CD2"/>
					</linearGradient>
					<path style="fill:url(#SVGID_00000086672930580939364960000003292170400659285396_);" d="M-71.3,703.6l8.7,2.6
						c12.9,3.9,23.9,12.6,30.7,24.2l12.3,21.1c6.8,11.7,17.8,20.3,30.7,24.2l23.4,7c12.9,3.9,23.9,12.6,30.7,24.2l12.3,21.1
						c6.8,11.7,17.8,20.3,30.7,24.2l23.4,7c12.9,3.9,23.9,12.6,30.7,24.2l12.3,21.1c6.8,11.7,17.8,20.3,30.7,24.2l23.4,7
						c12.9,3.9,23.9,12.6,30.7,24.2l12.3,21.1c6.8,11.7,17.8,20.3,30.7,24.2l23.4,7c12.9,3.9,23.9,12.6,30.7,24.2l4.6,7.9
						c11,18.9,9.4,42.7-4.2,59.9l-31.6,40.1c-18.2,23.1-51.8,27.1-74.9,8.9l-401.8-316.8c-23.1-18.2-27.1-51.8-8.9-74.9l31.6-40.1
						C-115,704.5-92.3,697.3-71.3,703.6z"/>
					
						<linearGradient id="SVGID_00000022535489217064552960000005290072808656066440_" gradientUnits="userSpaceOnUse" x1="940.4421" y1="1142.1924" x2="940.4421" y2="981.116" gradientTransform="matrix(0.7853 0.6192 -0.6192 0.7853 -6.5343 -453.3246)">
						<stop  offset="0" style="stop-color:#4B2FB6"/>
						<stop  offset="0.226" style="stop-color:#543AB9"/>
						<stop  offset="0.6218" style="stop-color:#6B57C1"/>
						<stop  offset="1" style="stop-color:#8579CB"/>
					</linearGradient>
					<path style="fill:url(#SVGID_00000022535489217064552960000005290072808656066440_);" d="M-96.2,734.4l8.7,2.6
						c12.9,3.9,23.9,12.6,30.7,24.2l12.3,21.1c6.8,11.7,17.8,20.3,30.7,24.2l23.4,7c12.9,3.9,23.9,12.6,30.7,24.2l12.3,21.1
						c6.8,11.7,17.8,20.3,30.7,24.2l23.4,7c12.9,3.9,23.9,12.6,30.7,24.2l12.3,21.1c6.8,11.7,17.8,20.3,30.7,24.2l23.4,7
						c12.9,3.9,23.9,12.6,30.7,24.2l12.3,21.1c6.8,11.7,17.8,20.3,30.7,24.2l23.4,7c12.9,3.9,23.9,12.6,30.7,24.2l4.6,7.9
						c11,18.9,9.4,42.7-4.2,59.9l-31.6,40.1c-18.2,23.1-51.8,27.1-74.9,8.9l-401.8-316.8c-23.1-18.2-27.1-51.8-8.9-74.9l31.6-40.1
						C-139.8,735.3-117.1,728.1-96.2,734.4z"/>
					
						<linearGradient id="SVGID_00000133527436838425384820000006240109470982308502_" gradientUnits="userSpaceOnUse" x1="940.0115" y1="1181.7484" x2="940.0115" y2="1020.672" gradientTransform="matrix(0.7853 0.6192 -0.6192 0.7853 -6.5343 -453.3246)">
						<stop  offset="0" style="stop-color:#522CB1"/>
						<stop  offset="0.214" style="stop-color:#5A35B4"/>
						<stop  offset="0.5701" style="stop-color:#6E4FBA"/>
						<stop  offset="1" style="stop-color:#8E76C5"/>
					</linearGradient>
					<path style="fill:url(#SVGID_00000133527436838425384820000006240109470982308502_);" d="M-121,765.2l8.7,2.6
						c12.9,3.9,23.9,12.6,30.7,24.2l12.3,21.1c6.8,11.7,17.8,20.3,30.7,24.2l23.4,7c12.9,3.9,23.9,12.6,30.7,24.2l12.3,21.1
						c6.8,11.7,17.8,20.3,30.7,24.2l23.4,7c12.9,3.9,23.9,12.6,30.7,24.2l12.3,21.1c6.8,11.7,17.8,20.3,30.7,24.2l23.4,7
						c12.9,3.9,23.9,12.6,30.7,24.2l12.3,21.1c6.8,11.7,17.8,20.3,30.7,24.2l23.4,7c12.9,3.9,23.9,12.6,30.7,24.2l4.6,7.9
						c11,18.9,9.4,42.7-4.2,59.9l-31.6,40.1c-18.2,23.1-51.8,27.1-74.9,8.9L-201,898.3c-23.1-18.2-27.1-51.8-8.9-74.9l31.6-40.1
						C-164.7,766.1-142,758.9-121,765.2z"/>
					
						<linearGradient id="SVGID_00000104670045834886114010000006884419155816962226_" gradientUnits="userSpaceOnUse" x1="939.5809" y1="1221.3046" x2="939.5809" y2="1060.2281" gradientTransform="matrix(0.7853 0.6192 -0.6192 0.7853 -6.5343 -453.3246)">
						<stop  offset="0" style="stop-color:#5928AC"/>
						<stop  offset="0.205" style="stop-color:#6030AE"/>
						<stop  offset="0.5277" style="stop-color:#7247B3"/>
						<stop  offset="0.9258" style="stop-color:#916BBC"/>
						<stop  offset="1" style="stop-color:#9773BE"/>
					</linearGradient>
					<path style="fill:url(#SVGID_00000104670045834886114010000006884419155816962226_);" d="M-145.8,796l8.7,2.6
						c12.9,3.9,23.9,12.6,30.7,24.2l12.3,21.1c6.8,11.7,17.8,20.3,30.7,24.2l23.4,7c12.9,3.9,23.9,12.6,30.7,24.2L3,920.5
						c6.8,11.7,17.8,20.3,30.7,24.2l23.4,7c12.9,3.9,23.9,12.6,30.7,24.2l12.3,21.1c6.8,11.7,17.8,20.3,30.7,24.2l23.4,7
						c12.9,3.9,23.9,12.6,30.7,24.2l12.3,21.1c6.8,11.7,17.8,20.3,30.7,24.2l23.4,7c12.9,3.9,23.9,12.6,30.7,24.2l4.6,7.9
						c11,18.9,9.4,42.7-4.2,59.9l-31.6,40.1c-18.2,23.1-51.8,27.1-74.9,8.9l-401.8-316.8c-23.1-18.2-27.1-51.8-8.9-74.9l31.6-40.1
						C-189.5,796.9-166.8,789.7-145.8,796z"/>
					
						<linearGradient id="SVGID_00000003096009737309300360000001157566576173774215_" gradientUnits="userSpaceOnUse" x1="939.1503" y1="1260.8606" x2="939.1503" y2="1099.7842" gradientTransform="matrix(0.7853 0.6192 -0.6192 0.7853 -6.5343 -453.3246)">
						<stop  offset="0" style="stop-color:#6025A7"/>
						<stop  offset="0.2017" style="stop-color:#662CA9"/>
						<stop  offset="0.5018" style="stop-color:#7741AD"/>
						<stop  offset="0.8617" style="stop-color:#9461B4"/>
						<stop  offset="1" style="stop-color:#A070B7"/>
					</linearGradient>
					<path style="fill:url(#SVGID_00000003096009737309300360000001157566576173774215_);" d="M-170.7,826.8l8.7,2.6
						c12.9,3.9,23.9,12.6,30.7,24.2l12.3,21.1c6.8,11.7,17.8,20.3,30.7,24.2l23.4,7c12.9,3.9,23.9,12.6,30.7,24.2l12.3,21.1
						C-15,963-4,971.7,9,975.6l23.4,7c12.9,3.9,23.9,12.6,30.7,24.2l12.3,21.1c6.8,11.7,17.8,20.3,30.7,24.2l23.4,7
						c12.9,3.9,23.9,12.6,30.7,24.2l12.3,21.1c6.8,11.7,17.8,20.3,30.7,24.2l23.4,7c12.9,3.9,23.9,12.6,30.7,24.2l4.6,7.9
						c11,18.9,9.4,42.7-4.2,59.9l-31.6,40.1c-18.2,23.1-51.8,27.1-74.9,8.9l-401.8-316.8c-23.1-18.2-27.1-51.8-8.9-74.9l31.6-40.1
						C-214.3,827.7-191.6,820.5-170.7,826.8z"/>
					
						<linearGradient id="SVGID_00000047755461835803391270000017054392369282328194_" gradientUnits="userSpaceOnUse" x1="938.7197" y1="1300.4167" x2="938.7197" y2="1139.3402" gradientTransform="matrix(0.7853 0.6192 -0.6192 0.7853 -6.5343 -453.3246)">
						<stop  offset="0" style="stop-color:#6722A2"/>
						<stop  offset="0.201" style="stop-color:#6D29A3"/>
						<stop  offset="0.4837" style="stop-color:#7D3BA7"/>
						<stop  offset="0.8131" style="stop-color:#9759AD"/>
						<stop  offset="1" style="stop-color:#A96DB1"/>
					</linearGradient>
					<path style="fill:url(#SVGID_00000047755461835803391270000017054392369282328194_);" d="M-195.5,857.6l8.7,2.6
						c12.9,3.9,23.9,12.6,30.7,24.2l12.3,21.1c6.8,11.7,17.8,20.3,30.7,24.2l23.4,7c12.9,3.9,23.9,12.6,30.7,24.2l12.3,21.1
						c6.8,11.7,17.8,20.3,30.7,24.2l23.4,7c12.9,3.9,23.9,12.6,30.7,24.2l12.3,21.1c6.8,11.7,17.8,20.3,30.7,24.2l23.4,7
						c12.9,3.9,23.9,12.6,30.7,24.2l12.3,21.1c6.8,11.7,17.8,20.3,30.7,24.2l23.4,7c12.9,3.9,23.9,12.6,30.7,24.2l4.6,7.9
						c11,18.9,9.4,42.7-4.2,59.9l-31.6,40.1c-18.2,23.1-51.8,27.1-74.9,8.9l-401.8-316.8c-23.1-18.2-27.1-51.8-8.9-74.9l31.6-40.1
						C-239.2,858.5-216.5,851.3-195.5,857.6z"/>
					
						<linearGradient id="SVGID_00000093875024769877703980000011555518565465006745_" gradientUnits="userSpaceOnUse" x1="938.2892" y1="1339.9728" x2="938.2892" y2="1178.8964" gradientTransform="matrix(0.7853 0.6192 -0.6192 0.7853 -6.5343 -453.3246)">
						<stop  offset="0" style="stop-color:#6D1F9C"/>
						<stop  offset="0.2042" style="stop-color:#73259D"/>
						<stop  offset="0.4754" style="stop-color:#8236A0"/>
						<stop  offset="0.7827" style="stop-color:#9C51A5"/>
						<stop  offset="1" style="stop-color:#B269AA"/>
					</linearGradient>
					<path style="fill:url(#SVGID_00000093875024769877703980000011555518565465006745_);" d="M-220.3,888.4l8.7,2.6
						c12.9,3.9,23.9,12.6,30.7,24.2l12.3,21.1c6.8,11.7,17.8,20.3,30.7,24.2l23.4,7c12.9,3.9,23.9,12.6,30.7,24.2l12.3,21.1
						c6.8,11.7,17.8,20.3,30.7,24.2l23.4,7c12.9,3.9,23.9,12.6,30.7,24.2l12.3,21.1c6.8,11.7,17.8,20.3,30.7,24.2l23.4,7
						c12.9,3.9,23.9,12.6,30.7,24.2l12.3,21.1c6.8,11.7,17.8,20.3,30.7,24.2l23.4,7c12.9,3.9,23.9,12.6,30.7,24.2l4.6,7.9
						c11,18.9,9.4,42.7-4.2,59.9l-31.6,40.1c-18.2,23.1-51.8,27.1-74.9,8.9l-401.8-316.8c-23.1-18.2-27.1-51.8-8.9-74.9l31.6-40.1
						C-264,889.3-241.3,882.1-220.3,888.4z"/>
					
						<linearGradient id="SVGID_00000031181752810876104480000017446637119572409264_" gradientUnits="userSpaceOnUse" x1="937.8586" y1="1379.5289" x2="937.8586" y2="1218.4524" gradientTransform="matrix(0.7853 0.6192 -0.6192 0.7853 -6.5343 -453.3246)">
						<stop  offset="0" style="stop-color:#741C97"/>
						<stop  offset="0.2076" style="stop-color:#792198"/>
						<stop  offset="0.4674" style="stop-color:#88319A"/>
						<stop  offset="0.7539" style="stop-color:#A04A9E"/>
						<stop  offset="1" style="stop-color:#BB66A3"/>
					</linearGradient>
					<path style="fill:url(#SVGID_00000031181752810876104480000017446637119572409264_);" d="M-245.1,919.2l8.7,2.6
						c12.9,3.9,23.9,12.6,30.7,24.2l12.3,21.1c6.8,11.7,17.8,20.3,30.7,24.2l23.4,7c12.9,3.9,23.9,12.6,30.7,24.2l12.3,21.1
						c6.8,11.7,17.8,20.3,30.7,24.2l23.4,7c12.9,3.9,23.9,12.6,30.7,24.2l12.3,21.1c6.8,11.7,17.8,20.3,30.7,24.2l23.4,7
						c12.9,3.9,23.9,12.6,30.7,24.2l12.3,21.1c6.8,11.7,17.8,20.3,30.7,24.2l23.4,7c12.9,3.9,23.9,12.6,30.7,24.2l4.6,7.9
						c11,18.9,9.4,42.7-4.2,59.9l-31.6,40.1c-18.2,23.1-51.8,27.1-74.9,8.9l-401.8-316.8c-23.1-18.2-27.1-51.8-8.9-74.9l31.6-40.1
						C-288.8,920.1-266.1,912.9-245.1,919.2z"/>
					
						<linearGradient id="SVGID_00000051347010285478234600000001872688266936807834_" gradientUnits="userSpaceOnUse" x1="937.428" y1="1419.085" x2="937.428" y2="1258.0085" gradientTransform="matrix(0.7853 0.6192 -0.6192 0.7853 -6.5343 -453.3246)">
						<stop  offset="0" style="stop-color:#7B1892"/>
						<stop  offset="0.2108" style="stop-color:#801D93"/>
						<stop  offset="0.4596" style="stop-color:#8E2B95"/>
						<stop  offset="0.7274" style="stop-color:#A54398"/>
						<stop  offset="1" style="stop-color:#C4639C"/>
					</linearGradient>
					<path style="fill:url(#SVGID_00000051347010285478234600000001872688266936807834_);" d="M-270,950l8.7,2.6
						c12.9,3.9,23.9,12.6,30.7,24.2l12.3,21.1c6.8,11.7,17.8,20.3,30.7,24.2l23.4,7c12.9,3.9,23.9,12.6,30.7,24.2l12.3,21.1
						c6.8,11.7,17.8,20.3,30.7,24.2l23.4,7c12.9,3.9,23.9,12.6,30.7,24.2l12.3,21.1c6.8,11.7,17.8,20.3,30.7,24.2l23.4,7
						c12.9,3.9,23.9,12.6,30.7,24.2l12.3,21.1c6.8,11.7,17.8,20.3,30.7,24.2l23.4,7c12.9,3.9,23.9,12.6,30.7,24.2l4.6,7.9
						c11,18.9,9.4,42.7-4.2,59.9l-31.6,40.1c-18.2,23.1-51.8,27.1-74.9,8.9L-350,1083.1c-23.1-18.2-27.1-51.8-8.9-74.9l31.6-40.1
						C-313.6,950.9-290.9,943.7-270,950z"/>
					
						<linearGradient id="SVGID_00000124144420658969971880000000468175189413642883_" gradientUnits="userSpaceOnUse" x1="936.9974" y1="1458.641" x2="936.9974" y2="1297.5646" gradientTransform="matrix(0.7853 0.6192 -0.6192 0.7853 -6.5343 -453.3246)">
						<stop  offset="0" style="stop-color:#82158D"/>
						<stop  offset="0.2172" style="stop-color:#871A8E"/>
						<stop  offset="0.4585" style="stop-color:#94278F"/>
						<stop  offset="0.7112" style="stop-color:#AA3D92"/>
						<stop  offset="0.9703" style="stop-color:#C95C96"/>
						<stop  offset="1" style="stop-color:#CD6096"/>
					</linearGradient>
					<path style="fill:url(#SVGID_00000124144420658969971880000000468175189413642883_);" d="M-294.8,980.8l8.7,2.6
						c12.9,3.9,23.9,12.6,30.7,24.2l12.3,21.1c6.8,11.7,17.8,20.3,30.7,24.2l23.4,7c12.9,3.9,23.9,12.6,30.7,24.2l12.3,21.1
						c6.8,11.7,17.8,20.3,30.7,24.2l23.4,7c12.9,3.9,23.9,12.6,30.7,24.2l12.3,21.1c6.8,11.7,17.8,20.3,30.7,24.2l23.4,7
						c12.9,3.9,23.9,12.6,30.7,24.2l12.3,21.1c6.8,11.7,17.8,20.3,30.7,24.2l23.4,7c12.9,3.9,23.9,12.6,30.7,24.2l4.6,7.9
						c11,18.9,9.4,42.7-4.2,59.9l-31.6,40.1c-18.2,23.1-51.8,27.1-74.9,8.9l-401.8-316.8c-23.1-18.2-27.1-51.8-8.9-74.9l31.6-40.1
						C-338.5,981.7-315.8,974.5-294.8,980.8z"/>
					
						<linearGradient id="SVGID_00000121247867984256421370000003472481140493031590_" gradientUnits="userSpaceOnUse" x1="936.5668" y1="1498.1971" x2="936.5668" y2="1337.1207" gradientTransform="matrix(0.7853 0.6192 -0.6192 0.7853 -6.5343 -453.3246)">
						<stop  offset="0" style="stop-color:#891288"/>
						<stop  offset="0.2234" style="stop-color:#8D1688"/>
						<stop  offset="0.4568" style="stop-color:#9A238A"/>
						<stop  offset="0.6946" style="stop-color:#AF378B"/>
						<stop  offset="0.9342" style="stop-color:#CC548E"/>
						<stop  offset="1" style="stop-color:#D55D8F"/>
					</linearGradient>
					<path style="fill:url(#SVGID_00000121247867984256421370000003472481140493031590_);" d="M-319.6,1011.6l8.7,2.6
						c12.9,3.9,23.9,12.6,30.7,24.2l12.3,21.1c6.8,11.7,17.8,20.3,30.7,24.2l23.4,7c12.9,3.9,23.9,12.6,30.7,24.2l12.3,21.1
						c6.8,11.7,17.8,20.3,30.7,24.2l23.4,7c12.9,3.9,23.9,12.6,30.7,24.2l12.3,21.1c6.8,11.7,17.8,20.3,30.7,24.2l23.4,7
						c12.9,3.9,23.9,12.6,30.7,24.2l12.3,21.1c6.8,11.7,17.8,20.3,30.7,24.2l23.4,7c12.9,3.9,23.9,12.6,30.7,24.2l4.6,7.9
						c11,18.9,9.4,42.7-4.2,59.9l-31.6,40.1c-18.2,23.1-51.8,27.1-74.9,8.9l-401.8-316.8c-23.1-18.2-27.1-51.8-8.9-74.9l31.6-40.1
						C-363.3,1012.4-340.6,1005.3-319.6,1011.6z"/>
					
						<linearGradient id="SVGID_00000162326098897853698920000000831741478520280492_" gradientUnits="userSpaceOnUse" x1="936.1363" y1="1537.7532" x2="936.1363" y2="1376.6768" gradientTransform="matrix(0.7853 0.6192 -0.6192 0.7853 -6.5343 -453.3246)">
						<stop  offset="0" style="stop-color:#900F83"/>
						<stop  offset="0.2297" style="stop-color:#941383"/>
						<stop  offset="0.4548" style="stop-color:#A01E84"/>
						<stop  offset="0.6782" style="stop-color:#B33185"/>
						<stop  offset="0.8992" style="stop-color:#CF4B87"/>
						<stop  offset="1" style="stop-color:#DE5A88"/>
					</linearGradient>
					<path style="fill:url(#SVGID_00000162326098897853698920000000831741478520280492_);" d="M-344.5,1042.4l8.7,2.6
						c12.9,3.9,23.9,12.6,30.7,24.2l12.3,21.1c6.8,11.7,17.8,20.3,30.7,24.2l23.4,7c12.9,3.9,23.9,12.6,30.7,24.2l12.3,21.1
						c6.8,11.7,17.8,20.3,30.7,24.2l23.4,7c12.9,3.9,23.9,12.6,30.7,24.2l12.3,21.1c6.8,11.7,17.8,20.3,30.7,24.2l23.4,7
						c12.9,3.9,23.9,12.6,30.7,24.2l12.3,21.1c6.8,11.7,17.8,20.3,30.7,24.2l23.4,7c12.9,3.9,23.9,12.6,30.7,24.2l4.6,7.9
						c11,18.9,9.4,42.7-4.2,59.9l-31.6,40.1c-18.2,23.1-51.8,27.1-74.9,8.9l-401.8-316.8c-23.1-18.2-27.1-51.8-8.9-74.9l31.6-40.1
						C-388.1,1043.2-365.4,1036.1-344.5,1042.4z"/>
					
						<linearGradient id="SVGID_00000157290807648623375270000003279227464507577009_" gradientUnits="userSpaceOnUse" x1="935.7057" y1="1577.3093" x2="935.7057" y2="1416.2328" gradientTransform="matrix(0.7853 0.6192 -0.6192 0.7853 -6.5343 -453.3246)">
						<stop  offset="0" style="stop-color:#970B7E"/>
						<stop  offset="0.2374" style="stop-color:#9B0E7E"/>
						<stop  offset="0.4556" style="stop-color:#A6197F"/>
						<stop  offset="0.6662" style="stop-color:#B82B7F"/>
						<stop  offset="0.8709" style="stop-color:#D24380"/>
						<stop  offset="1" style="stop-color:#E75781"/>
					</linearGradient>
					<path style="fill:url(#SVGID_00000157290807648623375270000003279227464507577009_);" d="M-369.3,1073.2l8.7,2.6
						c12.9,3.9,23.9,12.6,30.7,24.2l12.3,21.1c6.8,11.7,17.8,20.3,30.7,24.2l23.4,7c12.9,3.9,23.9,12.6,30.7,24.2l12.3,21.1
						c6.8,11.7,17.8,20.3,30.7,24.2l23.4,7c12.9,3.9,23.9,12.6,30.7,24.2l12.3,21.1c6.8,11.7,17.8,20.3,30.7,24.2l23.4,7
						c12.9,3.9,23.9,12.6,30.7,24.2l12.3,21.1c6.8,11.7,17.8,20.3,30.7,24.2l23.4,7c12.9,3.9,23.9,12.6,30.7,24.2l4.6,7.9
						c11,18.9,9.4,42.7-4.2,59.9l-31.6,40.1c-18.2,23.1-51.8,27.1-74.9,8.9l-401.8-316.8c-23.1-18.2-27.1-51.8-8.9-74.9l31.6-40.1
						C-413,1074-390.3,1066.9-369.3,1073.2z"/>
					
						<linearGradient id="SVGID_00000092423258974101086380000005620269149517933242_" gradientUnits="userSpaceOnUse" x1="935.2751" y1="1616.8654" x2="935.2751" y2="1455.7889" gradientTransform="matrix(0.7853 0.6192 -0.6192 0.7853 -6.5343 -453.3246)">
						<stop  offset="0" style="stop-color:#9E0879"/>
						<stop  offset="0.2466" style="stop-color:#A10B79"/>
						<stop  offset="0.4587" style="stop-color:#AC1579"/>
						<stop  offset="0.658" style="stop-color:#BE257A"/>
						<stop  offset="0.8484" style="stop-color:#D63C7A"/>
						<stop  offset="1" style="stop-color:#F0547B"/>
					</linearGradient>
					<path style="fill:url(#SVGID_00000092423258974101086380000005620269149517933242_);" d="M-394.1,1104l8.7,2.6
						c12.9,3.9,23.9,12.6,30.7,24.2l12.3,21.1c6.8,11.7,17.8,20.3,30.7,24.2l23.4,7c12.9,3.9,23.9,12.6,30.7,24.2l12.3,21.1
						c6.8,11.7,17.8,20.3,30.7,24.2l23.4,7c12.9,3.9,23.9,12.6,30.7,24.2l12.3,21.1c6.8,11.7,17.8,20.3,30.7,24.2l23.4,7
						c12.9,3.9,23.9,12.6,30.7,24.2l12.3,21.1c6.8,11.7,17.8,20.3,30.7,24.2l23.4,7c12.9,3.9,23.9,12.6,30.7,24.2l4.6,7.9
						c11,18.9,9.4,42.7-4.2,59.9L2.6,1545c-18.2,23.1-51.8,27.1-74.9,8.9L-474.1,1237c-23.1-18.2-27.1-51.8-8.9-74.9l31.6-40.1
						C-437.8,1104.8-415.1,1097.7-394.1,1104z"/>
					
						<linearGradient id="SVGID_00000062907596110173945770000012773811411831168643_" gradientUnits="userSpaceOnUse" x1="934.8445" y1="1656.4214" x2="934.8445" y2="1495.345" gradientTransform="matrix(0.7853 0.6192 -0.6192 0.7853 -6.5343 -453.3246)">
						<stop  offset="0" style="stop-color:#A50574"/>
						<stop  offset="0.2574" style="stop-color:#A80874"/>
						<stop  offset="0.4641" style="stop-color:#B21174"/>
						<stop  offset="0.6532" style="stop-color:#C32074"/>
						<stop  offset="0.8307" style="stop-color:#DB3674"/>
						<stop  offset="1" style="stop-color:#F95174"/>
					</linearGradient>
					<path style="fill:url(#SVGID_00000062907596110173945770000012773811411831168643_);" d="M-419,1134.8l8.7,2.6
						c12.9,3.9,23.9,12.6,30.7,24.2l12.3,21.1c6.8,11.7,17.8,20.3,30.7,24.2l23.4,7c12.9,3.9,23.9,12.6,30.7,24.2l12.3,21.1
						c6.8,11.7,17.8,20.3,30.7,24.2l23.4,7c12.9,3.9,23.9,12.6,30.7,24.2l12.3,21.1c6.8,11.7,17.8,20.3,30.7,24.2l23.4,7
						c12.9,3.9,23.9,12.6,30.7,24.2l12.3,21.1c6.8,11.7,17.8,20.3,30.7,24.2l23.4,7c12.9,3.9,23.9,12.6,30.7,24.2l4.6,7.9
						c11,18.9,9.4,42.7-4.2,59.9l-31.6,40.1c-18.2,23.1-51.8,27.1-74.9,8.9l-401.8-316.8c-23.1-18.2-27.1-51.8-8.9-74.9l31.6-40.1
						C-462.6,1135.6-439.9,1128.5-419,1134.8z"/>
				</g>
			</g>
		</g>
	</g>
</g>
</svg>
