<?xml version="1.0" encoding="utf-8"?>
<!-- Generator: Adobe Illustrator 27.9.0, SVG Export Plug-In . SVG Version: 6.00 Build 0)  -->
<svg version="1.1" id="Layer_1" xmlns="http://www.w3.org/2000/svg" xmlns:xlink="http://www.w3.org/1999/xlink" x="0px" y="0px"
	 viewBox="0 0 41.8 37.3" style="enable-background:new 0 0 41.8 37.3;" xml:space="preserve">
<style type="text/css">
	.st0{enable-background:new    ;}
	.st1{fill:#E4A124;}
</style>
<g class="st0">
	<path class="st1" d="M0.2,36.2l2.5-12.5c0.4-2.3,0.8-4.7,1.2-7.1c0.4-2.4,0.9-4.8,1.3-7.2C5.6,7.1,6,4.8,6.2,2.8
		c1.8-0.6,3.8-1,5.9-1.3c2.1-0.3,4.2-0.4,6.3-0.4c2.4,0,4.1,0.5,5,1.6c0.9,1.1,1.3,2.5,1.3,4.3c0,1.6-0.4,3.3-1.2,4.9
		c-0.8,1.6-1.8,3.1-3,4.5c-1.2,1.3-2.6,2.4-4.1,3.1c0.6,1.3,1.2,2.7,1.8,4.2c0.7,1.5,1.3,3,1.8,4.3c0.3,0.8,0.6,1.6,1,2.4
		c0.3,0.8,0.7,1.6,1,2.4l-7.4,2.6c-0.3-1.1-0.6-2.2-0.9-3.2c-0.3-1-0.6-2-0.8-3c-0.3-1.2-0.6-2.3-0.9-3.4c-0.3-1.1-0.5-2.1-0.7-3
		c-0.2-0.9-0.3-1.5-0.4-1.8l-0.6,0.2c-0.2,1-0.4,2.3-0.7,3.7c-0.3,1.5-0.5,2.9-0.7,4.3l-0.9,5L0.2,36.2z M11.5,15.4
		c0.6-0.1,1.3-0.3,2.1-0.7c0.8-0.4,1.7-1,2.5-1.6c0.8-0.6,1.6-1.3,2.1-2c0.6-0.7,0.9-1.3,0.9-1.8c0-0.6-0.4-1.1-1.1-1.3
		c-0.8-0.2-1.7-0.3-3-0.3H14c-0.2,0-0.4,0-0.5,0s-0.3,0-0.5,0L11.5,15.4z"/>
	<path class="st1" d="M27.2,37.3c-1,0-1.8-0.2-2.4-0.7c-0.6-0.5-1.1-1-1.4-1.7c-0.3-0.7-0.5-1.4-0.5-2.1c0-1.3,0.4-2.4,1.3-3.3
		c0.8-0.9,2-1.4,3.5-1.4c1.9,0,3.2,0.4,4.2,1.3c0.9,0.9,1.4,1.9,1.4,3c0,1.3-0.5,2.4-1.6,3.4S29.2,37.3,27.2,37.3z M27.3,25.1
		c0.5-2,1-4,1.5-5.9c0.5-2,1-3.9,1.4-5.9c0.4-2,0.9-3.9,1.4-5.9c0.5-2,1-3.9,1.5-5.9c1.8-0.3,3.5-0.5,5-0.7c1.5-0.2,2.7-0.4,3.7-0.5
		c-1.7,4-3.3,8.1-4.7,12.2c-1.4,4.1-2.8,8.2-4.2,12.3c-0.9,0-1.9,0-2.8,0.1C29.2,25,28.2,25,27.3,25.1z"/>
</g>
</svg>
