<?xml version="1.0" encoding="utf-8"?>
<!-- Generator: Adobe Illustrator 27.9.0, SVG Export Plug-In . SVG Version: 6.00 Build 0)  -->
<svg version="1.1" id="Layer_1" xmlns="http://www.w3.org/2000/svg" xmlns:xlink="http://www.w3.org/1999/xlink" x="0px" y="0px"
	 viewBox="0 0 800 800" style="enable-background:new 0 0 800 800;" xml:space="preserve">
<style type="text/css">
	.st0{fill:#231F20;}
</style>
<path class="st0" d="M17.3,548.9c-29.9,21-24.4,57.1,43.9,79.7c68.3,22.6,147.7,27.3,217.6,14.7c-2,0,4,0,0,0V572l-67.9,23
	c-25.9,8.4-51.9,10.5-77.8,4.2c-20-6.3-16-18.9,8-29.4l137.7-50.3v-77.6L87.1,511.1C63.2,519.5,39.2,532.1,17.3,548.9z M480.4,234.4
	v203.4c81.8,41.9,145.7,0,145.7-109c0-111.1-37.9-161.5-147.7-201.3c-57.9-21-117.8-39.8-177.6-52.4v606l139.7,44V215.5
	c0-23.1,0-39.8,16-33.5C478.4,188.2,480.4,211.3,480.4,234.4z M739.9,500.6c-57.9-21-119.8-29.4-179.6-23.1
	c-33.3,2.2-64.5,12.1-95.8,23.1v81.8l129.7-50.3c26-8.4,51.9-10.5,77.8-4.2c20,6.3,16,18.9-8,29.4l-199.6,77.6v79.7l275.5-106.9
	c20-8.4,37.9-18.9,53.9-35.6C807.7,551,801.7,521.6,739.9,500.6z"/>
</svg>
