<?xml version="1.0" encoding="utf-8"?>
<!-- Generator: Adobe Illustrator 27.9.0, SVG Export Plug-In . SVG Version: 6.00 Build 0)  -->
<svg version="1.1" id="Layer_1" xmlns="http://www.w3.org/2000/svg" xmlns:xlink="http://www.w3.org/1999/xlink" x="0px" y="0px"
	 viewBox="0 0 349.8 185.4" style="enable-background:new 0 0 349.8 185.4;" xml:space="preserve">
<path d="M213.2,185.4V154c3.2-2.7,15.5-13.2,28.5-24.4c11.7-10,23.3-20.1,35.2-29.8c9-7.4,25.9-20.9,26.5-34.1
	C304,50.1,293,40,276.5,40c-9.8,0-21.4,5.5-28.3,11.4c-7.1,6-16,13.6-16,13.6l-25.8-28c21.9-24.6,45.5-37,70.1-37
	c52.4-1.3,91.8,57.1,52,102.8c-14.7,16-30.6,30.8-47.7,44.1h68.4v38.4L213.2,185.4L213.2,185.4z"/>
<path d="M135.7,2.9h-28.2c-0.7,0-1.2,0.5-1.2,1.2l0,0V184c0,0.7,0.6,1.3,1.3,1.3l0,0h28.1c25.8,0,46.8-20.9,46.8-46.8l0,0V49.7
	C182.5,23.8,161.5,2.9,135.7,2.9L135.7,2.9L135.7,2.9z M142.4,121.7c-10.2,0-18.5-8.3-18.5-18.4s8.3-18.5,18.4-18.5
	c10.2,0,18.5,8.3,18.5,18.4l0,0C160.8,113.5,152.6,121.7,142.4,121.7z"/>
<path d="M86.7,2.9H46.8C21,2.9,0,23.8,0,49.7v88.9c0,25.8,20.9,46.8,46.8,46.8l0,0h39.9c0.7,0,1.3-0.6,1.3-1.3l0,0V4.2
	C88,3.5,87.4,2.9,86.7,2.9L86.7,2.9L86.7,2.9z M73.3,170.7H46.8c-17.7,0-32.1-14.4-32.1-32.1l0,0V49.7c0-17.7,14.4-32.1,32.1-32.1
	l0,0h26.5V170.7z M45.6,40.5c9.5,0,17.2,7.7,17.2,17.2S55,74.8,45.6,74.8c-9.5,0-17.2-7.7-17.2-17.2l0,0
	C28.4,48.2,36.1,40.5,45.6,40.5L45.6,40.5z"/>
</svg>
