<?xml version="1.0" encoding="utf-8"?>
<svg version="1.1" xmlns="http://www.w3.org/2000/svg" xmlns:xlink="http://www.w3.org/1999/xlink" x="0px" y="0px"
    viewBox="0 0 512 512">
    <defs>
        <linearGradient id="strokeGradient" x1="0%" y1="0%" x2="100%" y2="100%">
            <stop offset="0%" stop-color="#FDC090" />
            <stop offset="100%" stop-color="#B8B7F7" />
        </linearGradient>
    </defs>
    <path fill="none" stroke="url(#strokeGradient)" stroke-linecap="round" stroke-linejoin="round" stroke-width="32"
        d="M256 160c16-63.16 76.43-95.41 208-96a15.94 15.94 0 0 1 16 16v288a16 16 0 0 1-16 16c-128 0-177.45 25.81-208 64c-30.37-38-80-64-208-64c-9.88 0-16-8.05-16-17.93V80a15.94 15.94 0 0 1 16-16c131.57.59 192 32.84 208 96m0 0v288" />
</svg>