<?xml version="1.0" encoding="utf-8"?>
<svg version="1.1" xmlns="http://www.w3.org/2000/svg" xmlns:xlink="http://www.w3.org/1999/xlink" x="0px" y="0px"
    viewBox="0 0 256 256">
    <defs>
        <linearGradient id="fillGradient" x1="0%" y1="0%" x2="100%" y2="100%">
            <stop offset="0%" stop-color="#FDC090" />
            <stop offset="100%" stop-color="#B8B7F7" />
        </linearGradient>
    </defs>
    <path fill="url(#fillGradient)"
        d="M212.92 17.69a8 8 0 0 0-6.86-1.45l-128 32A8 8 0 0 0 72 56v110.08A36 36 0 1 0 88 196v-85.75l112-28v51.83A36 36 0 1 0 216 164V24a8 8 0 0 0-3.08-6.31M52 216a20 20 0 1 1 20-20a20 20 0 0 1-20 20M88 93.75v-31.5l112-28v31.5ZM180 184a20 20 0 1 1 20-20a20 20 0 0 1-20 20" />
</svg>