<?xml version="1.0" encoding="utf-8"?>
<!-- Generator: Adobe Illustrator 27.9.0, SVG Export Plug-In . SVG Version: 6.00 Build 0)  -->
<svg version="1.1" id="Layer_1" xmlns="http://www.w3.org/2000/svg" xmlns:xlink="http://www.w3.org/1999/xlink" x="0px" y="0px"
	 viewBox="0 0 30.2 30.2" style="enable-background:new 0 0 30.2 30.2;" xml:space="preserve">
<style type="text/css">
	.st0{fill:#6EA644;}
	.st1{fill:#FFDB44;}
	.st2{fill:#0051B5;}
	.st3{fill:#FFFFFF;}
</style>
<path class="st0" d="M30.2,15.1c0,8.3-6.8,15.1-15.1,15.1C6.8,30.2,0,23.5,0,15.1C0,6.8,6.8,0,15.1,0C23.4,0,30.2,6.8,30.2,15.1z"/>
<path class="st1" d="M15.5,6l12.5,9.1l-12.5,9.1L3,15.1L15.5,6z"/>
<path class="st2" d="M20.8,15.1c0,2.9-2.4,5.3-5.3,5.3c-2.9,0-5.3-2.4-5.3-5.3c0-2.9,2.4-5.3,5.3-5.3C18.4,9.8,20.8,12.2,20.8,15.1z
	"/>
<path class="st3" d="M10.7,12.8c-0.3,0.7-0.5,1.5-0.5,2.3c5.4-0.9,8.6,1.8,9.5,3.2c0.5-0.7,0.9-1.5,1-2.5
	C17.7,12.8,12.8,12.6,10.7,12.8z"/>
</svg>
