<?xml version="1.0" encoding="utf-8"?>
<!-- Generator: Adobe Illustrator 27.9.0, SVG Export Plug-In . SVG Version: 6.00 Build 0)  -->
<svg version="1.1"
	 id="svg2" xmlns:svg="http://www.w3.org/2000/svg" xmlns:inkscape="http://www.inkscape.org/namespaces/inkscape" xmlns:sodipodi="http://sodipodi.sourceforge.net/DTD/sodipodi-0.dtd" xmlns:rdf="http://www.w3.org/1999/02/22-rdf-syntax-ns#" xmlns:cc="http://creativecommons.org/ns#" xmlns:dc="http://purl.org/dc/elements/1.1/" inkscape:version="0.91 r13725"
	 xmlns="http://www.w3.org/2000/svg" xmlns:xlink="http://www.w3.org/1999/xlink" x="0px" y="0px" viewBox="0 0 168.6 167.2"
	 style="enable-background:new 0 0 168.6 167.2;" xml:space="preserve">
<style type="text/css">
	.st0{fill:#231F20;}
</style>
<sodipodi:namedview  bordercolor="#666666" borderopacity="1.0" fit-margin-bottom="0" fit-margin-left="0" fit-margin-right="0" fit-margin-top="0" id="base" inkscape:current-layer="layer1" inkscape:cx="529.60381" inkscape:cy="83.879223" inkscape:document-units="px" inkscape:pageopacity="0.0" inkscape:pageshadow="2" inkscape:window-height="1053" inkscape:window-maximized="1" inkscape:window-width="1858" inkscape:window-x="-8" inkscape:window-y="-8" inkscape:zoom="1" pagecolor="#ffffff" showgrid="false">
	</sodipodi:namedview>
<g id="layer1" transform="translate(-289.50849,319.17136)" inkscape:groupmode="layer" inkscape:label="Calque 1">
	<g id="g4406" transform="matrix(0.4419355,0,0,0.4419355,-115.1012,-96.127872)">
		<path id="path4379" inkscape:connector-curvature="0" class="st0" d="M1087.9-126.8c-6.4-0.6-23.3-3.5-29.5-5.1
			c-54.1-13.8-99.8-50.8-124.1-100.3c-13.3-27.1-18.8-51.4-18.8-82.4c0-31,5.6-55.8,18.7-82.4c9.8-19.9,21-35.5,37-51.4
			c29.9-29.6,67.8-47.9,110.6-53.5c14-1.8,43.7-1.2,56.8,1.1c27.2,5,51.7,14.7,73.6,29.3c45.5,30.3,75.1,76.7,82.8,130
			c1.6,11.4,2.6,35.2,1.5,37.1c-0.6,1.1-0.9-0.1-1.3-4.7c-2-23.2-12-51.4-25.9-72.4c-42.2-63.9-120.9-91-193.7-66.8
			c-56.2,18.7-98.5,66.3-110.1,123.8c-5.7,28.5-4,56.4,5.2,83.9c16.2,48.6,55,87.4,104.2,104.2c11.6,4,26.5,7.3,36.3,8.1
			c11.8,0.9,8.8,1.8-5.7,1.7C1097.6-126.4,1089.7-126.6,1087.9-126.8L1087.9-126.8z"/>
		<path id="path4375" inkscape:connector-curvature="0" class="st0" d="M1128.3-150.3c-60.8-4.4-111.2-49.8-121.7-109.5
			c-1.9-10.9-2.3-31.2-0.7-41.2c9.1-59.4,54.8-104.5,114.5-112.9c12.1-1.7,33.6-1.1,45.2,1.2c10.1,2,21.2,5.7,30,9.8l6.8,3.2l-6.4,3
			c-23.1,10.9-37.4,36.4-34,60.9c3.4,24.5,20.3,43.7,44.6,50.6c8.7,2.5,22.1,2.5,30.9,0c11.3-3.2,20.2-8.5,28.3-16.8
			c2.7-2.8,5.1-4.8,5.3-4.4c0.2,0.4,0.8,4.2,1.4,8.6c1.3,10.8,0.6,31.2-1.6,41.4c-6.9,32.5-24.2,59.8-50.8,80
			C1194.7-157.4,1161.4-147.8,1128.3-150.3L1128.3-150.3z"/>
	</g>
</g>
</svg>
