<?xml version="1.0" encoding="utf-8"?>
<!-- Generator: Adobe Illustrator 27.9.0, SVG Export Plug-In . SVG Version: 6.00 Build 0)  -->
<svg version="1.1" id="Layer_1" xmlns="http://www.w3.org/2000/svg" xmlns:xlink="http://www.w3.org/1999/xlink" x="0px" y="0px"
	 viewBox="0 0 111.6 95.2" style="enable-background:new 0 0 111.6 95.2;" xml:space="preserve">
<g>
	<path d="M35.1,31.1C19.1,31.1,6.2,44,6.2,60s12.9,28.9,28.9,28.9S64,76,64,60S51.1,31.1,35.1,31.1z"/>
	<path d="M97,13.6C87.8,4.9,75.8,0.1,63.2,0.1H29v2.5l0,22.6c-7.7,1.4-14.7,5.3-20,11.2C3.2,43,0,51.3,0,60C0,70,4,79.2,11.3,85.8
		c6.6,6,15.3,9.4,24,9.4h27.9c12.8,0,24.8-4.7,33.8-13.1c9.4-8.8,14.6-21.1,14.6-34.4C111.6,34.6,106.4,22.5,97,13.6z M63.2,92.6
		H35.2c-8,0-16.1-3.2-22.2-8.7C6.2,77.8,2.5,69.3,2.5,60c0-16.5,12.7-30.6,29-32.5l0-24.8h31.6c12,0,23.4,4.5,32.1,12.7
		c8.9,8.5,13.9,19.9,13.9,32.2c0,12.6-4.9,24.2-13.8,32.5C86.7,88.2,75.3,92.6,63.2,92.6z"/>
	<path d="M105.4,47.4c0,22.8-18.4,41.2-41.2,41.2H50.5c0.9-0.5,1.8-1,2.6-1.5c9-5.8,14.9-15.9,14.9-27.4c0-18-14.6-32.6-32.6-32.6
		V6.2h28.9C87,6.2,105.4,24.6,105.4,47.4z"/>
</g>
</svg>
