<?xml version="1.0" encoding="utf-8"?>
<!-- Generator: Adobe Illustrator 27.9.0, SVG Export Plug-In . SVG Version: 6.00 Build 0)  -->
<svg version="1.1" id="Layer_1" xmlns="http://www.w3.org/2000/svg" xmlns:xlink="http://www.w3.org/1999/xlink" x="0px" y="0px"
	 viewBox="0 0 666.7 367.1" style="enable-background:new 0 0 666.7 367.1;" xml:space="preserve">
<g transform="matrix(.02 0 0 .02 .658 6.921)">
	<path d="M15100.1,12172.5c18.4,2.5,22.4,3.3,40.4,5.6c300.2,40.8,595.2,94.9,821,195.8c209.3,92.4,331.9,209.3,443.9,417.8
		c170.3,316.1,181.4,758.9,27.5,1094c-115,249.4-367.3,458.5-597.7,569.3c-239.3,116-475,171.2-745.4,202.1
		c-472.9,52.1-983.6-45.9-1409.1-251.7c-251.7-122.9-559.1-334.6-714.2-607.4c-114-199.8-110.4-459.8,28.3-649.7
		c221.1-302.7,694.8-369.3,1051.5-356.7c272,10.5,761.7,94.6,1019.9,186.5c71.6,25.9,335.5,128.7,381.6,175.9
		c32.4,32.8,53.5,80.5,38.9,124.5c-59,180.5-497.5,275.6-624.2,294.7c-339,51.9-514.9-76.4-900.3-228.5
		c-95.7-37.5-223.2-79-320.6-88c-175-16.7-386.3,32.3-419.7,223.3c-16.6,98.4,98.8,190.5,186.9,229.2
		c206.7,88.8,374.8,120.7,578.3,123.5c601.1,9.9,1276.6-89.1,1768.2-437.4c67.3-48,133.4-118.3,134.1-207
		c2.1-179-311.6-288.4-311.6-288.4c-331.2-138.1-943.1-205.3-1258.3-231.2c-330.8-28.6-851.3-71.5-976.3-89.9
		c-128.7-18.4-268.4-44.3-379.9-94.3c-111.9-50.6-221.4-163.7-253.9-288.9c-57.6-225.7,15.9-502.6,141.2-682.9
		c328.5-472.3,1098-651.6,1672.9-722.9c556.4-69.2,1455.9-68.5,2002.4,221.9c84.4,45.2,127.5,87.3,109.8,177.5
		c-35.6,169.3-162.9,278.5-317.1,326.3c-161.8,51.5-496.6,71.6-643.6,80.8c-658.9,36.9-1455.1,17.6-2082.6,188.7
		c-49.2,14-134.1,36.9-161.7,67.8c-98.2,106.6,182.3,137.1,242.4,149.3c17.9,4.3,21.3,4.9,40,6.9L15100.1,12172.5 M11180.4,9234.6
		c0,0,107.2-160.7,197-282.7c163.5-222.1,459.4-530,682.2-720.7c68.2-58.2,148.5-124.2,148.5-124.2s-125.7,13-196.9,27.6
		c-169.1,32.9-417,197.7-540.8,304.1c-204.4,175-429.2,459.4-327.5,712.1C11157.7,9186.6,11180.4,9234.6,11180.4,9234.6
		 M12316.7,9538.7c322.9-22.3,625.4-115.2,907-271.4c276.2-154.5,682.4-455.9,640.2-810.1c-12.8-114.7-87.9-201.2-182.6-241.6
		c-123.2-53.4-187.4-44.8-344.7,2c-114.3,33.4-165.8,53.7-273.7,115.5c-316.8,184-765.9,577.9-1009.7,892.2
		c-56.3,74.1-113.3,157-157.9,213.9c-28.1,35-50,67.2-47.3,75.8C11857.7,9550.5,12190.6,9547.2,12316.7,9538.7 M11494.6,10142.5
		c-33.3,35.2-68.5,120.2-105.1,181.7c-19.5,32.9-55.7,75.3-79.6,92.3c-84,61.8-155.2,64.7-236.4-6.7
		c-113.8-100.6-179.6-256.3-184.2-407.7c-2.4-66.1,8.9-139.2-3.6-194.9c-20.7-94-114.8-190.9-165.5-280.8
		c-59.6-105.9-107.8-290.6-113.8-409.8c-20.4-371.8,175.5-714.2,430.1-984.3c256.4-273.1,591.8-500.1,956.5-654.7
		c344.8-145.2,850.1-244.2,1228.7-113.1c123.3,42.2,295,147.1,381.3,257c18.3,22.8,33.3,47.5,52.1,59.5c16.8,10.7,60.9,15,95.9,21.4
		c120.8,20.9,294.6,112.4,365.7,173.3c142.7,123.1,220.9,240.8,257,411.5c72.5,343.6-125.3,720.6-350.7,950
		c-385.9,394.9-767,672.5-1260.7,865.8c-216.8,84.7-554.5,163.8-800.5,141.7c-76.4-6.3-154.9-26.5-229.3-31.4
		c-38-3.3-176.8-39.1-191.6-49.2C11522.5,10150,11498.7,10137.7,11494.6,10142.5 M11935.5,10904.3c15,2.5,38.2,9.3,58.1,16.9
		c173.1,65.8,244.3,226,286.9,401.9c98.8,408.5,141,1312.3,157.4,1666.1c12.1,265.5,18.7,526.8,29.8,789.2
		c9.4,222.3,27.2,517.8-19.2,726c-16.8,74.9-66.9,162-138.7,206.6c-82.2,52.6-269.2,56.6-372,35.4
		c-253.4-52.4-335.7-215.3-371.9-465.9c-86-598-44.6-1771.5,6.2-2266.7c16.9-163.6,78.5-687.6,163.9-907.4
		C11765.2,11032.4,11827.3,10883.2,11935.5,10904.3 M4226.7,11899.2c0,0-377.1,26.7-636.7,55.5
		c-330.2,35.6-950.7,142.7-1308.9,270.6c-107.4,38.5-325.7,129.8-344.6,240.3c-19.9,114.5,51.1,204,130.2,296.7
		c45.7,53.8,304.4,302.6,376.9,363.1c304,253.8,920.5,645.3,1374.6,835.4c156,64.5,414.1,156.9,414.1,156.9s-19.2-734.8-15.7-1458.6
		C4218.4,12277.3,4226.7,11899.2,4226.7,11899.2 M11141.8,12191.7c21.6,197.4-29.1,570.6-37.9,619.9
		c-16.1,113.5-101.6,375.2-115.8,407.1c-69.1,159.1-137.2,289.4-209.3,419.4c-123.7,222.6-417.7,575.4-592.3,726.4
		c-649.2,561.1-1654.1,880.6-2516.2,985.8c-585,70.7-1257.2,60.3-1877.1-54.4c-213.3-38.8-530.8-112-530.8-112s1,126.9-9.1,216.2
		c-4.9,40.7-35.6,147.9-52.8,182.7c-45.1,93.1-119.1,141.1-226.7,161.8c-129.9,24.1-267.6,32.1-387.6-19.2
		c-197-82.9-267.8-267.2-302.1-479.8c-27.8-170-56.8-465.6-56.8-465.6s-147.4-69.8-270.3-131.1c-377.5-186-736-411.4-1049.7-643.1
		c-86.9-64.9-460.2-377.5-542.6-455.2c-231.1-219.4-438.9-437.6-597.1-717.6c-122.9-218.8-158.3-412.9-64.8-644.7
		c128.9-323.1,592.2-566.4,909.2-705c232.7-102.7,956.3-339,1256.8-382.8c142-20.3,362.2-59.7,375.7-68.5c5.5-4.2,9.4-7.8,13.4-12.4
		c6.9-9.8,18.6-329.6,16.4-446.6c-2.9-115,85.1-870.6,113.4-1030.3c14.8-86.4,80.2-419,147-506.3c43.7-59,121-54.2,184-15.5
		c344.7,214.4,449.5,957.8,475.1,1336.1c15.3,230.5,23,577.1,23,577.1s395.5-11.7,638.7-4.8c236.4,5.5,497,42.8,742.3,81.9
		c314.1,50.4,926.4,183.9,1277.6,362c289.2,146.6,559.8,393.6,647.5,655c81.5,239.6,69.3,405.5-54.8,621.7
		c-139.5,244.2-403.5,425.7-671.1,440.9c-79.6,4.6-379.4-35.2-471.6-106.6c-36.2-28.5-34.3-79.8-8.2-114.7
		c9.9-12.2,150-86.7,232.7-130.2c39.1-20.9,75.4-46.5,108.1-76.3c68.7-60.5,130.5-127.1,123.6-205.2
		c-9.5-101.3-116.7-163.8-218.9-204c-479.5-190.5-1437-348.6-1899.6-376c-181.1-10.6-438.7-19.7-438.7-19.7l54.5,2554.9
		c0,0,213,40.6,380.8,67.8c96.3,14.6,504.3,51.3,612.8,54c825.6,21.8,1747.1-52.1,2504.7-409.7c332.6-156.5,637.8-351.4,868.8-615.3
		c304.5-349.1,464-826.9,421.8-1325.9c-46.3-545-429.8-1192-736.1-1585.9c-809.3-1040.8-2196.5-1896.9-3417-2398.8
		c-1246-512.1-2477.5-806.7-3799.8-856c-340.9-12.6-1084.2,4.6-1459.9,108.5c-53.7,15.1-107.8,33.2-157.6,44.4
		c-39.4,9.6-101.4,35.7-118.4,49.5c-6.7,5.6-12.9,11.7-18.8,18.2c0,0,23.2,12.8,45.3,22.2c39.8,17.4,207.3,27.8,294,43.6
		c77.6,14.6,158.3,55.3,190.3,112.2c30.4,54,34.2,96.6-2.1,141.7c-85.1,103.5-405.6,86.1-546.7,63.7
		c-146.6-23.4-329.2-68.2-362.7-195.9c-38.9-150.4,32.5-297.8,109.7-434c155-272.6,377.1-414.4,702.3-503.2
		c461.9-127.1,1045.1-216,1481.3-232.6c987.2-37.3,1921.5,135.3,2878,425.7c547.4,165.5,1264.1,443.3,1788.8,695.9
		c376.5,181.5,969.7,515.4,1302.9,733.5c105.1,69.4,720.1,521.3,815.7,600.7c199.3,162.9,460,397.1,648.7,584.4
		c365.2,361.9,819.4,916.6,1040.1,1356.9c53.1,105.4,94.2,209.2,162.7,331.4c23.6,41.9,124.4,292.3,141.1,364.6
		c16.6,71.6,40.9,176.8,44.4,180.9C11098.7,11893.6,11145.5,12108.7,11141.8,12191.7 M23552.6,11626.8
		c-462.3,106.6-1678,165.8-1678,165.8l-153.3,480.2c0,0,607.5-51.9,1049.5-5.7c0,0,143.2-16.6,160,162.6
		c5.7,167.1-14.2,346.5-14.2,346.5s-9.2,108.5-162.9,136.1c-166.6,27.8-1309.5,72-1309.5,72l-185.1,625.9c0,0-68.8,144.7,85.4,103.4
		c143.2-38.3,1340.7-263,1496.6-230.7c167.1,41.5,352.1,264.3,298.6,467.4c-63.7,251.7-1258.9,1013.9-1986.7,960.7
		c0,0-382.5,24.7-705.7-491.5c-301.1-491.9,114.1-1423.2,114.1-1423.2s-190.3-434.8-52.4-582.1c0,0,82.1-74.5,321.3-91.3l292.9-606
		c0,0-333.7,23-532.2-222.5c-184.9-232.9-200.4-339.9-58.6-404.2c151.6-74.9,1541.1-328.5,2497.3-296.3c0,0,332.3-32.6,620.5,543.8
		C23650.3,11337.6,23789.9,11570.7,23552.6,11626.8 M19956.2,13957c-122.5,288.2-446.2,595.8-848.4,404.6
		c-397-191.6-1029.3-1485.7-1029.3-1485.7s-240-482.6-286.2-470.1c0,0-51.9-94.2-83.7,433.1c-33.1,525.1,6.4,1549-203.1,1710.2
		c-198.4,161.6-438.7,97.3-563.3-91.5c-113.3-186-160.4-628-98.6-1404.2c72.6-777.7,253.3-1605.2,484.1-1862.9
		c230.5-255.9,415.6-70.1,487.7-2.7c0,0,308.3,279.5,816.8,1100.1l89.7,151.8c0,0,462.1,775.3,510.3,773.5c0,0,37.8,35.6,71.4,10
		c48.5-13.9,28.9-262.5,28.9-262.5s-95.9-844.9-517.4-2275.1c0,0-63.7-178.3-20.6-345.4c42.8-168.9,212.1-89.6,212.1-89.6
		s653.3,328.5,970.5,1392.2C20292.3,12706.8,20080.6,13666.6,19956.2,13957 M26987.7,13319.9
		c-297.4,518.9-1137,1605.4-2252.8,1348.9c-368.5,893.5-678,1797.4-855,3150c0,0-38.9,262.8-257.3,171.5
		c-216.5-75.8-573-435.7-645.2-933.6c-77.6-654,213.6-1759.7,808.7-3027.4c-173.6-282.2-291.9-685.3-190.6-1259.3
		c0,0,149.5-1066,1220-2026.7c0,0,128.3-110.8,202.7-76.7c82,34.4,44,381.2-21,549.9c-67.6,167.7-544.2,992.8-544.2,992.8
		s-297.3,557.4-213.6,997.1c561.5-863.2,1837.8-2604,2628.9-2055c265.7,190.1,388.2,603.7,388.2,1049.3
		C27256.7,12592.1,27162.3,13008.1,26987.7,13319.9 M26756.8,11952.8c0,0-44-343.2-379.6,34.9
		c-288.6,319.1-809.1,916.9-1228.2,1728.8c439.7-49.4,863.7-287.9,992-409.4C26349.5,13122.1,26835.2,12620.3,26756.8,11952.8
		 M33134.4,11874.6h-2044.9c-40.8-695-124.7-1372.1-256.6-2069.3c-13.4-72-76.2-124.3-149.4-124.5H30212
		c-41.3,0.1-80.3,18.7-106.5,50.6c-26.4,32.1-37.2,74.2-29.3,115c134,674.7,218.8,1338.8,260.7,2028.9h-1967.4
		c-91.7,0-166.1,74.2-166.1,165.5v425.2c0.1,91.7,74.4,166.1,166.1,166.3h1995.5c1.3,104.9,2.3,198.9,2.3,287.1
		c0,612.8-26.4,1117.6-88.2,1687.3c-4.9,43.9,9.5,87.7,39.4,120.2c28.9,32.5,70.4,51.1,113.9,51.1h437.2
		c85.1,0.1,156.4-64.4,164.6-149.2c59.7-573.5,85.3-1084.6,85.3-1709.4c0-87.8-0.9-182.1-2.2-287.1h2017
		c91.4,0,166.1-74.8,166.1-166.3v-425.2C33300.4,11949.1,33226.1,11874.8,33134.4,11874.6"/>
	<path d="M5790.9,6176.9c-28.9,42.8-36.1,96.7-19.3,145.5c16.8,48.9,55.1,87.3,103.9,104.3l366.6,123.4
		c21.3,6.8,43.5,10.4,65.8,10.6c68,0.1,131.5-33.7,169.5-90.1c1200.7-1764,2825.8-3232.7,4699.8-4247.3
		c1934.7-1047.7,4126.6-1601.8,6339.6-1601.8c2672.9,0,5251.9,788.5,7458.4,2280C27128,4356.2,28800,6386,29810.4,8771.4
		c30,71.2,99.9,117.5,177.2,117.4h437.8c50.7-0.2,98.1-25.5,126.4-67.6c28.6-42.1,34.2-95.7,15-142.8
		c-1041.9-2564.8-2803.7-4751.1-5095.6-6321.9C23124.9,748.5,20374.3-101.7,17516.7-101.7
		C12792.7-101.7,8409.1,2245.5,5790.9,6176.9"/>
</g>
</svg>
