<?xml version="1.0" encoding="utf-8"?>
<!-- Generator: Adobe Illustrator 27.9.0, SVG Export Plug-In . SVG Version: 6.00 Build 0)  -->
<svg version="1.1" id="Layer_1" xmlns="http://www.w3.org/2000/svg" xmlns:xlink="http://www.w3.org/1999/xlink" x="0px" y="0px"
	 viewBox="0 0 216 71.2" style="enable-background:new 0 0 216 71.2;" xml:space="preserve">
<style type="text/css">
	.st0{fill:#231F20;}
</style>
<g>
	<path class="st0" d="M102.1,22.2c0,0,0,27.8,0,28.7c0,2.5-2.1,4.6-4.6,4.6h-10c-2.5,0-4.6-2.1-4.6-4.6c0-1,0-28.7,0-28.7H65.7v30.1
		c0,12.3,7.9,18.8,19.5,18.8h14.4c11.7,0,19.5-6.5,19.5-18.8V22.2H102.1z"/>
	<path class="st0" d="M198.9,22.2c0,0,0,27.8,0,28.7c0,2.5-2.1,4.6-4.6,4.6h-10c-2.5,0-4.6-2.1-4.6-4.6c0-1,0-28.7,0-28.7h-17.2
		v30.1c0,12.3,7.9,18.8,19.5,18.8h14.4c11.6,0,19.5-6.5,19.5-18.8V22.2H198.9z"/>
	<path class="st0" d="M34,22.2c0,0-8.9,0-11,0c-3.9,0-5.8,1-5.8,1V0H0v71.2h17.1V42.4c0-2.5,2.1-4.6,4.6-4.6h10
		c2.5,0,4.6,2.1,4.6,4.6v28.7h17.2V40.2C53.5,27.2,44.8,22.2,34,22.2z"/>
	<rect x="132.3" class="st0" width="17.2" height="71.2"/>
</g>
</svg>
