<?xml version="1.0" encoding="utf-8"?>
<!-- Generator: Adobe Illustrator 27.9.0, SVG Export Plug-In . SVG Version: 6.00 Build 0)  -->
<svg version="1.1" id="Layer_1" xmlns="http://www.w3.org/2000/svg" xmlns:xlink="http://www.w3.org/1999/xlink" x="0px" y="0px"
	 viewBox="0 0 440.8 800" style="enable-background:new 0 0 440.8 800;" xml:space="preserve">
<path d="M0,0l158.4,448.7v-0.2l12.5,35.3c69.6,197,107,302.6,107.2,302.8c0.2,0.2,10.7,0.7,23.3,1.3c38.5,1.7,86.3,6,122.6,10.3
	c4.1,0.7,8.7,1,13.5,1c0.9,0,1.8,0,2.7,0H440L283,353.9l-14.5-41L187.7,84.5c-15.3-43.3-28.3-80.3-29-81.7l-1-2.8H0.2L0,0z"/>
<path d="M283.7,0.4l-0.3,176.9l-0.3,176.9l-14.6-41.1l-18.9,393.7c18.5,52.2,28.4,80,28.5,80.2s10.7,0.8,23.3,1.4
	c38.6,1.7,86.3,6,122.7,10.3c4.1,0.7,8.7,1,13.5,1c0.9,0,1.8,0,2.6,0h-0.1c0.4-0.3,0.7-180.7,0.6-400.4l-0.3-399L283.7,0.4
	L283.7,0.4z M0,0v399.7c0,219.8,0.2,399.9,0.5,400.1c0.3,0.2,13.9-1,30.2-2.9c16.4-1.9,39-4.3,50.3-5.3c17.3-1.7,68.9-5,74.9-5
	c1.7,0,1.9-9,2.1-169.4l0.3-169.4l12.7,35.3l4.3,12.5l19-393.4L188,84.1L157.7,0L0,0L0,0z"/>
</svg>
