<?xml version="1.0" encoding="utf-8"?>
<!-- Generator: Adobe Illustrator 27.9.0, SVG Export Plug-In . SVG Version: 6.00 Build 0)  -->
<svg version="1.1" id="Layer_1" xmlns="http://www.w3.org/2000/svg" xmlns:xlink="http://www.w3.org/1999/xlink" x="0px" y="0px"
	 viewBox="0 0 1000 622.2" style="enable-background:new 0 0 1000 622.2;" xml:space="preserve">
<style type="text/css">
	.st0{fill:#231F20;}
</style>
<path class="st0" d="M445.5,319.9c-2.5-1-6.5-5.5,0.2-18.1l15.6-32.6c0.5-1-0.7-2.2-1.4-1.4l-13.6,13.7
	c-6.4,6.7-17.4,25.6-19.5,29.1L410.2,338c1.2,0,2.3,0.9,2.3,2.2c0,0.4-0.1,0.8-0.3,1.2l-15.1,25.4c-3.7,6.3,2.9,10.7,3.8,9.3
	c23.8-38.3,37.6-35.2,37.6-35.2l7.9-18.4c0.4-0.9,0-2-0.9-2.4C445.6,320,445.5,320,445.5,319.9z M499.5,0
	C363.6,0,253.4,110.1,253.4,246c-0.1,52.6,16.8,103.8,48.1,146.1c10.3-4.5,16.1-11.1,20.2-16.2l45.8-58.6c1-1.2,2.2-2.2,3.7-2.8
	l6.9-3l75.3-95.5l10.9-8.5l22.5-31.2c0.6-0.8,1.3-1.5,2.1-2.1l9.8-7.1c2.4-1.8,5.7-1.8,8.1-0.1l11.9,8.3
	c6.3,4.4,11.4,10.3,14.9,17.2l47.6,83.6c0.8,1.6,2.1,2.9,3.7,3.6c9.3,4.6,15,5.5,27.3,18.7c5.7,6.2,30.7,34.1,65.7,77.5
	c5.1,7,11.9,12.5,19.8,16c31.2-42.2,48-93.4,48-145.9C745.6,110.1,635.5,0,499.5,0z M319.8,259.5l-16-5.2l-9.9,13.6v-16.8l-16-5.2
	l16-5.2V224l9.9,13.6l16-5.2l-9.9,13.6L319.8,259.5z M316,314.4l-5.2,15.9l-5.2-15.9h-16.8l13.6-9.9l-5.2-15.9l13.6,9.9l13.6-9.9
	l-5.2,15.9l13.6,9.9H316z M319.2,187.4l5.2,15.9l-13.6-9.9l-13.6,9.9l5.2-15.9l-13.6-9.9h16.8l5.2-15.9l5.2,15.9h16.8L319.2,187.4z
	 M346.2,151.4l-9.9-13.6l-16,5.2l9.9-13.6l-9.9-13.6l16,5.2l9.9-13.6v16.8l16,5.2l-16,5.2L346.2,151.4L346.2,151.4z M388.1,92.7
	l-5.2,15.9l-5.2-15.9H361l13.6-9.9l-5.2-15.9l13.6,9.9l13.6-9.9l-5.2,16l13.6,9.9L388.1,92.7L388.1,92.7L388.1,92.7z M440.9,65.8
	l-9.9,13.6V62.6l-16-5.2l16-5.2V35.4l9.9,13.6l16-5.2L447,57.4l9.9,13.6L440.9,65.8z M507.9,50.4l5.2,15.9l-13.6-9.9L486,66.3
	l5.2-15.9l-13.6-9.9h16.8l5.2-15.9l5.2,15.9h16.8L507.9,50.4z M568,62.6v16.8l-9.9-13.6l-16,5.2l9.9-13.6l-9.9-13.6l16,5.2l9.9-13.6
	v16.8l16,5.2L568,62.6z M679.3,232.4l16,5.2l9.9-13.6v16.8l16,5.2l-16,5.2v16.8l-9.9-13.6l-16,5.2l9.9-13.6L679.3,232.4z
	 M616.2,108.6L611,92.7h-16.8l13.6-9.9l-5.2-15.9l13.6,9.9l13.6-9.9l-5.2,15.9l13.6,9.9h-16.8L616.2,108.6z M652.9,151.4v-16.8
	l-16-5.2l16-5.2v-16.8l9.9,13.6l16-5.2l-9.9,13.6l9.9,13.6l-16-5.2L652.9,151.4z M683,177.6l5.2-15.9l5.2,15.9h16.8l-13.6,9.9
	l5.2,15.9l-13.6-9.9l-13.6,9.9l5.2-15.9l-13.6-9.9C666.3,177.6,683,177.6,683,177.6z M693.4,314.4l-5.2,15.9l-5.2-15.9h-16.8
	l13.6-9.9l-5.2-15.9l13.6,9.9l13.6-9.9l-5.2,15.9l13.6,9.9H693.4z M588.7,388.1c1.2-1.7,3.1-6.4-0.5-15.2l-10.9-29.3
	c-1.5-3.7,1.8-6,3.9-3.5c0,0,20.6,23.7,25.9,33.6l10.1,16.8c8.7,0.6,32.8,1.2,56,1.2c-2.3-2.3-4.5-4.8-6.5-7.5
	c-39.6-49.1-64.7-76.3-64.9-76.6c-8-8.7-11.7-10.4-17.8-13.2c-0.9-0.4-1.8-0.8-2.8-1.3v7.4c0.1,0.5-0.3,1-0.8,1
	c-0.4,0-0.8-0.2-1-0.6L521.3,199l-0.2-0.3c-2.4-4.8-6-9-10.4-12.1l-5.7-4l-27.8,64c3.3,0,6,2.7,6,6c0,0.8-0.2,1.6-0.5,2.4
	l-25.7,59.3h23.5c9.1,0,18.1,1.8,26.5,5.2l6.2,2.5c0,0-18.7,38.5-18.7,58.8c0,3.7,0.5,7.4,1.5,10.9h43.2l-2-12.2
	C554.3,383.5,571.4,386.3,588.7,388.1L588.7,388.1L588.7,388.1z M255.6,450.5c0-39.6-42-58.7-91.9-58.7
	c-53.4,0-102.4,23.7-120.4,60.3c-5,9.8-7.5,20.6-7.5,31.5c-0.2,9.5,2.4,18.8,7.5,26.8C51,521.9,64.8,529,85,529
	c24.8,0,44.4-13.6,44.4-37.2c0,0,0.4-6.6-7.3-6.6c-6.2,0-7.9,4.4-7.7,6.6c0.9,18.5-10.1,33.4-29.7,33.4c-22,0-31.2-18.7-31.2-38.7
	c0-40.9,30.8-68,62.9-79.8c15-5.7,30.9-8.5,47-8.3c36.3,0,66.1,13.9,66.1,51.4c0,31.2-26.2,57.8-57.6,60.2l1.3-4.2
	c6.4-22.9,14.3-48.1,27.2-66.6c0.7-1.1,2-2.9,3.5-4.8l-1.8-2.2c-2.7,1.7-5.4,3.5-7.9,5.5c-60.2,47-62,179-142.2,179
	c-2.8,0-5.5-0.2-8.3-0.6C26.8,613.4,18,602.2,18,586.6c0-3.1,1.1-7.3,1.1-9.7c0.1-4.4-3.4-8.1-7.8-8.3c0,0-0.1,0-0.1,0h-0.9
	c-7.2,0-10.1,5.7-10.3,13.8c-0.5,23.3,16.7,36.9,43.3,39.4c2.9,0.2,5.9,0.4,9,0.4c62.6,0,100.9-47.3,117.3-104.7
	c8.3-1,16.4-2.7,24.4-5.1C223,504.3,255.6,484.8,255.6,450.5z M851.7,464.3h-22l-4.9,11.6l-8.6,19.4h-10.3l-3.1,6.6h10.7l-12.9,28.4
	c-9.2,20-23.5,39.6-31.7,39.6c-1.8,0-2.9-0.7-2.9-2.6c0-1.8,0.5-3.5,2.6-8.6c2.6-6.1,6.8-14.9,9.9-21.3c4.6-9.4,11.9-23.8,11.9-31
	c0-7.2-4.6-12.8-13.6-12.8c-10.1,0-19.3,6.1-27.7,14.9l5.5-13.2h-20.7l-16.9,38.5c-6.8,13.6-20.6,36.1-29.2,36.1
	c-1.8,0-2.6-1.1-2.6-2.9c0.2-1.6,0.6-3.3,1.3-4.8c0.7-1.7,10.8-25.3,10.8-25.3l18.4-42h-22.4l-17.8,40.9
	c-5.5,12.7-19.4,34.1-28.4,34.1c-1.6,0.2-3-1-3.1-2.6c0,0,0,0,0,0v-0.7c0-2.2,1.7-6.2,2.9-9.2l9.4-20.5l19.3-42h-22.2l-4.4,9.5
	c-3.3,6.4-8.8,13.9-17.6,13.9c-4.2,0-6.2-1.6-7.2-3.3c-1.3-14.1-10.3-21.6-23.5-21.6c-18.4,0-31.4,10.8-40,24
	c-5.7,9.1-10.1,18.9-13.2,29.2c-7.9,13-16.1,23.1-22.8,23.1c-1.7,0-2.8-0.9-2.8-3.1c0-2.2,2.2-7.2,2.9-9l14.5-30.8
	c4-9.5,6.8-15.8,6.8-22c0-6.6-4.6-11.4-12.1-11.4c-10.5,0-21.8,6.1-30.8,16c0.3-1.6,0.4-3.2,0.4-4.8c0-7.3-3.7-11.2-11.2-11.2
	c-9.5,0-19.4,5.7-28.4,16l5.9-14.3h-20.2l-17.1,38.5c-8.1,18.2-21.1,36.1-28.4,36.1c-1.6,0-2.8-0.9-2.8-3.1c0-3.5,3.9-12.1,5.3-15.6
	l22.6-51.2c1.7-3.9-9.2-6.2-22.9-6.2c-14.1,0-28.6,7-39.3,16c-7.5,6.2-13,9.4-15.8,9.4c-0.9,0.2-1.8-0.4-2-1.3c0-0.1,0-0.2,0-0.4
	c0-3.1,7.5-11.9,7.5-18.7c0-3.1-1.6-5.1-5.9-5.1c-8.1,0-17.6,7.7-24.6,15.8l5.9-14.1h-19.8l-17.1,38.5
	c-8.1,18.2-21.5,37.1-28.8,37.1c-1.7,0-2.7-0.9-2.7-3.1c0-3.5,3.7-11.9,5.7-16.3l22.6-51.4c1.7-3.9-9.2-6.2-22.9-6.2
	c-20.4,0-40.2,13.8-50.6,27.9c-11.6,15.2-19.4,31.4-19.6,44.6c-0.2,10.6,5.3,17.2,16.3,17.2c12.3,0,22.2-9.7,27.9-17.1
	c-0.3,1.5-0.6,2.9-0.7,4.4c0,7.3,2.9,12.7,11.9,12.7c7.9,0,18.4-6.6,26.8-17.1l-6.8,15.6h21.5l21.1-47.9c7-15.6,14.9-23.7,17.1-23.7
	c0.5-0.1,1,0.2,1.1,0.7c0,0.1,0,0.1,0,0.2c0,1.7-3.3,6.1-3.3,10.1c0,4,2.2,7.2,8.1,7.2c4.6,0,9.7-2.2,14.3-5.1
	c-10.8,14.7-18.2,30.1-18.2,42.7c-0.2,10.6,5.3,17.2,16.3,17.2c11.6,0,22.4-11,28.3-18.3c-0.2,1.7-0.3,3.4-0.4,5.1
	c0,7.2,4,13.2,12.3,13.2c9.2,0,16.5-5.7,25.7-16.9l-6.8,15.4h22l20.2-45.7c8.8-19.8,20.7-30.5,26.6-30.5c1.5-0.2,2.8,0.9,2.9,2.4
	c0,0,0,0,0,0v0.5c-0.2,2.2-0.9,4.4-1.8,6.4L452,582h22.6l20.6-46.6c8.8-20,18.5-29.7,25.9-29.7c2.2,0,3.1,1.1,3.1,3.5
	c-0.2,2.6-0.9,5-2,7.3l-19.8,42.2c-1.8,4.1-2.9,8.4-3.3,12.8c0,6.4,3.5,12.1,13.4,12.1c12.9,0,22.6-9.7,33.6-24.2v3.1
	c0.9,11.6,7.3,21.6,24.4,21.6c20.2,0,36.5-13.9,46.4-36.1c3.7-7.8,6.2-16.2,7.2-24.8c2.2,1.1,4.7,1.6,7.2,1.5c3.3,0,6.6-0.8,9.5-2.4
	l-3.5,7.5c-4,8.4-8.5,17.8-11.9,25.7c-2.2,4.7-3.5,9.7-3.9,14.8c0,7.9,4.4,13.6,13.4,13.6s21.3-8.4,30.1-20.4h0.2
	c-0.6,2.5-0.9,5-0.9,7.5c0,6.6,2,12.8,11.2,12.8c10.7,0,18.9-7.7,27-17.4l-6.8,15.4h22.2l17.8-40.4c10.1-22.7,20.2-36.5,29.5-36.5
	c1.6-0.1,3,1.1,3.1,2.8v0.5c0,3.9-5.5,14.3-10.5,24.8c-4.6,9.5-8.1,16.9-10.5,22.6c-2.2,4.8-3.5,10-3.9,15.2c0,7,3.9,12.3,12.5,12.3
	c12.8,0,25.9-12.5,32.8-21.8c-1.6,4.5-2.4,9.2-2.6,13.9c0,12.8,7.7,19.3,18.5,19.3c7.2-0.1,14.2-2.4,20-6.6
	c8.4-5.9,15.2-14.7,20.9-22.7l-3.9-3.7c-5.3,7.5-11.2,14.7-17.3,19.1c-3.2,2.7-7.2,4.2-11.4,4.4c-4.6,0-7.5-2.4-7.5-8.3
	c0-5.9,2.7-13.8,7-24.4c0.2-0.2,6.2-13.8,11.9-26.8c4.8-11,9.5-21.6,10.5-23.8h14.5l2.9-6.6h-14.3L851.7,464.3z M225.7,570.1
	c-3.1,0-5.3-1.1-5.3-5.1c0.2-10.8,9.2-30.1,20.4-45.5c7.9-10.6,18.2-18.5,29.2-18.5L256,532.2C245.5,555.6,234.2,570.1,225.7,570.1z
	 M363,570.1c-3.1,0-5.3-1.1-5.5-5.1c0.2-10.8,9.2-30.1,20.4-45.5C385.7,508.9,396,501,407,501l-14,31.2
	C382.4,556.2,371.6,570.1,363,570.1L363,570.1L363,570.1z M606.7,509.4c-0.5,11.9-11,40.7-23.3,58c-4.9,7-9.2,9-12.8,9
	c-5.1,0-6.6-4.2-5.9-10.5c1.1-10.8,10.1-36.1,22.6-53.6c5.7-7.9,9.5-11.2,13.9-11.2C605.6,501.2,606.9,504.8,606.7,509.4z
	 M949.2,495.3l20.2-46.6h-23.9l-20.2,46.6h-50.8l-8.5,19.6h50.9l-20.2,46.6h23.9l20.2-46.6h50.8l8.5-19.6H949.2z"/>
</svg>
