<?xml version="1.0" encoding="utf-8"?>
<!-- Generator: Adobe Illustrator 27.9.0, SVG Export Plug-In . SVG Version: 6.00 Build 0)  -->
<svg version="1.1"
	 id="Layer_1" xmlns:svg="http://www.w3.org/2000/svg" xmlns:inkscape="http://www.inkscape.org/namespaces/inkscape" xmlns:sodipodi="http://sodipodi.sourceforge.net/DTD/sodipodi-0.dtd" xmlns:rdf="http://www.w3.org/1999/02/22-rdf-syntax-ns#" xmlns:cc="http://creativecommons.org/ns#" xmlns:dc="http://purl.org/dc/elements/1.1/" inkscape:version="1.0.2 (e86c870879, 2021-01-15)"
	 xmlns="http://www.w3.org/2000/svg" xmlns:xlink="http://www.w3.org/1999/xlink" x="0px" y="0px" viewBox="0 0 1000 285.5"
	 style="enable-background:new 0 0 1000 285.5;" xml:space="preserve">
<style type="text/css">
	.st0{fill:#231F20;}
</style>
<sodipodi:namedview  bordercolor="#666666" borderopacity="1" gridtolerance="10" guidetolerance="10" id="namedview13" inkscape:current-layer="Layer_1" inkscape:cx="556.62375" inkscape:cy="155.43248" inkscape:document-rotation="0" inkscape:pageopacity="0" inkscape:pageshadow="2" inkscape:window-height="705" inkscape:window-maximized="1" inkscape:window-width="1366" inkscape:window-x="-8" inkscape:window-y="-8" inkscape:zoom="1" objecttolerance="10" pagecolor="#ffffff" showgrid="false">
	</sodipodi:namedview>
<g id="text874" transform="matrix(0.59343609,0,0,0.52120939,13.347199,-3.2856471)">
</g>
<g id="g101">
	<path id="path935" inkscape:connector-curvature="0" class="st0" d="M878.8,131V61.3h48.6V131h72.7v46.5h-72.7v69.6h-48.6v-69.6
		h-72.9V131H878.8z"/>
	<path id="path11" class="st0" d="M661.9,80.3h30.6c18.4,0,30.2,9.5,30.2,26.1c0,18.1-11.8,29.8-30.2,29.8h-30.6V80.3z M714.5,172.6
		c31.6-4.1,57.8-31.3,57.8-65.9c0-44.9-30.6-69.5-79.8-69.5H613v225.9h48.9v-90.6l60.7,90.5h56.7L714.5,172.6z"/>
	<polygon id="polygon13" class="st0" points="319,81.8 319,37.3 170,37.3 170,81.8 219.6,81.8 219.6,263.1 269.3,263.1 269.3,81.8 	
		"/>
	<path id="path15" class="st0" d="M78,120.4c-14.7-6.6-20.3-14-20.3-23.5c0-11.1,9.2-20.3,23.9-19.9c12.9,0.3,22.8,7.3,29.8,23.9
		l42.3-18.8C142.1,52,118.2,34.4,79.6,34.4c-40.8,0-71,26.9-71,62.9c0,24.6,12.2,44.1,40.8,58.5l31.6,15.8
		c17.6,8.9,26.1,15.4,26.1,28.3c0,14-11.4,23.9-26.1,23.9c-15.8,0-30.2-8.9-36.8-28.7L0,208c10.3,37.2,40.8,58.9,80.6,58.9
		c43,0,76.1-27.6,76.1-67.3c0-30.6-16.5-50.8-48.2-65.1L78,120.4z"/>
	<path id="path3144-6" inkscape:connector-curvature="0" class="st0" d="M599.7,109H485.1L449.6,0l-35.5,109H299.5l92,67.5
		c0,0,45-29.6,99.4-40.8c-80.4,59.3-124,118.2-124,118.2l0,0l0,0l-10.1,31.6l92.7-67.3l92.7,67.3l-35.4-109L599.7,109z"/>
</g>
</svg>
