<?xml version="1.0" encoding="utf-8"?>
<!-- Generator: Adobe Illustrator 27.9.0, SVG Export Plug-In . SVG Version: 6.00 Build 0)  -->
<svg version="1.1" id="Layer_1" xmlns="http://www.w3.org/2000/svg" xmlns:xlink="http://www.w3.org/1999/xlink" x="0px" y="0px"
	 viewBox="0 0 749.8 528.6" style="enable-background:new 0 0 749.8 528.6;" xml:space="preserve">
<path d="M298.2,375.8V152.9l196,111.5L298.2,375.8z M734.1,82.7c-8.9-32.5-33.9-57.7-65.6-66.6l-0.7-0.2C587.9,5.8,495.6,0,401.9,0
	c-9.5,0-19,0-28.5,0.2l1.5,0c-8-0.1-17.5-0.2-27.1-0.2C254.1,0,161.8,5.8,71.1,17l10.8-1.1C49.5,25,24.5,50.1,15.8,82l-0.2,0.7
	C5.7,135.4,0,196,0,258c0,2.2,0,4.4,0,6.6v-0.4c0,1.8,0,4.1,0,6.2c0,62,5.7,122.6,16.7,181.5l-1-6.1c8.8,32.5,33.9,57.7,65.6,66.6
	l0.7,0.2c79.8,10.1,172.1,16,265.8,16c9.5,0,19-0.1,28.5-0.2l-1.5,0c8,0.1,17.5,0.2,27.1,0.2c93.7,0,186.1-5.8,276.7-17l-10.8,1.1
	c32.5-9,57.5-34.2,66.1-66.1l0.2-0.6c10-52.7,15.7-113.4,15.7-175.4c0-2.2,0-4.4,0-6.6v0.3c0-1.9,0-4,0-6.2
	c0-62-5.7-122.6-16.7-181.5L734.1,82.7L734.1,82.7z"/>
</svg>
