<svg width="31" height="32" viewBox="0 0 31 32" fill="none" xmlns="http://www.w3.org/2000/svg">
<path d="M30.7332 16C30.7332 24.3457 23.9677 31.1111 15.6221 31.1111C7.27646 31.1111 0.510986 24.3457 0.510986 16C0.510986 7.65439 7.27646 0.888916 15.6221 0.888916C23.9677 0.888916 30.7332 7.65439 30.7332 16Z" fill="#6EA644"/>
<path d="M15.9999 6.93336L28.4665 16L15.9999 25.0667L3.53321 16L15.9999 6.93336Z" fill="#FFDB44"/>
<path d="M21.2888 16C21.2888 18.921 18.9208 21.2889 15.9999 21.2889C13.0789 21.2889 10.711 18.921 10.711 16C10.711 13.0791 13.0789 10.7111 15.9999 10.7111C18.9208 10.7111 21.2888 13.0791 21.2888 16Z" fill="#0051B5"/>
<path d="M11.22 13.7334C10.8936 14.4204 10.711 15.1889 10.711 16C16.151 15.0934 19.3055 17.763 20.2027 19.2111C20.7393 18.5099 21.1043 17.6705 21.2352 16.7556C18.213 13.7334 13.2991 13.4815 11.22 13.7334Z" fill="white"/>
</svg>
