<?xml version="1.0" encoding="utf-8"?>
<!-- Generator: Adobe Illustrator 27.9.0, SVG Export Plug-In . SVG Version: 6.00 Build 0)  -->
<svg version="1.1" id="Layer_1" xmlns="http://www.w3.org/2000/svg" xmlns:xlink="http://www.w3.org/1999/xlink" x="0px" y="0px"
	 viewBox="0 0 344.8 400.1" style="enable-background:new 0 0 344.8 400.1;" xml:space="preserve">
<style type="text/css">
	.st0{fill:#231F20;}
</style>
<path class="st0" d="M31.3,0C8.4,0,0,8.4,0,31.3v276.1c0,2.6,0.1,5,0.3,7.2c0.5,5,0.6,9.9,5.3,15.4c0.5,0.6,5.2,4.1,5.2,4.1
	c2.5,1.2,4.3,2.1,7.2,3.4l138.9,58.2c7.2,3.3,10.2,4.6,15.5,4.5h0.1c5.3,0.2,8.3-1.2,15.5-4.5l138.9-58.2c2.9-1.2,4.6-2,7.2-3.4
	c0,0,4.8-3.5,5.2-4.1c4.7-5.5,4.7-10.3,5.3-15.4c0.2-2.2,0.3-4.6,0.3-7.2V31.2c0-22.9-8.4-31.2-31.3-31.2H31.3z M254,51.8h11.3
	c18.9,0,28.1,9.2,28.1,28.3v31.3h-22.9V81.3c0-6.1-2.8-9-8.8-9h-3.9c-6.1,0-9,2.8-9,9v96.9c0,6.1,2.8,8.9,9,8.9h4.3
	c5.9,0,8.7-2.8,8.7-8.9v-34.7h23v35.7c0,19.1-9.4,28.4-28.4,28.4h-11.6c-19,0-28.4-9.5-28.4-28.4V80.3C225.6,61.2,235,51.8,254,51.8
	L254,51.8z M50.9,53h51.9v21.3H74.1v43.4h27.5V139H74.1v46.3h29v21.2H50.9V53z M114.5,53h36.6c19,0,28.4,9.5,28.4,28.5v40.8
	c0,19.1-9.4,28.5-28.4,28.5h-13.2v55.6h-23.4L114.5,53z M189.9,53h23.3v153.4h-23.3V53z M137.7,73.7v56.5h9.7c5.9,0,8.7-2.8,8.7-9
	V82.7c0-6.2-2.8-9-8.7-9L137.7,73.7L137.7,73.7z M73.5,243H77l0.8,0.1H79l0.6,0.2h0.6l0.6,0.2l0.6,0.2l0.5,0.1l0.5,0.2l0.5,0.1
	l0.6,0.2l0.5,0.1l0.5,0.2l0.6,0.2l0.5,0.2l0.6,0.2l0.5,0.2l0.5,0.3l0.6,0.2l0.5,0.3l0.6,0.3l0.5,0.3l0.5,0.3l0.5,0.4l0.5,0.3
	l0.5,0.4l0.5,0.4l0.5,0.5l0.5,0.4l-0.4,0.5l-0.5,0.5l-0.4,0.5l-0.5,0.5l-0.4,0.5l-0.4,0.5l-0.5,0.5l-0.4,0.5l-0.4,0.5l-0.5,0.5
	l-0.4,0.5l-0.5,0.5l-0.4,0.5l-0.4,0.5l-0.5,0.5l-0.4,0.5l-0.5,0.5l-0.4,0.5l-0.5-0.4l-0.5-0.5l-0.5-0.3l-0.5-0.4l-0.5-0.3l-0.5-0.3
	l-0.5-0.3l-0.5-0.3l-0.5-0.2l-0.5-0.2l-0.5-0.2l-0.5-0.2l-0.6-0.2l-0.5-0.2l-0.6-0.2l-0.6-0.2l-0.6-0.1h-0.7l-0.8-0.2h-1.2l-0.6,0.1
	h-0.6l-0.6,0.2l-0.5,0.2l-0.5,0.2l-0.6,0.2l-0.5,0.2l-0.6,0.2l-0.5,0.3l-0.5,0.3l-0.5,0.3l-0.5,0.4l-0.5,0.4l-0.5,0.4l-0.4,0.5
	l-0.5,0.5l-0.3,0.5l-0.3,0.5l-0.4,0.5l-0.2,0.5l-0.3,0.5l-0.3,0.5l-0.2,0.5l-0.2,0.5l-0.2,0.6L63,263l-0.2,0.5l-0.2,0.7v0.6
	l-0.1,0.6v1.5l0.1,0.6l0.1,0.5l0.1,0.6l0.2,0.6l0.2,0.5l0.1,0.6l0.2,0.5l0.2,0.5l0.2,0.6l0.3,0.6l0.2,0.5l0.3,0.5l0.4,0.5l0.4,0.5
	l0.3,0.5l0.5,0.5l0.4,0.5l0.5,0.4l0.5,0.4l0.5,0.4l0.5,0.3l0.5,0.3l0.5,0.2l0.6,0.2l0.5,0.2l0.6,0.2l0.6,0.2l0.6,0.1l0.6,0.2
	l0.6,0.1l0.8,0.1h2l0.8-0.1H78l0.6-0.2l0.6-0.1l0.6-0.2l0.5-0.1l0.5-0.2l0.5-0.2l0.6-0.2l0.4-0.2l0.5-0.3v-5.8h-9.2v-9.3h20.8V283
	l-0.5,0.4l-0.5,0.4l-0.5,0.3l-0.5,0.4l-0.5,0.3l-0.5,0.4l-0.5,0.3l-0.5,0.3l-0.6,0.3l-0.5,0.3l-0.5,0.3l-0.6,0.2l-0.5,0.3l-0.6,0.2
	l-0.6,0.2l-0.6,0.2l-0.5,0.2l-0.5,0.2l-0.5,0.2l-0.6,0.2l-0.5,0.2l-0.6,0.2l-0.5,0.1l-0.6,0.2l-0.6,0.2l-0.6,0.1l-0.6,0.1l-0.6,0.1
	l-0.6,0.1l-0.8,0.1l-0.6,0.1l-0.7,0.1H73l-0.5,0.5h-0.6l-0.6-0.1h-0.6l-0.6-0.2l-0.6-0.1l-0.6-0.2L68,290l-0.5-0.2l-0.6-0.1
	l-0.6-0.2l-0.5-0.2l-0.5-0.2l-0.6-0.2l-0.5-0.2l-0.6-0.2l-0.5-0.2l-0.6-0.3l-0.5-0.3l-0.6-0.3l-0.5-0.3l-0.5-0.3l-0.5-0.4l-0.5-0.4
	l-0.5-0.4l-0.4-0.4l-0.5-0.4l-0.5-0.5l-0.5-0.4l-0.5-0.5l-0.5-0.5l-0.5-0.5l-0.4-0.5l-0.4-0.5l-0.3-0.5l-0.4-0.5l-0.3-0.5l-0.3-0.5
	l-0.3-0.5l-0.3-0.5l-0.2-0.5l-0.2-0.5l-0.2-0.5l-0.2-0.5l-0.2-0.5l-0.2-0.5l-0.2-0.5l-0.2-0.5l-0.2-0.6l-0.2-0.5l-0.2-0.6l-0.1-0.5
	l-0.2-0.6l-0.1-0.5l-0.1-0.6l-0.1-0.6l-0.1-0.6v-3.4l0.2-0.6v-0.7l0.2-0.6v-0.6l0.2-0.6l0.2-0.6l0.1-0.6l0.2-0.5l0.2-0.6l0.2-0.5
	l0.2-0.6L52,258l0.2-0.5l0.2-0.5l0.2-0.5l0.3-0.5l0.3-0.5l0.3-0.5l0.3-0.5l0.3-0.5l0.4-0.5l0.4-0.5l0.4-0.5l0.5-0.5l0.4-0.5l0.4-0.5
	l0.5-0.5l0.4-0.5l0.5-0.4l0.5-0.5l0.5-0.4l0.5-0.4l0.5-0.3l0.5-0.4l0.5-0.3l0.5-0.3l0.5-0.3l0.6-0.3l0.5-0.3l0.6-0.2l0.5-0.2
	l0.6-0.3l0.5-0.2l0.6-0.2l0.5-0.2l0.5-0.2l0.5-0.2l0.6-0.2l0.5-0.2l0.6-0.2H70l0.6-0.2h0.6l0.6-0.2h0.6L73.5,243L73.5,243z
	 M273.4,243.1h3.4l0.8,0.2h1.2l0.6,0.2h0.8l0.6,0.2l0.5,0.1l0.6,0.2l0.6,0.1l0.5,0.2l0.6,0.2l0.6,0.2l0.5,0.1l0.6,0.2l0.6,0.2
	l0.5,0.2l0.6,0.2l0.6,0.2l0.5,0.3l0.5,0.2l0.6,0.3l0.5,0.3l0.5,0.3l0.5,0.4l0.5,0.3l0.5,0.4l0.5,0.4l0.5,0.4l-0.4,0.5l-0.3,0.5
	l-0.4,0.5l-0.4,0.5l-0.4,0.5l-0.3,0.5l-0.4,0.5l-0.4,0.5l-0.3,0.5l-0.4,0.5l-0.4,0.5l-0.4,0.5l-0.3,0.5l-0.4,0.5l-0.5,0.5L287,257
	l-0.4,0.5l-0.5-0.4l-0.5-0.3l-0.5-0.3l-0.5-0.4l-0.5-0.2l-0.5-0.3l-0.6-0.2l-0.5-0.2l-0.6-0.2l-0.5-0.2l-0.5-0.2l-0.5-0.2l-0.6-0.2
	l-0.6-0.2l-0.6-0.2l-0.7-0.2l-0.6-0.1l-0.6-0.2l-0.6-0.1l-0.6-0.1l-0.5-0.1h-1.4l-0.7,0.1l-0.6,0.2l-0.6,0.1l-0.5,0.2l-0.5,0.2
	l-0.5,0.5l-0.4,0.5l-0.2,0.5v1.6l0.3,0.7l0.2,0.4l0.5,0.5l0.6,0.3l0.5,0.3l0.6,0.2l0.6,0.2l0.8,0.2l0.5,0.2l0.5,0.2l0.6,0.2l0.5,0.2
	l0.6,0.2l0.7,0.2l0.7,0.2l0.7,0.2l0.7,0.1l0.6,0.2l0.7,0.2l0.6,0.2l0.6,0.2l0.6,0.2l0.6,0.2l0.6,0.2l0.5,0.2l0.6,0.2l0.6,0.2
	l0.6,0.3l0.6,0.2l0.6,0.3l0.6,0.3l0.5,0.3l0.5,0.3l0.5,0.4l0.5,0.3l0.5,0.5l0.5,0.5l0.5,0.5l0.5,0.5l0.3,0.5l0.5,0.6l0.3,0.5
	l0.2,0.6l0.3,0.5l0.2,0.6l0.2,0.5l0.1,0.6l0.2,0.6l0.1,0.6l0.1,0.6l0.1,0.6v1.6l-0.1,0.7l-0.1,0.6l-0.1,0.7l-0.2,0.6l-0.2,0.6
	l-0.2,0.6l-0.2,0.6l-0.2,0.5l-0.2,0.5l-0.2,0.5l-0.3,0.5l-0.4,0.5l-0.3,0.5l-0.3,0.5l-0.5,0.5l-0.4,0.5l-0.5,0.4l-0.5,0.5l-0.5,0.4
	l-0.5,0.4L288,287l-0.5,0.4l-0.6,0.3l-0.5,0.2l-0.6,0.3l-0.6,0.2l-0.6,0.2l-0.6,0.2l-0.6,0.2l-0.5,0.2l-0.6,0.2l-0.6,0.2l-0.5,0.1
	l-0.6,0.2h-0.2l-0.6,0.1H279l-0.6,0.2h-4.7l-0.6-0.1l-0.6-0.1l-0.7-0.1l-0.6-0.2l-0.6-0.1l-0.6-0.1l-0.6-0.2l-0.7-0.2l-0.6-0.2
	l-0.6-0.2l-0.6-0.2l-0.6-0.2l-0.6-0.2l-0.6-0.2l-0.5-0.2l-0.6-0.2l-0.6-0.2l-0.5-0.2l-0.6-0.2l-0.5-0.3l-0.6-0.2l-0.5-0.3l-0.5-0.3
	l-0.6-0.3l-0.5-0.3l-0.5-0.3l-0.5-0.4l-0.5-0.4l-0.5-0.4l-0.5-0.4l-0.5-0.4l-0.5-0.5l0.4-0.5l0.5-0.5l0.4-0.5l0.5-0.5l0.4-0.5
	l0.4-0.5l0.5-0.5l0.4-0.5l0.5-0.5l0.4-0.5l0.5-0.5l0.4-0.5l0.4-0.5l0.5-0.5l0.4-0.5l0.5-0.5l0.5-0.5l0.5,0.4l0.6,0.4l0.5,0.4
	l0.6,0.4l0.5,0.3l0.5,0.4l0.5,0.3l0.5,0.2l0.5,0.3l0.5,0.2l0.6,0.2l0.5,0.2l0.6,0.2l0.5,0.2l0.6,0.2l0.6,0.2l0.6,0.2l0.6,0.1
	l0.6,0.2l0.6,0.1h0.7l0.6,0.2h3.4l0.6-0.2l0.6-0.2l0.5-0.1l0.5-0.2l0.5-0.2l0.5-0.4l0.3-0.5l0.3-0.5l0.2-0.6v-1.5l-0.2-0.6l-0.4-0.5
	l-0.4-0.4l-0.5-0.4l-0.5-0.2l-0.6-0.2l-0.6-0.2l-0.8-0.3l-0.5-0.1l-0.5-0.2l-0.6-0.2l-0.5-0.2l-0.6-0.2l-0.6-0.1l-0.7-0.2l-0.6-0.1
	l-0.7-0.2l-0.6-0.1l-0.6-0.2l-0.6-0.1l-0.6-0.2l-0.6-0.2l-0.6-0.2l-0.5-0.2l-0.5-0.2l-0.5-0.2l-0.6-0.2l-0.7-0.2l-0.6-0.2l-0.6-0.2
	l-0.6-0.3l-0.6-0.3l-0.5-0.3l-0.6-0.3l-0.5-0.4l-0.5-0.3l-0.4-0.4l-0.5-0.5l-0.5-0.5l-0.4-0.5l-0.4-0.5l-0.3-0.5l-0.3-0.5l-0.3-0.5
	l-0.2-0.5l-0.2-0.5l-0.2-0.5l-0.2-0.5l-0.2-0.6l-0.1-0.5v-0.6l-0.2-0.6v-2.7l0.1-0.6l0.1-0.6l0.1-0.5l0.2-0.6l0.2-0.5l0.2-0.6
	l0.2-0.5l0.2-0.6l0.2-0.5l0.3-0.6l0.3-0.5l0.5-0.5l0.3-0.5l0.5-0.5l0.5-0.5l0.4-0.5l0.5-0.5l0.4-0.3l0.5-0.4l0.5-0.4l0.5-0.3
	l0.6-0.3l0.5-0.2l0.6-0.3l0.5-0.2l0.6-0.2l0.6-0.2l0.6-0.2l0.5-0.2l0.6-0.1l0.5-0.2l0.6-0.1l0.6-0.2l0.6-0.1l0.6-0.1l0.6-0.1
	L273.4,243.1L273.4,243.1z M119.4,243.6h11.8l0.2,0.5l0.2,0.5l0.2,0.5l0.2,0.6l0.2,0.5l0.2,0.5l0.2,0.5l0.2,0.5l0.2,0.5l0.3,0.6
	l0.2,0.5l0.2,0.5l0.2,0.5l0.2,0.5l0.3,0.5l0.2,0.6l0.2,0.5l0.2,0.5l0.2,0.5l0.3,0.5l0.2,0.5l0.2,0.6l0.2,0.6l0.2,0.5l0.3,0.6
	l0.2,0.5l0.2,0.6l0.2,0.6l0.2,0.5l0.3,0.6l0.2,0.5l0.2,0.6l0.2,0.5l0.2,0.6l0.3,0.6l0.2,0.5l0.2,0.5l0.2,0.5l0.2,0.5l0.3,0.5
	l0.2,0.6l0.2,0.5l0.2,0.5l0.2,0.5l0.2,0.5l0.2,0.5l0.2,0.6l0.2,0.5l0.2,0.5l0.3,0.5l0.2,0.5l0.2,0.5l0.2,0.6l0.2,0.5l0.3,0.5
	l0.2,0.5l0.2,0.5l0.2,0.5l0.2,0.6l0.3,0.6l0.2,0.5l0.2,0.6l0.2,0.5l0.2,0.6l0.3,0.6l0.2,0.5l0.2,0.6l0.2,0.5l0.2,0.6l0.3,0.5
	l0.2,0.6l0.2,0.6l0.2,0.5l0.2,0.6l0.3,0.5l0.2,0.6l0.2,0.6l0.2,0.5l0.2,0.6l0.3,0.5h-13l-0.3-0.5l-0.2-0.5l-0.2-0.5l-0.2-0.6
	l-0.2-0.5l-0.2-0.5l-0.2-0.5l-0.2-0.5l-0.2-0.5l-0.2-0.5l-0.2-0.5l-0.2-0.6l-0.2-0.5l-0.2-0.5l-0.2-0.5H115l-0.2,0.6l-0.2,0.5
	l-0.2,0.6l-0.3,0.6l-0.2,0.5l-0.2,0.6l-0.2,0.5l-0.2,0.6l-0.2,0.5l-0.2,0.6l-0.2,0.5l-0.2,0.6l-0.2,0.6l-0.2,0.5l-0.2,0.6H98.8
	l0.2-0.6l0.2-0.5l0.2-0.5l0.2-0.6l0.2-0.5l0.3-0.5l0.2-0.5l0.2-0.5l0.2-0.5l0.2-0.6l0.3-0.5l0.2-0.5l0.2-0.5l0.2-0.5l0.2-0.5
	l0.3-0.6l0.2-0.5l0.2-0.5l0.2-0.5l0.2-0.5l0.2-0.5l0.2-0.6l0.2-0.6l0.2-0.5l0.2-0.6l0.3-0.5l0.2-0.6l0.2-0.6l0.2-0.5l0.2-0.6
	l0.3-0.5l0.2-0.6l0.2-0.5l0.2-0.6l0.2-0.6l0.3-0.5l0.2-0.6l0.2-0.5l0.2-0.6l0.2-0.6l0.3-0.5l0.2-0.6l0.2-0.5l0.2-0.6l0.2-0.5
	l0.3-0.6l0.2-0.6l0.2-0.5l0.2-0.5l0.2-0.5l0.3-0.5l0.2-0.5l0.2-0.6l0.2-0.5l0.2-0.5l0.3-0.5l0.2-0.5l0.2-0.5l0.2-0.6l0.2-0.6
	l0.2-0.5l0.2-0.6l0.2-0.5l0.2-0.6l0.2-0.6l0.3-0.5l0.2-0.6l0.2-0.5l0.2-0.6l0.2-0.5l0.3-0.6l0.2-0.6l0.2-0.5l0.2-0.6l0.2-0.5
	l0.3-0.6l0.2-0.6l0.2-0.5l0.2-0.6L119.4,243.6L119.4,243.6z M155.9,243.9h12.9l0.4,0.5l0.3,0.5l0.4,0.5l0.3,0.5l0.3,0.5l0.3,0.5
	l0.3,0.5l0.4,0.5l0.3,0.5l0.3,0.5l0.3,0.5l0.3,0.5l0.5,0.5l0.2,0.5l0.3,0.5l0.4,0.5l0.4,0.5l0.2,0.5l0.4,0.5l0.3,0.5l0.2,0.5
	l0.5,0.5l0.3,0.5l0.3,0.5l0.3,0.5l0.3,0.5l0.4,0.5l0.3,0.5l0.3,0.5l0.3,0.5l0.3,0.5l0.4,0.5l0.3,0.5l0.3,0.5l0.4-0.5l0.2-0.6
	l0.4-0.5l0.4-0.6l0.3-0.5l0.2-0.6l0.5-0.5l0.3-0.6l0.2-0.5l0.4-0.5l0.4-0.6l0.3-0.5l0.3-0.6l0.3-0.5l0.4-0.6l0.3-0.5l0.3-0.6
	l0.3-0.5l0.3-0.5l0.4-0.6l0.3-0.5l0.3-0.6l0.4-0.5l0.3-0.6l0.3-0.5l0.4-0.5l0.3-0.6l0.4-0.5l0.3-0.6l0.3-0.5l0.3-0.6l0.4-0.5
	l0.3-0.6l0.3-0.5h12.9v46.5h-12.3v-27.3l-0.3,0.5l-0.4,0.6l-0.3,0.5l-0.4,0.5l-0.3,0.6l-0.4,0.5l-0.3,0.5l-0.4,0.6l-0.3,0.5
	l-0.3,0.5l-0.5,0.5l-0.3,0.6l-0.4,0.5l-0.3,0.5l-0.3,0.6l-0.4,0.5l-0.3,0.5l-0.4,0.6l-0.3,0.5l-0.4,0.5l-0.3,0.6l-0.3,0.5l-0.4,0.5
	l-0.3,0.6l-0.4,0.5l-0.4,0.5l-0.3,0.5l-0.3,0.6l-0.4,0.5l-0.4,0.5l-0.2,0.6l-0.5,0.5l-0.3,0.5l-0.4,0.6l-0.3,0.5h-0.2l-0.4-0.5
	L179,279l-0.4-0.5l-0.3-0.5l-0.4-0.5l-0.3-0.5l-0.4-0.5l-0.3-0.5l-0.4-0.5l-0.3-0.5l-0.5-0.5l-0.2-0.5l-0.4-0.5l-0.4-0.5l-0.3-0.5
	l-0.4-0.5l-0.3-0.6l-0.4-0.5l-0.3-0.5l-0.4-0.5l-0.3-0.5l-0.4-0.5l-0.3-0.5l-0.4-0.5l-0.3-0.5l-0.4-0.5l-0.3-0.5l-0.4-0.5l-0.3-0.5
	l-0.4-0.5l-0.3-0.5l-0.5-0.5l-0.2-0.5l-0.4-0.5v27.4H156v-46L155.9,243.9L155.9,243.9z M213.8,243.9h36.6v10.5h-24.5v7.4h22v9.9h-22
	v8h24.8v10.5h-36.9v-46L213.8,243.9L213.8,243.9z M125.1,258.1l-0.2,0.6l-0.2,0.5l-0.2,0.6l-0.2,0.6L124,261l-0.2,0.5l-0.2,0.6
	l-0.2,0.6l-0.2,0.5l-0.2,0.6l-0.2,0.5l-0.2,0.6l-0.2,0.6l-0.2,0.5l-0.2,0.6l-0.2,0.5l-0.2,0.6l-0.5,0.9l-0.2,0.5l-0.2,0.6l-0.2,0.6
	l-0.2,0.5l-0.2,0.6h10.7l-0.2-0.6l-0.2-0.5l-0.2-0.6l-0.2-0.5l-0.2-0.5l-0.2-0.5l-0.2-0.6l-0.2-0.5l-0.2-0.5l-0.2-0.5l-0.2-0.5
	l-0.2-0.6l-0.2-0.5l-0.2-0.5l-0.2-0.5l-0.2-0.5l-0.2-0.6l-0.2-0.6l-0.2-0.5l-0.2-0.6l-0.2-0.6l-0.2-0.5L125.1,258.1L125.1,258.1z
	 M105.9,345.2h133.6l-68.2,22.5L105.9,345.2z"/>
</svg>
