<?xml version="1.0" encoding="utf-8"?>
<!-- Generator: Adobe Illustrator 27.9.0, SVG Export Plug-In . SVG Version: 6.00 Build 0)  -->
<svg version="1.1" id="Layer_1" xmlns="http://www.w3.org/2000/svg" xmlns:xlink="http://www.w3.org/1999/xlink" x="0px" y="0px"
	 viewBox="0 0 34 31" style="enable-background:new 0 0 34 31;" xml:space="preserve">
<style type="text/css">
	.st0{fill:#231F20;}
</style>
<path class="st0" d="M31,31H3c-1.7,0-3-1.3-3-3V3c0-1.7,1.3-3,3-3h28c1.7,0,3,1.3,3,3v25C34,29.7,32.7,31,31,31z M4,24.5
	C4,25.3,4.7,26,5.5,26H11v-2H6.5C6.2,24,6,23.8,6,23.5v-3C6,20.2,6.2,20,6.5,20H11v-2H5.5C4.7,18,4,18.7,4,19.5V24.5z M12,6.5
	C12,5.7,11.3,5,10.5,5h-5C4.7,5,4,5.7,4,6.5v5C4,12.3,4.7,13,5.5,13H9v-2H6.5C6.2,11,6,10.8,6,10.5v-3C6,7.2,6.2,7,6.5,7h3
	C9.8,7,10,7.2,10,7.5v6c0,0.3-0.2,0.5-0.5,0.5H4v2h6.5c0.8,0,1.5-0.7,1.5-1.5l0,0V6.5z M12,19.5v5c0,0.8,0.7,1.5,1.5,1.5h5
	c0.8,0,1.5-0.7,1.5-1.5v-5c0-0.8-0.7-1.5-1.5-1.5h-5C12.7,18,12,18.7,12,19.5z M21,6.5C21,5.7,20.3,5,19.5,5h-5
	C13.7,5,13,5.7,13,6.5v5c0,0.8,0.7,1.5,1.5,1.5h5c0.8,0,1.5-0.7,1.5-1.5V6.5z M30,6.5C30,5.7,29.3,5,28.5,5h-5C22.7,5,22,5.7,22,6.5
	v5c0,0.8,0.7,1.5,1.5,1.5H27v-2h-2.5c-0.3,0-0.5-0.2-0.5-0.5v-3C24,7.2,24.2,7,24.5,7h3C27.8,7,28,7.2,28,7.5v6
	c0,0.3-0.2,0.5-0.5,0.5H22v2h6.5c0.8,0,1.5-0.7,1.5-1.5l0,0V6.5z M30,18h-7.5c-0.8,0-1.5,0.7-1.5,1.5V26h2v-5.5
	c0-0.3,0.2-0.5,0.5-0.5h1v6h2v-6H28v6h2V18z M18.5,11h-3c-0.3,0-0.5-0.2-0.5-0.5v-3C15,7.2,15.2,7,15.5,7h3C18.8,7,19,7.2,19,7.5v3
	C19,10.8,18.8,11,18.5,11z M14.5,20h3c0.3,0,0.5,0.2,0.5,0.5v3c0,0.3-0.2,0.5-0.5,0.5h-3c-0.3,0-0.5-0.2-0.5-0.5v-3
	C14,20.2,14.2,20,14.5,20z"/>
</svg>
