<?xml version="1.0" encoding="utf-8"?>
<!-- Generator: Adobe Illustrator 27.9.0, SVG Export Plug-In . SVG Version: 6.00 Build 0)  -->
<svg version="1.1" id="Layer_1" xmlns="http://www.w3.org/2000/svg" xmlns:xlink="http://www.w3.org/1999/xlink" x="0px" y="0px"
	 viewBox="0 0 166.5 49.3" style="enable-background:new 0 0 166.5 49.3;" xml:space="preserve">
<style type="text/css">
	.st0{fill-rule:evenodd;clip-rule:evenodd;fill:url(#SVGID_1_);}
</style>
<g>
	
		<linearGradient id="SVGID_1_" gradientUnits="userSpaceOnUse" x1="-1582.2903" y1="20.2025" x2="-1582.2903" y2="21.2025" gradientTransform="matrix(166.448 0 0 49.2699 263452.3125 -995.3774)">
		<stop  offset="0" style="stop-color:#E65C60"/>
		<stop  offset="1" style="stop-color:#CB272C"/>
	</linearGradient>
	<path class="st0" d="M47.3,39.4c0.8,7.2,3.7,9.3,6.9,9.4c2.8,0.1,5.7-1.4,7.6-3.1c0.6-0.5,1.1-1,1.5-1.6c0.7,3.4,2.3,4.9,4.1,4.9
		c1.6,0,3.3-1,4.6-2.2l-0.1,1.5h7.8l1-11.6c0.4-5.5,4.6-8.3,6.8-8.3c2.9,0,1,9.4-0.4,19.9h6.5c0.7-4.6,1.6-8.6,2.1-12.8
		c0.8-4.7,4.6-7.1,6.7-7.1c1.6,0,1.7,2.8,1.3,7.1l-0.1,0.6c-1.2,9.5-1.5,13.2,1.4,13.2c2,0,4.1-1.5,5.5-3.1c0.6-0.7,2.3-3,4.2-5.5
		c1.6,12.1,9,9.1,13.1,5.5c4.5-3.9,8-11.1,8-16.5c0-4.6-2.7-6.5-5.9-6.5c-6.8,0-9.4,4.1-9.4,4.1c1.5-11.7,6.4-26.5,6.4-26.5H121
		c0,0-6.9,18.2-6.6,35.4v0.6c-1.7,2.1-3.3,3.7-3.8,3.7c-0.9,0-0.9-1.2-0.5-4.3c0,0,0.8-4.3,0.8-6.5c0-4.6-2.7-6.5-5.9-6.5
		c-5.4,0-8.3,3.4-9.2,4.8c-0.6-3.3-3-4.8-5.7-4.8c-6.8,0-9.5,5.3-9.5,5.3L81,24h-7.1l-1.3,15.9c-1.4,2.2-2.7,3.9-3.9,3.9
		c-1.9,0,0.7-17.2,1-19.8h-5.8c0,0-2.7,19-8.1,19c-4.6,0-1.6-15.1-1-19L48,24l-0.1,0.5c-0.8,4.1-3.8,15.3-10.5,15.3
		c-7,0,3.8-38.7,3.8-38.7h-7.3c0,0-3.1,8-5.1,18.4h-6.3c0.2-2.1,0.2-4.3,0.2-6.5C22.5-4,12.5-0.8,8,3.1C3.7,6.9,0.3,13.6,0,18.8
		c0.4,0.1,3.4,0.8,3.4,0.8S5.6,9.3,12.7,9.3c7,0-3.8,38.9-3.8,38.9h7.3c0,0,3.7-9.7,5.6-21.6h6c-0.3,3.1-0.5,6.3-0.5,9.4
		c0.3,17.2,10.3,14,14.8,10C44.1,44.4,45.9,42,47.3,39.4z M156.2,42.3c0.5,0.3,1,0.5,1.8,0.5c3.3,0,5.4-1.2,6.6-2.6l1.9,0.9
		c-0.7,1.5-1.9,3.2-3.8,4.9c-3.1,2.7-8.7,5.1-12.1,0.8c-4.6,3-13.4,6.3-13.7-10.8c-0.3-17.2,6.6-35.4,6.6-35.4h5.9
		c0,0-10.6,42.3-3.6,42.3c0.4,0,1.4-0.5,2.6-1.1c-0.4-1.6-0.6-3.5-0.6-5.8c-0.1-7.5,3.9-13,10.6-13c3.2,0,5.9,2,5.9,6.5
		c0,0.5-0.1,0.9-0.1,1.4C164,32.5,161.1,37.6,156.2,42.3L156.2,42.3z M159.4,30.5c0,3.4-6,8.3-6,8.3c-1.3-4.3,0.2-10.8,3.7-10.8
		C159.2,28,159.4,29.8,159.4,30.5L159.4,30.5z M121.9,43c-1.4,0-1.6-5-1.6-7.8c0-5.5,4.7-6.8,7-6.8c3.2,0,3.9,2,2.2,5.7
		C128.1,37.1,125.2,43,121.9,43z"/>
</g>
</svg>
