<?xml version="1.0" encoding="utf-8"?>
<!-- Generator: Adobe Illustrator 27.9.0, SVG Export Plug-In . SVG Version: 6.00 Build 0)  -->
<svg version="1.1"
	 id="svg49" xmlns:svg="http://www.w3.org/2000/svg" xmlns:rdf="http://www.w3.org/1999/02/22-rdf-syntax-ns#" xmlns:cc="http://creativecommons.org/ns#" xmlns:dc="http://purl.org/dc/elements/1.1/"
	 xmlns="http://www.w3.org/2000/svg" xmlns:xlink="http://www.w3.org/1999/xlink" x="0px" y="0px" viewBox="0 0 350.9 471.5"
	 style="enable-background:new 0 0 350.9 471.5;" xml:space="preserve">
<style type="text/css">
	.st0{fill:#F15A23;}
</style>
<path id="path3" class="st0" d="M167.6,0.6c2.6-1.4,6.4-0.4,7.3,2.6c1,2.5-0.7,4.7-2.1,6.6c-9.6,13.7-16,29.5-19,45.9
	c-1.8,0.8-2.4,2.7-1.8,4.5c0.9,0.3,1.8,0.6,2.7,0.9c18.7-1.6,37.6-1.3,56.1,2.6c33.5,6.7,64.8,23.7,88.8,47.9
	c24,24,40.8,55,47.6,88.3c7.5,36,3.3,74.3-11.8,107.8c-32,68.4-86,126.3-152.1,163c-2.1,1-5.2,1-6.7-1.1c-1.7-2.2-1-5.4,0.7-7.4
	c8.9-12.4,15.1-26.7,18.5-41.6c0.6-3.1,1.5-6.2,1.3-9.4c-1.1-1.4-2.9-1-4.4-0.9c-32.1,3.2-65.1-2.5-94-16.7
	c-31-15-57.4-39.4-74.8-69.1C7.9,297.2-0.6,265.4,0,233.7c0.1-29.1,8.1-58,22.1-83.6C54.7,87.5,105.8,34.7,167.6,0.6 M165.8,167.8
	c-19.1,2.6-36.7,13.8-47.3,29.7c-7.2,11-11.6,24-11.5,37.2c-0.5,17.7,6.5,35.3,18.7,48.1c10.7,11.5,25.5,19,41,21
	c15.8,2.1,32.3-1.6,45.7-10.3c13.6-8.6,24-22.3,28.6-37.7c8.7-26.8-1.7-58.2-24.4-74.8C202.3,170.1,183.6,165.2,165.8,167.8
	L165.8,167.8z"/>
</svg>
