<?xml version="1.0" encoding="utf-8"?>
<!-- Generator: Adobe Illustrator 27.9.0, SVG Export Plug-In . SVG Version: 6.00 Build 0)  -->
<svg version="1.1" id="Layer_1" xmlns="http://www.w3.org/2000/svg" xmlns:xlink="http://www.w3.org/1999/xlink" x="0px" y="0px"
	 viewBox="0 0 204.5 37.3" style="enable-background:new 0 0 204.5 37.3;" xml:space="preserve">
<style type="text/css">
	.st0{enable-background:new    ;}
	.st1{fill:#E4A124;}
	.st2{fill:#FFFFFF;}
</style>
<g class="st0">
	<path class="st1" d="M0.2,36.2l2.5-12.5c0.4-2.3,0.8-4.7,1.2-7.1c0.4-2.4,0.9-4.8,1.3-7.2C5.6,7.1,6,4.8,6.2,2.8
		c1.8-0.6,3.8-1,5.9-1.3c2.1-0.3,4.2-0.4,6.3-0.4c2.4,0,4.1,0.5,5,1.6c0.9,1.1,1.3,2.5,1.3,4.3c0,1.6-0.4,3.3-1.2,4.9
		s-1.8,3.1-3,4.5c-1.2,1.3-2.6,2.4-4.1,3.1c0.6,1.3,1.2,2.7,1.8,4.2c0.7,1.5,1.3,3,1.8,4.3c0.3,0.8,0.6,1.6,1,2.4
		c0.3,0.8,0.7,1.6,1,2.4l-7.4,2.6c-0.3-1.1-0.6-2.2-0.9-3.2c-0.3-1-0.6-2-0.8-3c-0.3-1.2-0.6-2.3-0.9-3.4c-0.3-1.1-0.5-2.1-0.7-3
		c-0.2-0.9-0.3-1.5-0.4-1.8l-0.6,0.2c-0.2,1-0.4,2.3-0.7,3.7c-0.3,1.5-0.5,2.9-0.7,4.3l-0.9,5L0.2,36.2z M11.5,15.4
		c0.6-0.1,1.3-0.3,2.1-0.7c0.8-0.4,1.7-1,2.5-1.6c0.8-0.6,1.6-1.3,2.1-2c0.6-0.7,0.9-1.3,0.9-1.8c0-0.6-0.4-1.1-1.1-1.3
		c-0.8-0.2-1.7-0.3-3-0.3H14c-0.2,0-0.4,0-0.5,0s-0.3,0-0.5,0L11.5,15.4z"/>
	<path class="st1" d="M33.8,36.1c0.1-0.5,0.1-1.1,0.2-1.6c0.1-0.5,0.1-1,0.2-1.5l0.3-2.7c0-0.4,0.1-0.9,0.1-1.2
		c0-0.4,0.1-0.7,0.1-1.1h-4.2l-1.9,6.9C27.8,35,27,35.1,26,35.2c-1,0.1-1.9,0.2-2.7,0.3c-0.5,0.1-1,0.1-1.5,0.2
		c-0.5,0.1-1,0.1-1.5,0.2l3.8-12.6c0.4-1.5,1-3.2,1.5-5.1c0.6-1.9,1.2-3.9,1.8-5.9c0.6-2,1.2-3.9,1.7-5.7c0.5-1.8,1-3.3,1.3-4.5
		c2.2-0.2,4.4-0.4,6.6-0.6c2.3-0.2,4.5-0.5,6.6-0.9c-0.2,1.8-0.3,3.8-0.5,6.1s-0.3,4.6-0.4,7c-0.1,2.4-0.2,4.8-0.4,7.1
		c-0.1,2.2-0.1,4.5-0.2,6.8c-0.1,2.4-0.2,4.8-0.3,7.2c-0.5,0.1-1,0.1-1.4,0.2c-0.5,0.1-1,0.1-1.4,0.2c-0.8,0.1-1.7,0.3-2.6,0.4
		C35.4,35.8,34.5,35.9,33.8,36.1z M31.6,23.2c0.2,0,0.6,0,1.1,0s1-0.1,1.5-0.1c0.5,0,0.8,0,0.9,0c0-0.4,0.1-1.3,0.2-2.5
		c0.1-1.3,0.3-2.6,0.4-4c0.1-0.8,0.1-1.7,0.2-2.6c0.1-0.9,0.2-1.8,0.3-2.7l0.3-4.2l-0.7,0l-1.1,4.1L31.6,23.2z"/>
	<path class="st1" d="M46.4,36.2c0.4-1.8,0.7-3.5,1.1-5.3c0.4-1.7,0.7-3.5,1-5.2c1.2-6.1,2.2-11.9,3-17.5c-0.4-0.1-0.7-0.1-1.1-0.1
		c-0.4,0-0.8,0-1.1,0c-0.8,0.1-1.5,0-2.3-0.3c0-0.3,0-0.5,0-0.8c0-0.3,0-0.6,0-0.9c0-0.4,0-0.7,0-1s0-0.7,0-1c0-0.4,0-0.7,0-1.1
		s0-0.8,0-1.2c0.8,0.1,1.7,0.1,2.5,0.1c0.8,0,1.7,0,2.5,0c2.4,0,4.6-0.1,6.8-0.2s4.2-0.4,6-0.6l-0.5,2.6L64.1,6
		c-0.2,0.8-0.3,1.5-0.4,2c-0.4,0.1-0.7,0.2-1.1,0.2c-0.4,0.1-0.7,0.1-1.1,0.1c-0.4,0-0.7,0.1-1.1,0.1c-0.4,0.1-0.7,0.1-1.1,0.2
		c-0.5,2.4-0.9,4.4-1.2,6.1c-0.3,1.7-0.6,3.4-0.8,5c-0.2,1.6-0.5,3.3-0.8,5.2c-0.5,3.2-1,6.5-1.4,9.8L46.4,36.2z"/>
	<path class="st1" d="M59.9,36.2l6.3-34.1l15.2-1.3c-0.2,0.7-0.4,1.4-0.6,2.2c-0.2,0.6-0.3,1.2-0.5,1.9C80.2,5.5,80,6.1,80,6.6
		c-0.4,0-1,0.1-1.8,0.1c-0.8,0-1.6,0-2.4,0c-0.8,0-1.5,0-2.1,0c-0.6,0-0.9,0-0.9,0l-1.7,8.6l2.8-0.1c0.4,0,0.7,0,1.1,0
		c0.4,0,0.7,0,1.1,0c0.4,0,0.7,0,1,0s0.5,0,0.7,0c-0.1,0.4-0.1,0.9-0.2,1.3c0,0.4-0.1,0.9-0.2,1.3L77,20.4c-0.2,0-0.4,0-0.6,0
		c-0.3,0-0.6,0-0.9,0c-0.4,0-0.7,0-1.1,0s-0.8,0-1.1,0c-0.4,0-0.8,0-1.3,0c-0.4,0-0.9,0-1.4,0l-1.6,8.8l7-1.1l-0.5,5.5L59.9,36.2z"
		/>
	<path class="st1" d="M78.8,36.4c-0.4,0-0.9,0-1.3-0.1c-0.4,0-0.9-0.1-1.3-0.2l2.5-12.9c0.3-1.8,0.7-3.6,1-5.6
		c0.4-2,0.7-3.9,1.1-5.9c0.4-1.9,0.7-3.7,0.9-5.4c0.3-1.7,0.5-3.1,0.6-4.2c1.4-0.3,2.8-0.5,4.2-0.7c1.4-0.2,2.8-0.3,4.3-0.3
		c2.4,0,4.2,0.5,5.6,1.5c1.4,1,2.4,2.3,3,3.8c0.6,1.6,0.9,3.3,0.9,5.2c0,1.7-0.2,3.5-0.7,5.4s-1.2,3.7-2,5.6
		c-0.9,1.8-1.9,3.6-3.1,5.2c-1.9,2.5-4.2,4.6-6.9,6.2C84.8,35.6,81.9,36.4,78.8,36.4z M84.5,30.4c1.1-0.7,2.2-1.9,3.2-3.4
		c1-1.5,2-3.3,2.9-5.4c0.8-2,1.4-3.8,1.9-5.5c0.4-1.7,0.7-3.2,0.7-4.3c0-1.2-0.3-2.1-1-2.8c-0.7-0.7-1.7-1-3.1-1
		c-0.5,2.8-1,5.3-1.6,7.6s-1,4.7-1.5,7.1S84.9,27.5,84.5,30.4z"/>
	<path class="st1" d="M101.1,37.3c-1,0-1.8-0.2-2.4-0.7c-0.6-0.5-1.1-1-1.4-1.7c-0.3-0.7-0.5-1.4-0.5-2.1c0-1.3,0.4-2.4,1.3-3.3
		c0.8-0.9,2-1.4,3.5-1.4c1.9,0,3.2,0.4,4.2,1.3c0.9,0.9,1.4,1.9,1.4,3c0,1.3-0.5,2.4-1.6,3.4C104.6,36.8,103.1,37.3,101.1,37.3z
		 M101.2,25.1c0.5-2,1-4,1.5-5.9c0.5-2,1-3.9,1.4-5.9c0.4-2,0.9-3.9,1.4-5.9c0.5-2,1-3.9,1.5-5.9c1.8-0.3,3.5-0.5,5-0.7
		c1.5-0.2,2.7-0.4,3.7-0.5c-1.7,4-3.3,8.1-4.7,12.2c-1.4,4.1-2.8,8.2-4.2,12.3c-0.9,0-1.9,0-2.8,0.1C103,25,102.1,25,101.2,25.1z"/>
</g>
<g class="st0">
	<path class="st2" d="M124,36.3c-0.8,0-1.5-0.1-2.2-0.2c1-3.7,1.8-7.5,2.4-11.3c0.6-3.8,1.2-7.6,1.7-11.4c1.1-0.2,2.3-0.4,3.5-0.6
		c1.2-0.2,2.4-0.3,3.7-0.3c0.7,0,1.5,0.1,2.2,0.4c0.8,0.2,1.5,0.7,2,1.3c0.5,0.6,0.8,1.5,0.8,2.7c0,1.1-0.2,2-0.7,2.9
		c-0.4,0.9-1,1.7-1.7,2.3c-0.7,0.6-1.4,1.1-2.1,1.4c0.3,0.1,0.7,0.4,1.1,0.8c0.4,0.4,0.8,0.9,1.1,1.5c0.3,0.6,0.4,1.4,0.4,2.3
		c0,1.3-0.4,2.4-1.1,3.5c-0.8,1-1.8,1.9-3,2.6c-1.2,0.7-2.5,1.2-3.9,1.6C126.8,36.1,125.4,36.3,124,36.3z M128.1,29.8
		c0.4,0,0.9-0.1,1.4-0.2s1-0.3,1.5-0.5c0.5-0.2,0.9-0.5,1.2-0.9c0.3-0.4,0.5-0.8,0.5-1.4c0-0.5-0.2-0.9-0.5-1.2
		c-0.3-0.3-0.8-0.5-1.2-0.7c-0.5-0.1-0.9-0.2-1.4-0.2h-0.3c-0.1,0-0.2,0-0.3,0c-0.1,0.8-0.3,1.6-0.4,2.5
		C128.4,28.2,128.2,29,128.1,29.8z M129.7,20.8c0.7-0.1,1.3-0.3,1.9-0.5c0.6-0.2,1.1-0.5,1.5-0.7c0.4-0.3,0.6-0.6,0.6-0.9
		c0-0.4-0.2-0.7-0.5-1c-0.3-0.2-0.7-0.4-1.2-0.5c-0.4-0.1-0.9-0.2-1.2-0.2h-0.3c-0.1,0.9-0.3,1.6-0.4,2.2S129.8,20.4,129.7,20.8z"/>
	<path class="st2" d="M138,35.7l1.5-6.4c0-1.5,0-3.1-0.1-4.7c-0.1-1.6-0.2-3.2-0.3-4.8c-0.1-1.6-0.2-3.3-0.4-5.2l5.2-2v3.9
		c0,1.2,0,2.4,0,3.3s0,1.9,0,2.6c0.3-0.7,0.6-1.6,1-2.7s0.8-2.1,1.1-3.1c0.2-0.6,0.4-1.2,0.6-1.8c0.2-0.6,0.4-1.2,0.6-1.9l5,1.1
		c-0.9,1.8-1.8,3.6-2.7,5.5c-0.5,1.1-1.1,2.3-1.7,3.6c-0.6,1.2-1.2,2.4-1.7,3.5s-0.9,1.9-1.2,2.6c-0.1,0.6-0.2,1.2-0.4,1.8
		c-0.2,0.7-0.3,1.3-0.5,1.9c-0.1,0.3-0.2,0.7-0.3,1c-0.1,0.4-0.2,0.7-0.3,1.1L138,35.7z"/>
	<path class="st2" d="M156.2,36.3c-0.8,0-1.5-0.1-2.2-0.2c1-3.7,1.8-7.5,2.4-11.3c0.6-3.8,1.2-7.6,1.7-11.4c1.1-0.2,2.3-0.4,3.5-0.6
		c1.2-0.2,2.4-0.3,3.7-0.3c0.7,0,1.5,0.1,2.2,0.4s1.5,0.7,2,1.3c0.5,0.6,0.8,1.5,0.8,2.7c0,1.1-0.2,2-0.7,2.9
		c-0.4,0.9-1,1.7-1.7,2.3s-1.4,1.1-2.1,1.4c0.3,0.1,0.7,0.4,1.1,0.8c0.4,0.4,0.8,0.9,1.1,1.5c0.3,0.6,0.4,1.4,0.4,2.3
		c0,1.3-0.4,2.4-1.1,3.5c-0.8,1-1.8,1.9-3,2.6c-1.2,0.7-2.5,1.2-3.9,1.6C159,36.1,157.6,36.3,156.2,36.3z M160.3,29.8
		c0.4,0,0.9-0.1,1.4-0.2c0.5-0.1,1-0.3,1.5-0.5c0.5-0.2,0.9-0.5,1.2-0.9c0.3-0.4,0.5-0.8,0.5-1.4c0-0.5-0.2-0.9-0.5-1.2
		c-0.3-0.3-0.8-0.5-1.2-0.7c-0.5-0.1-0.9-0.2-1.4-0.2h-0.3c-0.1,0-0.2,0-0.3,0c-0.1,0.8-0.3,1.6-0.4,2.5
		C160.6,28.2,160.4,29,160.3,29.8z M161.9,20.8c0.7-0.1,1.3-0.3,1.9-0.5c0.6-0.2,1.1-0.5,1.5-0.7c0.4-0.3,0.6-0.6,0.6-0.9
		c0-0.4-0.2-0.7-0.5-1s-0.7-0.4-1.2-0.5c-0.4-0.1-0.9-0.2-1.2-0.2h-0.3c-0.2,0.9-0.3,1.6-0.4,2.2S162,20.4,161.9,20.8z"/>
	<path class="st2" d="M167.9,36.1c0.3-1.2,0.6-2.6,0.9-4.2c0.3-1.6,0.6-3.2,0.9-4.9c0.3-1.7,0.6-3.3,0.8-4.9
		c0.2-1.4,0.5-2.8,0.7-4.2c0.2-1.4,0.4-2.8,0.7-4.3l5-0.8l-1.4,8.4c-0.3,2-0.6,3.8-0.8,5.3c-0.2,1.6-0.5,3.1-0.7,4.5
		c-0.2,1.4-0.5,2.8-0.7,4.3c-0.4,0-0.9,0-1.5,0.1c-0.6,0.1-1.2,0.1-1.7,0.2c-0.6,0.1-1.1,0.1-1.5,0.2
		C168.2,36.1,167.9,36.1,167.9,36.1z"/>
	<path class="st2" d="M176.4,36.3c-0.8,0-1.5-0.1-2.2-0.2c1-3.7,1.8-7.5,2.4-11.3c0.6-3.8,1.2-7.6,1.7-11.4c1.1-0.2,2.3-0.4,3.5-0.6
		c1.2-0.2,2.4-0.3,3.7-0.3c0.7,0,1.5,0.1,2.2,0.4c0.8,0.2,1.5,0.7,2,1.3c0.5,0.6,0.8,1.5,0.8,2.7c0,1.1-0.2,2-0.7,2.9
		c-0.4,0.9-1,1.7-1.7,2.3c-0.7,0.6-1.4,1.1-2.1,1.4c0.3,0.1,0.7,0.4,1.1,0.8c0.4,0.4,0.8,0.9,1.1,1.5c0.3,0.6,0.4,1.4,0.4,2.3
		c0,1.3-0.4,2.4-1.1,3.5c-0.8,1-1.8,1.9-3,2.6c-1.2,0.7-2.5,1.2-3.9,1.6C179.2,36.1,177.8,36.3,176.4,36.3z M180.5,29.8
		c0.4,0,0.9-0.1,1.4-0.2s1-0.3,1.5-0.5c0.5-0.2,0.9-0.5,1.2-0.9c0.3-0.4,0.5-0.8,0.5-1.4c0-0.5-0.2-0.9-0.5-1.2
		c-0.3-0.3-0.8-0.5-1.2-0.7c-0.5-0.1-0.9-0.2-1.4-0.2h-0.3c-0.1,0-0.2,0-0.3,0c-0.1,0.8-0.3,1.6-0.4,2.5
		C180.7,28.2,180.6,29,180.5,29.8z M182.1,20.8c0.7-0.1,1.3-0.3,1.9-0.5c0.6-0.2,1.1-0.5,1.5-0.7c0.4-0.3,0.6-0.6,0.6-0.9
		c0-0.4-0.2-0.7-0.5-1c-0.3-0.2-0.7-0.4-1.2-0.5c-0.4-0.1-0.9-0.2-1.2-0.2h-0.3c-0.1,0.9-0.3,1.6-0.4,2.2S182.2,20.4,182.1,20.8z"/>
	<path class="st2" d="M193.4,36.2c-0.9,0-1.7-0.2-2.6-0.7c-0.9-0.5-1.7-1.2-2.5-2.2l2.4-4.6c0.2,0.4,0.6,0.8,1,1.2s0.9,0.7,1.5,0.9
		c0.5,0.2,0.9,0.3,1.3,0.3c0.6,0,1.1-0.2,1.6-0.5c0.5-0.3,0.8-0.8,0.8-1.4c0-0.7-0.3-1.4-1-2s-1.5-1.2-2.3-1.8
		c-0.8-0.6-1.6-1.3-2.3-2c-0.7-0.8-1-1.6-1-2.6c0-1.1,0.3-2.1,1-3.1c0.6-0.9,1.5-1.8,2.5-2.5s2.1-1.3,3.3-1.7
		c1.2-0.4,2.3-0.6,3.3-0.6c0.7,0,1.4,0.1,2.1,0.4c0.6,0.2,1.2,0.6,1.5,1.2s0.6,1.3,0.6,2.2c0,0.1,0,0.3,0,0.4s0,0.3,0,0.4
		c0,0.1,0,0.3-0.1,0.5c0,0.2-0.1,0.3-0.1,0.5l-4.6,1.3c0-0.2,0.1-0.3,0.1-0.5c0-0.2,0-0.3,0-0.5c0-0.6-0.1-1.1-0.3-1.4
		c-0.2-0.3-0.5-0.4-0.9-0.4c-0.2,0-0.5,0.1-0.8,0.3c-0.4,0.2-0.7,0.5-1,0.8c-0.3,0.4-0.4,0.7-0.4,1.2c0,0.7,0.3,1.3,0.9,1.7
		c0.6,0.5,1.3,0.9,2,1.4c0.4,0.2,0.8,0.5,1.2,1s0.8,1.1,1.2,1.9c0.3,0.8,0.5,1.8,0.5,3c0,1.6-0.4,3-1.2,4.2
		c-0.8,1.2-1.8,2.1-3.2,2.8C196.5,35.9,195,36.2,193.4,36.2z"/>
</g>
</svg>
