<?xml version="1.0" encoding="utf-8"?>
<!-- Generator: Adobe Illustrator 27.9.0, SVG Export Plug-In . SVG Version: 6.00 Build 0)  -->
<svg version="1.1"
	 id="svg566" xmlns:svg="http://www.w3.org/2000/svg" xmlns:cc="http://creativecommons.org/ns#" xmlns:inkscape="http://www.inkscape.org/namespaces/inkscape" xmlns:dc="http://purl.org/dc/elements/1.1/" xmlns:rdf="http://www.w3.org/1999/02/22-rdf-syntax-ns#" xmlns:sodipodi="http://sodipodi.sourceforge.net/DTD/sodipodi-0.dtd" inkscape:export-xdpi="561.73712" inkscape:export-ydpi="561.73712"
	 xmlns="http://www.w3.org/2000/svg" xmlns:xlink="http://www.w3.org/1999/xlink" x="0px" y="0px" viewBox="0 0 144.3 153.6"
	 style="enable-background:new 0 0 144.3 153.6;" xml:space="preserve">
<style type="text/css">
	.st0{fill:#069DE0;}
	.st1{fill:#6E55DC;}
	.st2{fill:#05AC3F;}
	.st3{fill:#EF1541;}
	.st4{fill:#FF7112;}
	.st5{fill:#FCCC12;}
	.st6{fill:url(#path14-8_00000147187449263992561450000013248000447847769245_);}
	.st7{fill:url(#use16-9_00000011721341692045328350000015817345883184399539_);}
	.st8{fill:url(#use18-0_00000080910689547170436260000010022122039455478955_);}
</style>
<sodipodi:namedview  bordercolor="#666666" borderopacity="1" gridtolerance="10" guidetolerance="10" id="namedview568" inkscape:current-layer="svg566" inkscape:cx="-182.08472" inkscape:cy="127.61465" inkscape:pageopacity="0" inkscape:pageshadow="2" inkscape:window-height="1017" inkscape:window-maximized="1" inkscape:window-width="1920" inkscape:window-x="-8" inkscape:window-y="-8" inkscape:zoom="0.4495614" objecttolerance="10" pagecolor="#ffffff" showgrid="false">
	</sodipodi:namedview>
<g>
	
		<path id="use2" inkscape:connector-curvature="0" inkscape:export-filename="C:\Users\suitedoalex\sites\peacock-logo-white.png" inkscape:export-xdpi="237.006" inkscape:export-ydpi="237.006" class="st0" d="
		M118.6,105.9c-5,0-9.1,4.1-9.1,9.1c0,5,4.1,9.1,9.1,9.1c5,0,9.1-4.1,9.1-9.1C127.7,110,123.6,105.9,118.6,105.9z"/>
	
		<path id="use4-3" inkscape:connector-curvature="0" inkscape:export-filename="C:\Users\suitedoalex\sites\peacock-logo-white.png" inkscape:export-xdpi="237.006" inkscape:export-ydpi="237.006" class="st1" d="
		M118.6,81.1c-5,0-9.1,4.1-9.1,9.1c0,5,4.1,9.1,9.1,9.1c5,0,9.1-4.1,9.1-9.1C127.7,85.1,123.6,81.1,118.6,81.1z"/>
	
		<path id="use6-4" inkscape:connector-curvature="0" inkscape:export-filename="C:\Users\suitedoalex\sites\peacock-logo-white.png" inkscape:export-xdpi="237.006" inkscape:export-ydpi="237.006" class="st2" d="
		M118.6,130.8c-5,0-9.1,4.1-9.1,9.1c0,5,4.1,9.1,9.1,9.1c5,0,9.1-4.1,9.1-9.1C127.7,134.9,123.6,130.8,118.6,130.8z"/>
	
		<path id="use8-2" inkscape:connector-curvature="0" inkscape:export-filename="C:\Users\suitedoalex\sites\peacock-logo-white.png" inkscape:export-xdpi="237.006" inkscape:export-ydpi="237.006" class="st3" d="
		M118.6,56.1c-5,0-9.1,4.1-9.1,9.1c0,5,4.1,9.1,9.1,9.1c5,0,9.1-4.1,9.1-9.1C127.7,60.2,123.6,56.1,118.6,56.1z"/>
	
		<path id="use10-4" inkscape:connector-curvature="0" inkscape:export-filename="C:\Users\suitedoalex\sites\peacock-logo-white.png" inkscape:export-xdpi="237.006" inkscape:export-ydpi="237.006" class="st4" d="
		M118.6,31.3c-5,0-9.1,4.1-9.1,9.1c0,5,4.1,9.1,9.1,9.1c5,0,9.1-4.1,9.1-9.1C127.7,35.4,123.6,31.3,118.6,31.3z"/>
	
		<path id="path12" inkscape:connector-curvature="0" inkscape:export-filename="C:\Users\suitedoalex\sites\peacock-logo-white.png" inkscape:export-xdpi="237.006" inkscape:export-ydpi="237.006" class="st5" d="
		M118.7,5.8c-5,0-9.1,4.1-9.1,9.1c0,5,4.1,9.1,9.1,9.1c5,0,9.1-4.1,9.1-9.1C127.8,9.9,123.7,5.8,118.7,5.8z"/>
</g>
<linearGradient id="path14-8_00000146492423466232538630000012661034428915832247_" gradientUnits="userSpaceOnUse" x1="6.5588" y1="251.5255" x2="15.3068" y2="259.4915" gradientTransform="matrix(5.1196 0 0 -5.1196 -0.5333 1377.387)">
	<stop  offset="0" style="stop-color:#FFFFFF"/>
	<stop  offset="0.498" style="stop-color:#FFFFFF"/>
	<stop  offset="1" style="stop-color:#D7D9D9"/>
</linearGradient>
<path id="path14-8" inkscape:connector-curvature="0" inkscape:export-filename="C:\Users\suitedoalex\sites\peacock-logo-white.png" inkscape:export-xdpi="237.006" inkscape:export-ydpi="237.006" style="fill:url(#path14-8_00000146492423466232538630000012661034428915832247_);" d="
	M58,23.1c-16.4,0-29,12.8-29,29.1l0,86.9h9.4V52.4c0-11.9,8.9-20.6,19.7-20.6s19.7,8.7,19.7,20.6c0,7.5-3.7,15.8-13,19.4L38.4,82.1
	l0,8.7l0.5,0.5l28-11.6c8.4-3.7,11.2-6.4,11.3-6.5c5.8-5.5,9.1-13.1,9.1-21.1c0-16.1-13-29.1-29.1-29.1C58.1,23.1,58,23.1,58,23.1
	L58,23.1z"/>
<linearGradient id="use16-9_00000142171914005597568200000002763411442728002730_" gradientUnits="userSpaceOnUse" x1="7.7262" y1="259.0152" x2="11.5842" y2="250.9012" gradientTransform="matrix(5.1196 0 0 -5.1196 -0.5333 1377.387)">
	<stop  offset="0" style="stop-color:#FFFFFF"/>
	<stop  offset="1" style="stop-color:#C7C7C7"/>
</linearGradient>
<path id="use16-9" inkscape:connector-curvature="0" inkscape:export-filename="C:\Users\suitedoalex\sites\peacock-logo-white.png" inkscape:export-xdpi="237.006" inkscape:export-ydpi="237.006" style="fill:url(#use16-9_00000142171914005597568200000002763411442728002730_);" d="
	M58.1,14.9c-20.7,0-37.4,16.8-37.5,37.5V139h8.5V52.2c0-16,13-29,29-29s29,12.9,29,29c0,7.9-3.2,15.5-9,21c0,0-2.8,2.8-11.2,6.4
	l-28,11.7l6.1,6.4L71,87.6c14.9-5.8,24.6-19.2,24.6-35.2C95.5,31.7,78.8,15,58.1,14.9L58.1,14.9z"/>
<linearGradient id="use18-0_00000023265699976241230790000016285675755395602065_" gradientUnits="userSpaceOnUse" x1="5.1723" y1="252.8665" x2="7.6113" y2="253.8875" gradientTransform="matrix(5.1196 0 0 -5.1196 -0.5333 1377.387)">
	<stop  offset="0" style="stop-color:#F3F4F4"/>
	<stop  offset="0.966" style="stop-color:#F1F2F2;stop-opacity:0"/>
</linearGradient>
<path id="use18-0" inkscape:connector-curvature="0" inkscape:export-filename="C:\Users\suitedoalex\sites\peacock-logo-white.png" inkscape:export-xdpi="237.006" inkscape:export-ydpi="237.006" style="fill:url(#use18-0_00000023265699976241230790000016285675755395602065_);" d="
	M58.1,14.9c-20.7,0-37.4,16.8-37.5,37.5V139h8.5V52.2c0-16,13-29,29-29s29,12.9,29,29c0,7.9-3.2,15.5-9,21c0,0-2.8,2.8-11.2,6.4
	l-28,11.7l6.1,6.4L71,87.6c14.9-5.8,24.6-19.2,24.6-35.2C95.5,31.7,78.8,15,58.1,14.9L58.1,14.9z"/>
</svg>
