<?xml version="1.0" encoding="utf-8"?>
<!-- Generator: Adobe Illustrator 27.9.0, SVG Export Plug-In . SVG Version: 6.00 Build 0)  -->
<svg version="1.1" id="Layer_1" xmlns="http://www.w3.org/2000/svg" xmlns:xlink="http://www.w3.org/1999/xlink" x="0px" y="0px"
	 viewBox="0 0 48.1 48" style="enable-background:new 0 0 48.1 48;" xml:space="preserve">
<style type="text/css">
	.st0{fill-rule:evenodd;clip-rule:evenodd;fill:#231F20;}
</style>
<path class="st0" d="M40.3,7.3c0.4-2.6,1.1-4.2,1.8-4.2l0,0c1.3,0,2.4,5.6,2.4,12.5s-1.1,12.5-2.4,12.5c-0.6,0-1.1-1-1.5-2.6
	c-0.6,5.9-2,9.9-3.6,9.9c-1.2,0-2.3-2.4-3-6.2c-0.5,7.2-1.7,12.4-3.2,12.4c-0.9,0-1.8-2-2.4-5.4C27.8,43.2,26,48,24,48
	s-3.7-4.8-4.5-11.6c-0.6,3.3-1.4,5.4-2.4,5.4c-1.5,0-2.7-5.1-3.2-12.4c-0.7,3.8-1.8,6.2-3,6.2c-1.6,0-2.9-4-3.6-9.9
	c-0.4,1.6-0.9,2.6-1.5,2.6c-1.3,0-2.4-5.6-2.4-12.5S4.5,3.3,5.8,3.3c0.7,0,1.4,1.6,1.8,4.2C8.5,2.9,9.7,0,11,0c1.6,0,2.9,4.1,3.6,10
	c0.6-4.3,1.5-7.1,2.6-7.1c1.5,0,2.8,5.4,3.2,12.9c0.9-3.9,2.2-6.3,3.6-6.3s2.7,2.4,3.6,6.3c0.5-7.5,1.7-12.9,3.2-12.9
	c1.1,0,2,2.7,2.7,7.1c0.6-5.9,2-10,3.6-10C38.4,0,39.6,2.9,40.3,7.3z M0,14.4c0-3.1,0.6-5.6,1.4-5.6s1.4,2.5,1.4,5.6S2.2,20,1.4,20
	S0,17.5,0,14.4z M45.3,14.4c0-3.1,0.6-5.6,1.4-5.6s1.4,2.5,1.4,5.6S47.5,20,46.7,20S45.3,17.5,45.3,14.4z"/>
</svg>
