<?xml version="1.0" encoding="utf-8"?>
<!-- Generator: Adobe Illustrator 27.9.0, SVG Export Plug-In . SVG Version: 6.00 Build 0)  -->
<svg version="1.1" id="logos" xmlns="http://www.w3.org/2000/svg" xmlns:xlink="http://www.w3.org/1999/xlink" x="0px" y="0px"
	 viewBox="0 0 85.5 34" style="enable-background:new 0 0 85.5 34;" xml:space="preserve">
<style type="text/css">
	.st0{fill:none;}
</style>
<g>
	<g>
		<g>
			<path d="M27.6,8.4c-4.7,0-8.6,3.8-8.6,8.6s3.8,8.6,8.6,8.6s8.6-3.9,8.6-8.6S32.4,8.4,27.6,8.4z M27.6,22.6
				c-3.1,0-5.7-2.5-5.7-5.7c0-3.1,2.5-5.7,5.7-5.7c3.1,0,5.7,2.5,5.7,5.7C33.3,20.1,30.7,22.6,27.6,22.6z"/>
			<path d="M8.6,8.4C3.8,8.4,0,12.2,0,17s3.8,8.6,8.6,8.6c1.6,0,3.2-0.5,4.5-1.2v-3.9c-1,1.3-2.6,2.2-4.5,2.2
				c-3.1,0-5.7-2.5-5.7-5.7c0-3.1,2.5-5.7,5.7-5.7c3.1,0,5.7,2.5,5.7,5.7v6.5v9c0,0.8,0.7,1.5,1.5,1.5s1.5-0.7,1.5-1.5V17
				C17.2,12.2,13.3,8.4,8.6,8.4z"/>
			<path d="M46.6,25.6c4.7,0,8.6-3.9,8.6-8.6s-3.8-8.6-8.6-8.6c-1.6,0-3.2,0.5-4.5,1.2v3.9c1-1.3,2.6-2.2,4.5-2.2
				c3.1,0,5.7,2.5,5.7,5.7c0,3.1-2.5,5.7-5.7,5.7c-3.1,0-5.7-2.5-5.7-5.7v-6.5v-9c0-0.8-0.7-1.5-1.5-1.5S38,0.7,38,1.5V17
				C38,21.7,41.8,25.6,46.6,25.6z"/>
			<path d="M64.2,25.6c-4.8,0-7.1-4.3-7.1-6.5s0-9.2,0-9.2c0-0.8,0.7-1.5,1.5-1.5c0.8,0,1.5,0.7,1.5,1.5c0,0,0,7.9,0,8.9
				s0.3,3.9,4.3,3.9c3.3,0,4.1-2.2,4.1-3.3c0-1.1,0-9.5,0-9.5c0-0.8,0.7-1.5,1.5-1.5c0.8,0,1.5,0.7,1.5,1.5c0,0,0,7.6,0,9.4
				C71.3,21,69.7,25.6,64.2,25.6z"/>
			<path d="M84,25.6c0.8,0,1.5-0.7,1.5-1.5s-0.7-1.5-1.5-1.5h-6.9l6-8c2.3-3.1,2.4-3.2,2.4-4.1c0-1-1-2-2-2c-1,0-8.7,0-8.7,0
				c-0.8,0-1.5,0.7-1.5,1.5s0.7,1.5,1.5,1.5h7.1c0,0-7.6,10-8.3,10.9c-0.7,0.9-0.3,3.2,1.5,3.2C76.9,25.6,84,25.6,84,25.6z"/>
		</g>
	</g>
	<rect x="-39.5" y="-3" class="st0" width="125" height="40"/>
</g>
</svg>
